<?xml version="1.0" encoding="UTF-8" standalone="no"?>
<svg
   xmlns:dc="http://purl.org/dc/elements/1.1/"
   xmlns:cc="http://creativecommons.org/ns#"
   xmlns:rdf="http://www.w3.org/1999/02/22-rdf-syntax-ns#"
   xmlns:svg="http://www.w3.org/2000/svg"
   xmlns="http://www.w3.org/2000/svg"
   xmlns:xlink="http://www.w3.org/1999/xlink"
   xmlns:sodipodi="http://sodipodi.sourceforge.net/DTD/sodipodi-0.dtd"
   xmlns:inkscape="http://www.inkscape.org/namespaces/inkscape"
   version="1.1"
   width="24"
   height="24"
   id="svg3426"
   inkscape:version="0.48.4 r9939"
   sodipodi:docname="meld.svg">
  <sodipodi:namedview
     pagecolor="#ffffff"
     bordercolor="#666666"
     borderopacity="1"
     objecttolerance="10"
     gridtolerance="10"
     guidetolerance="10"
     inkscape:pageopacity="0"
     inkscape:pageshadow="2"
     inkscape:window-width="1366"
     inkscape:window-height="713"
     id="namedview10657"
     showgrid="false"
     inkscape:zoom="21.311078"
     inkscape:cx="28.397584"
     inkscape:cy="11.516627"
     inkscape:window-x="0"
     inkscape:window-y="30"
     inkscape:window-maximized="1"
     inkscape:current-layer="svg3426"
     inkscape:snap-bbox="true"
     inkscape:bbox-nodes="true"
     inkscape:snap-bbox-edge-midpoints="true"
     showguides="true"
     inkscape:guide-bbox="true" />
  <defs
     id="defs3428">
    <radialGradient
       cx="4.9929786"
       cy="43.5"
       r="2.5"
       fx="4.9929786"
       fy="43.5"
       id="radialGradient3152"
       xlink:href="#linearGradient3688-166-749"
       gradientUnits="userSpaceOnUse"
       gradientTransform="matrix(2.003784,0,0,1.4,27.98813,-17.4)" />
    <linearGradient
       id="linearGradient3688-166-749">
      <stop
         id="stop2883"
         style="stop-color:#181818;stop-opacity:1"
         offset="0" />
      <stop
         id="stop2885"
         style="stop-color:#181818;stop-opacity:0"
         offset="1" />
    </linearGradient>
    <radialGradient
       cx="4.9929786"
       cy="43.5"
       r="2.5"
       fx="4.9929786"
       fy="43.5"
       id="radialGradient3154"
       xlink:href="#linearGradient3688-464-309"
       gradientUnits="userSpaceOnUse"
       gradientTransform="matrix(2.003784,0,0,1.4,-20.01187,-104.4)" />
    <linearGradient
       id="linearGradient3688-464-309">
      <stop
         id="stop2889"
         style="stop-color:#181818;stop-opacity:1"
         offset="0" />
      <stop
         id="stop2891"
         style="stop-color:#181818;stop-opacity:0"
         offset="1" />
    </linearGradient>
    <linearGradient
       x1="25.058096"
       y1="47.027729"
       x2="25.058096"
       y2="39.999443"
       id="linearGradient3156"
       xlink:href="#linearGradient3702-501-757"
       gradientUnits="userSpaceOnUse" />
    <linearGradient
       id="linearGradient3702-501-757">
      <stop
         id="stop2895"
         style="stop-color:#181818;stop-opacity:0"
         offset="0" />
      <stop
         id="stop2897"
         style="stop-color:#181818;stop-opacity:1"
         offset="0.5" />
      <stop
         id="stop2899"
         style="stop-color:#181818;stop-opacity:0"
         offset="1" />
    </linearGradient>
    <linearGradient
       id="linearGradient3680-6-6-6-3-7-4">
      <stop
         id="stop3682-4-6-1-3-7-5"
         style="stop-color:#dcdcdc;stop-opacity:1"
         offset="0" />
      <stop
         id="stop3684-8-5-8-0-2-3"
         style="stop-color:#ffffff;stop-opacity:1"
         offset="1" />
    </linearGradient>
    <linearGradient
       xlink:href="#linearGradient3680-6-6-6-3-7-4"
       id="linearGradient3875"
       gradientUnits="userSpaceOnUse"
       gradientTransform="matrix(0.46525496,0,0,0.46525496,0.2208768,-0.3282085)"
       x1="20"
       y1="26.000008"
       x2="20"
       y2="13.000008" />
    <linearGradient
       xlink:href="#linearGradient3680-6-6-6-3-7-4"
       id="linearGradient3880"
       gradientUnits="userSpaceOnUse"
       gradientTransform="matrix(0.66257291,0,0,0.66257291,-2.4539575,-4.5672473)"
       x1="20"
       y1="26.000008"
       x2="20"
       y2="13.000008" />
    <linearGradient
       id="linearGradient3924-0">
      <stop
         offset="0"
         style="stop-color:#ffffff;stop-opacity:1"
         id="stop3926-6" />
      <stop
         offset="0.06316455"
         style="stop-color:#ffffff;stop-opacity:0.23529412"
         id="stop3928-3" />
      <stop
         offset="0.95056331"
         style="stop-color:#ffffff;stop-opacity:0.15686275"
         id="stop3930-2" />
      <stop
         offset="1"
         style="stop-color:#ffffff;stop-opacity:0.39215687"
         id="stop3932-62" />
    </linearGradient>
    <linearGradient
       id="linearGradient2867-449-88-871-390-598-476-591-434-148-57-177-8-3-3-6-4-8-8-8-5-6-7">
      <stop
         offset="0"
         style="stop-color:#307ed8;stop-opacity:1;"
         id="stop3750-1-0-7-6-6-1-3-9-3-0-9" />
      <stop
         offset="0.28"
         style="stop-color:#246bbe;stop-opacity:1;"
         id="stop3752-3-7-4-0-32-8-923-0-7-7-5" />
      <stop
         offset="0.704952"
         style="stop-color:#307ed8;stop-opacity:1;"
         id="stop3754-1-8-5-2-7-6-7-1-9-1-6" />
      <stop
         offset="1"
         style="stop-color:#000000;stop-opacity:1"
         id="stop3756-1-6-2-6-6-1-96-6-0-6-5" />
    </linearGradient>
    <radialGradient
       r="12.671875"
       fy="9.9571075"
       fx="7.1183534"
       cy="9.9571075"
       cx="7.1183534"
       gradientTransform="matrix(0,4.4529398,-5.4667877,0,66.838269,-38.124667)"
       gradientUnits="userSpaceOnUse"
       id="radialGradient3173"
       xlink:href="#linearGradient2867-449-88-871-390-598-476-591-434-148-57-177-8-3-3-6-4-8-8-8-5-6-7" />
    <linearGradient
       xlink:href="#linearGradient3924-0"
       id="linearGradient3203"
       gradientUnits="userSpaceOnUse"
       gradientTransform="matrix(0.62162164,0,0,0.62162164,27.298203,-6.3512651)"
       x1="23.99999"
       y1="4.999989"
       x2="23.99999"
       y2="43" />
    <linearGradient
       id="linearGradient3924-64">
      <stop
         id="stop3926-3-6"
         style="stop-color:#ffffff;stop-opacity:1"
         offset="0" />
      <stop
         id="stop3928-0"
         style="stop-color:#ffffff;stop-opacity:0.23529412"
         offset="0.06316455" />
      <stop
         id="stop3930-3-59"
         style="stop-color:#ffffff;stop-opacity:0.15686275"
         offset="0.95056331" />
      <stop
         id="stop3932-0"
         style="stop-color:#ffffff;stop-opacity:0.39215687"
         offset="1" />
    </linearGradient>
    <linearGradient
       y2="43"
       x2="23.99999"
       y1="4.999989"
       x1="23.99999"
       gradientTransform="matrix(0.45945947,0,0,0.45945947,0.9742189,0.9717506)"
       gradientUnits="userSpaceOnUse"
       id="linearGradient3101"
       xlink:href="#linearGradient3924-64" />
    <radialGradient
       r="12.671875"
       fy="9.9571075"
       fx="7.1183534"
       cy="9.9571075"
       cx="7.1183534"
       gradientTransform="matrix(0,4.4529398,-5.4667877,0,66.838269,-38.124667)"
       gradientUnits="userSpaceOnUse"
       id="radialGradient3173-8"
       xlink:href="#linearGradient2867-449-88-871-390-598-476-591-434-148-57-177-8-3-3-6-4-8-8-8-5-6-7-9" />
    <linearGradient
       id="linearGradient2867-449-88-871-390-598-476-591-434-148-57-177-8-3-3-6-4-8-8-8-5-6-7-9">
      <stop
         offset="0"
         style="stop-color:#ee4e16;stop-opacity:1;"
         id="stop3750-1-0-7-6-6-1-3-9-3-0-9-6" />
      <stop
         offset="0.26238"
         style="stop-color:#d83e0f;stop-opacity:1;"
         id="stop3752-3-7-4-0-32-8-923-0-7-7-5-7" />
      <stop
         offset="0.704952"
         style="stop-color:#b03a00;stop-opacity:1;"
         id="stop3754-1-8-5-2-7-6-7-1-9-1-6-3" />
      <stop
         offset="1"
         style="stop-color:#000000;stop-opacity:1"
         id="stop3756-1-6-2-6-6-1-96-6-0-6-5-4" />
    </linearGradient>
    <linearGradient
       inkscape:collect="always"
       xlink:href="#linearGradient6474"
       id="linearGradient6480"
       x1="13.010341"
       y1="57.470501"
       x2="80.563507"
       y2="57.470501"
       gradientUnits="userSpaceOnUse" />
    <linearGradient
       id="linearGradient6474">
      <stop
         style="stop-color:#ff9537;stop-opacity:1;"
         offset="0"
         id="stop6476" />
      <stop
         id="stop6484"
         offset="0.25"
         style="stop-color:#ff9435;stop-opacity:1;" />
      <stop
         id="stop6482"
         offset="0.5"
         style="stop-color:#ff9333;stop-opacity:1;" />
      <stop
         style="stop-color:#ff9231;stop-opacity:1;"
         offset="1"
         id="stop6478" />
    </linearGradient>
    <linearGradient
       gradientTransform="matrix(0.18569165,0,0,0.18569165,0.08408762,-0.46373964)"
       inkscape:collect="always"
       xlink:href="#linearGradient2867-449-88-871-390-598-476-591-434-148-57-177-8-3-3-6-4-8-8-8-5-7-8"
       id="linearGradient6472"
       x1="35.539631"
       y1="67.377243"
       x2="115.4999"
       y2="67.377243"
       gradientUnits="userSpaceOnUse" />
    <linearGradient
       id="linearGradient2867-449-88-871-390-598-476-591-434-148-57-177-8-3-3-6-4-8-8-8-5-7-8">
      <stop
         id="stop3750-1-0-7-6-6-1-3-9-3-9-2"
         style="stop-color:#ff8519;stop-opacity:1;"
         offset="0" />
      <stop
         id="stop3752-3-7-4-0-32-8-923-0-7-0-3"
         style="stop-color:#ff902d;stop-opacity:1;"
         offset="0.26238" />
      <stop
         id="stop3754-1-8-5-2-7-6-7-1-9-1-0"
         style="stop-color:#ff9b41;stop-opacity:1;"
         offset="0.75999999" />
      <stop
         id="stop3756-1-6-2-6-6-1-96-6-0-1-7"
         style="stop-color:#ffa555;stop-opacity:1;"
         offset="1" />
    </linearGradient>
    <linearGradient
       gradientTransform="matrix(0.18569165,0,0,0.18569165,0.08408762,-0.46373964)"
       y2="57.470501"
       x2="80.563507"
       y1="57.470501"
       x1="13.010341"
       gradientUnits="userSpaceOnUse"
       id="linearGradient6028"
       xlink:href="#linearGradient6474"
       inkscape:collect="always" />
    <linearGradient
       inkscape:collect="always"
       xlink:href="#linearGradient8714"
       id="linearGradient8722"
       gradientUnits="userSpaceOnUse"
       gradientTransform="matrix(1.0040337,0,0,1.6571428,-0.4832075,-29.912464)"
       x1="12.931034"
       y1="58.482758"
       x2="115.51723"
       y2="58.482758" />
    <linearGradient
       id="linearGradient8714">
      <stop
         style="stop-color:#f4f4f4;stop-opacity:1;"
         offset="0"
         id="stop8716" />
      <stop
         style="stop-color:#dbdbdb;stop-opacity:1;"
         offset="1"
         id="stop8718" />
    </linearGradient>
    <linearGradient
       y2="58.482758"
       x2="115.51723"
       y1="58.482758"
       x1="12.931034"
       gradientTransform="matrix(0.1945553,0,0,0.28999999,-0.51292696,-4.9599714)"
       gradientUnits="userSpaceOnUse"
       id="linearGradient6080"
       xlink:href="#linearGradient8714"
       inkscape:collect="always" />
    <linearGradient
       y2="3.0718794"
       x2="22.004084"
       y1="44.854229"
       x1="22.004084"
       gradientTransform="matrix(2.6665808,0,0,2.6665808,-6.6971484,-1.2440862)"
       gradientUnits="userSpaceOnUse"
       id="linearGradient4575"
       xlink:href="#linearGradient3104-7-1"
       inkscape:collect="always" />
    <linearGradient
       id="linearGradient3104-7-1">
      <stop
         id="stop3106-7-5"
         style="stop-color:#a0a0a0;stop-opacity:1"
         offset="0" />
      <stop
         id="stop3108-2-4"
         style="stop-color:#c8c8c8;stop-opacity:1"
         offset="1" />
    </linearGradient>
    <linearGradient
       y2="3.0718794"
       x2="22.004084"
       y1="44.854229"
       x1="22.004084"
       gradientTransform="matrix(0.45439818,0,0,0.45533429,-0.06491392,0.34664289)"
       gradientUnits="userSpaceOnUse"
       id="linearGradient6114"
       xlink:href="#linearGradient3104-7-1"
       inkscape:collect="always" />
    <linearGradient
       gradientTransform="matrix(0.18569165,0,0,0.18569165,0.08408762,-0.46373964)"
       inkscape:collect="always"
       xlink:href="#linearGradient2867-449-88-871-390-598-476-591-434-148-57-177-8-3-3-6-4-8-8-8-5-7-8-1"
       id="linearGradient6472-2"
       x1="35.539631"
       y1="67.377243"
       x2="115.4999"
       y2="67.377243"
       gradientUnits="userSpaceOnUse" />
    <linearGradient
       id="linearGradient2867-449-88-871-390-598-476-591-434-148-57-177-8-3-3-6-4-8-8-8-5-7-8-1">
      <stop
         id="stop3750-1-0-7-6-6-1-3-9-3-9-2-2"
         style="stop-color:#ff8519;stop-opacity:1;"
         offset="0" />
      <stop
         id="stop3752-3-7-4-0-32-8-923-0-7-0-3-2"
         style="stop-color:#ff902d;stop-opacity:1;"
         offset="0.26238" />
      <stop
         id="stop3754-1-8-5-2-7-6-7-1-9-1-0-9"
         style="stop-color:#ff9b41;stop-opacity:1;"
         offset="0.75999999" />
      <stop
         id="stop3756-1-6-2-6-6-1-96-6-0-1-7-0"
         style="stop-color:#ffa555;stop-opacity:1;"
         offset="1" />
    </linearGradient>
    <linearGradient
       gradientTransform="matrix(0.18569165,0,0,0.18569165,0.08408762,-0.46373964)"
       y2="57.470501"
       x2="80.563507"
       y1="57.470501"
       x1="13.010341"
       gradientUnits="userSpaceOnUse"
       id="linearGradient6028-3"
       xlink:href="#linearGradient6474-0"
       inkscape:collect="always" />
    <linearGradient
       id="linearGradient6474-0">
      <stop
         style="stop-color:#ff9537;stop-opacity:1;"
         offset="0"
         id="stop6476-0" />
      <stop
         id="stop6484-0"
         offset="0.25"
         style="stop-color:#ff9435;stop-opacity:1;" />
      <stop
         id="stop6482-8"
         offset="0.5"
         style="stop-color:#ff9333;stop-opacity:1;" />
      <stop
         style="stop-color:#ff9231;stop-opacity:1;"
         offset="1"
         id="stop6478-6" />
    </linearGradient>
  </defs>
  <metadata
     id="metadata3431">
    <rdf:RDF>
      <cc:Work
         rdf:about="">
        <dc:format>image/svg+xml</dc:format>
        <dc:type
           rdf:resource="http://purl.org/dc/dcmitype/StillImage" />
        <dc:title></dc:title>
      </cc:Work>
    </rdf:RDF>
  </metadata>
  <g
     style="display:inline"
     id="g2036"
     transform="matrix(0.55,0,0,0.3333336,-1.2000011,7.33331)">
    <g
       style="opacity:0.4"
       id="g3712"
       transform="matrix(1.052632,0,0,1.285713,-1.263158,-13.42854)">
      <rect
         style="fill:url(#radialGradient3152);fill-opacity:1;stroke:none"
         id="rect2801"
         y="40"
         x="38"
         height="7"
         width="5" />
      <rect
         style="fill:url(#radialGradient3154);fill-opacity:1;stroke:none"
         id="rect3696"
         transform="scale(-1,-1)"
         y="-47"
         x="-10"
         height="7"
         width="5" />
      <rect
         style="fill:url(#linearGradient3156);fill-opacity:1;stroke:none"
         id="rect3700"
         y="40"
         x="10"
         height="7.0000005"
         width="28" />
    </g>
  </g>
  <rect
     style="opacity:0.95;color:#000000;fill:url(#radialGradient3173);fill-opacity:1;fill-rule:nonzero;stroke:none;stroke-width:0.99999994000000003;marker:none;visibility:visible;display:inline;overflow:visible;enable-background:accumulate"
     id="rect5505-21-6"
     y="2.5000269"
     x="2.499999"
     ry="1"
     rx="1"
     height="19"
     width="19" />
  <path
     style="fill:#000000;fill-opacity:1;stroke:none;opacity:0.15"
     d="m 10.859578,10.053152 c 0.339718,0 1.070172,-0.2222412 1.528734,0 0.238011,0.11535 0.41884,0.368538 0.491623,0.622817 0.141089,0.492918 0.0057,1.047031 -0.169859,1.528732 -0.170978,0.468999 -0.446928,0.927173 -0.831342,1.245635 -0.471792,0.390847 -1.087573,0.61731 -1.691883,0.718102 C 9.5254221,14.278755 8.8085824,14.260089 8.1802042,14.025999 7.4313548,13.747029 6.776968,13.199719 6.260641,12.589795 5.7023482,11.930297 5.3167938,11.137993 5.0716265,10.28634 4.7967614,9.3315214 4.7709223,8.3940658 4.9465886,7.4821922 5.0894399,6.7406633 5.4386813,5.9953842 5.8484185,5.3610437 6.3063836,4.6520405 6.9564044,4.0652501 7.6437861,3.5754295 8.1839486,3.1905157 9.4306635,2.6999488 9.4306635,2.6999488 c 0,0 -5.775571,0 -5.9273533,0 -0.6513305,0 -1.0033112,0.6280109 -1.0033112,0.9437253 0,0.1596424 0,12.5889359 0,12.5889359 0,0 1.2288825,0.705447 1.8866977,0.961335 1.0587425,0.411848 2.1493453,0.854537 3.283946,0.911422 1.1346579,0.05689 2.3231248,-0.111464 3.3588093,-0.578414 1.161458,-0.523655 2.255591,-1.345266 2.980138,-2.39323 0.56371,-0.815331 0.996662,-1.838269 0.923138,-2.826766 C 14.842228,11.090256 14.343525,9.6565314 13.294244,9.0339906 12.839473,8.764174 12.186915,8.8645369 11.70889,9.0906046 11.32208,9.273539 11.01058,9.6190559 10.859593,10.053141 z"
     id="path6446-4-3"
     inkscape:connector-curvature="0"
     sodipodi:nodetypes="caaaaaassssacsscaaaaaaacc" />
  <path
     inkscape:connector-curvature="0"
     style="fill:none;stroke:url(#linearGradient6114);stroke-width:0.15000001;stroke-linecap:butt;stroke-linejoin:miter;stroke-miterlimit:4;stroke-opacity:1;stroke-dasharray:none"
     id="path3715-7-4"
     d="m 5.84178,5.6820621 1.0669121,0 m 0.1524176,0 0.9907046,0 m 0.1594742,0 0.884014,0 m 0.1453586,0 0.3810401,0 m 0.1524164,0 0.8535294,0 m 2.315626,0 1.796598,0 m 0.152416,0 1.707063,0 m 0.152416,0 0.518216,0 m -11.0873934,0.8537798 1.3134877,0 m 0.1924651,0 0.790461,0 m 0.1461249,0 0.3900765,0 m 0.158709,0 0.7281307,0 m 0.1524165,0 0.746733,0 m 2.14208,0 0.875475,0 m 0.152417,0 1.546865,0 m -8.9946315,0.8492317 1.0593859,0 m 0.1470908,0 2.3059958,0 m 0.141331,0 1.118359,0 m 1.988523,0 0.905077,0 m 0.150034,0 0.891221,0 m 0.143341,0 1.401665,0.00909 m -10.2520235,0.8492318 1.6059922,0 m 0.1528742,0 2.1041261,0 m 0.145359,0 1.16766,0 m 1.584674,0 0.535798,0 m 0.132463,0 1.348898,0 m 0.152416,0 0.533877,0 m 0.152417,0 0.29531,0 m -10.2526744,0.8537789 0.3858805,0 m 0.2232662,0 2.6907172,0 m -3.2998639,4.6104067 1.3134877,0 m 0.1924651,0 0.790461,0 m 0.1461249,0 0.3900765,0 m 0.158709,0 0.7281307,0 m 0.1524165,0 0.746733,0 m 2.482891,0 0.875474,0 m -8.317778,1.864346 1.4001945,0 m 0.1470908,0 2.305996,0 m 0.1413313,0 1.1183574,0 m 1.988523,0.02794 2.884489,0 m -9.3043635,-2.746063 1.6059922,0 m 0.1528742,0 2.1041261,0 m 0.145359,0 0.82685,0 m 2.266294,0 1.558228,0 m -9.341342,-1.878315 1.0669121,0 m 0.1524176,0 0.9907046,0 m 0.1594742,0 0.884014,0 m 0.1453586,0 0.3810401,0 m 0.1524164,0 0.8535294,0 m 0.167661,0 0.877277,0 m 1.270688,0 1.952031,0 m -8.7127154,1.024536 1.4560108,0 m 0.1413374,0 1.9079951,0 m 0.1453586,0 0.7460905,0 m 2.704703,0 1.335539,0 m -8.4370344,4.439652 1.3382865,0 m 0.1802421,0 0.7402679,0 m 0.1733864,0 0.3692249,0 m 0.1175329,0 0.7288707,0 m 3.453684,0 3.228343,0 m 0.181571,0 1.030068,0 m 0.138504,0 0.260086,0 m -10.0271684,1.024536 0.5477275,0 m -2.1198166,0 1.4117507,0 m 0.8481481,0 1.2743817,0 m 0.134806,0 1.870714,0 m 1.220885,0 0.875162,0 m 0.127749,0 0.261509,0 m 0.142993,0 1.611496,0 m 0.164751,0 0.8437,0 m -9.5567664,0.853778 0.7733631,0 m -2.3454521,0 1.4117507,0 m 1.1013006,0 1.0872687,0"
     sodipodi:nodetypes="cccccccccccccccccccccccccccccccccccccccccccccccccccccccccccccccccccccccccccccccccccccccccccccccccccccccccccccccccccccccccccccccccccccccccccccccccc" />
  <rect
     style="opacity:0.10000000000000001;fill:url(#linearGradient6080);fill-opacity:1;stroke:none;stroke-width:0.15;stroke-miterlimit:4;stroke-dasharray:none"
     id="rect6711"
     width="19.958689"
     height="14"
     x="2.0028737"
     y="5.0000267" />
  <path
     style="fill:url(#linearGradient6028);fill-opacity:1;stroke:none"
     d="m 10.859578,9.8532298 c 0.339718,0 1.070172,-0.2222409 1.528734,0 0.238011,0.1153508 0.41884,0.3685382 0.491623,0.6228172 0.141089,0.492918 0.0057,1.047031 -0.169859,1.528732 -0.170978,0.468999 -0.446928,0.927173 -0.831342,1.245635 -0.471792,0.390847 -1.087573,0.61731 -1.691883,0.718102 C 9.5254221,14.078833 8.8085824,14.060167 8.1802042,13.826077 7.4313548,13.547107 6.776968,12.999797 6.260641,12.389873 5.7023482,11.730375 5.3167938,10.938071 5.0716265,10.086418 4.7967614,9.1315995 4.7709223,8.1941439 4.9465886,7.2822703 5.0894399,6.5407414 5.4386813,5.7954623 5.8484185,5.1611218 6.3063836,4.4521186 6.9564044,3.8653282 7.6437861,3.3755076 8.1839486,2.9905938 9.4306635,2.5000269 9.4306635,2.5000269 c 0,0 -5.775571,0 -5.9273533,0 -0.6513305,0 -1.0033112,0.6280109 -1.0033112,0.9437253 0,0.1596424 0,12.5889358 0,12.5889358 0,0 1.2288825,0.705447 1.8866977,0.961335 1.0587425,0.411848 2.1493453,0.854537 3.283946,0.911422 1.1346579,0.05689 2.3231248,-0.111464 3.3588093,-0.578414 1.161458,-0.523655 2.255591,-1.345266 2.980138,-2.39323 0.56371,-0.815331 0.996662,-1.838269 0.923138,-2.826766 C 14.842232,10.890334 14.343525,9.4566095 13.294244,8.8340687 12.839473,8.5642521 12.186915,8.664615 11.70889,8.8906831 11.32208,9.0736175 11.01058,9.4191344 10.859593,9.8532194 z"
     id="path6446-4"
     inkscape:connector-curvature="0"
     sodipodi:nodetypes="caaaaaassssacsscaaaaaaacc" />
  <rect
     width="17"
     height="17"
     x="3.5012493"
     y="3.4987738"
     id="rect6741-9-5"
     style="opacity:0.3;fill:none;stroke:url(#linearGradient3101);stroke-width:0.99999987999999995;stroke-linecap:round;stroke-linejoin:round;stroke-miterlimit:4;stroke-opacity:1;stroke-dasharray:none;stroke-dashoffset:0" />
  <path
     style="fill:#000000;fill-opacity:1;stroke:none;opacity:0.15"
     d="m 10.943579,10.668965 c -0.339718,0 -1.1003428,0.185723 -1.5287348,-0.09193 C 9.1301944,10.39255 9.0131393,10.034886 8.9442503,9.674765 8.8052016,8.735211 9.2256402,7.7942911 9.9244228,7.2717801 10.614872,6.770076 11.505614,6.4853281 12.359072,6.4791041 c 0.829757,-0.00609 1.669789,0.3037034 2.37803,0.736056 0.631234,0.385344 1.131161,0.9773119 1.552152,1.5853529 0.497882,0.719096 0.904308,1.52768 1.108976,2.37803 0.245221,1.018842 0.306042,2.111723 0.113239,3.141771 -0.175801,0.939218 -0.613112,1.831331 -1.132394,2.633443 -0.644206,0.995072 -1.532113,1.817735 -2.405715,2.618976 -0.518232,0.475306 -1.063108,0.934148 -1.670907,1.287786 -0.44227,0.257328 -1.415494,0.593937 -1.415494,0.593937 0,0 9.428717,0 9.580499,0 0.651331,0 1.063997,-0.799125 1.063997,-1.114839 0,-0.159644 0,-12.060211 0,-12.060211 0,0 -1.919618,-1.3795977 -3.000847,-1.9676978 C 17.268909,5.6254478 15.711942,5.036611 14.603177,4.8609086 11.276169,4.3336871 7.6529874,5.551773 7.5317739,8.68728 c -0.040633,1.05119 0.2986454,1.938497 0.9771371,2.541213 0.407648,0.36212 1.0711989,0.471268 1.585354,0.311087 0.387069,-0.120588 0.698311,-0.436525 0.849296,-0.870609 z"
     id="path6446-5"
     inkscape:connector-curvature="0"
     sodipodi:nodetypes="caccaaaaaaaacsscssssacc" />
  <path
     style="fill:url(#linearGradient6472);fill-opacity:1;stroke:none"
     d="m 10.943579,10.469422 c -0.339718,0 -1.1003428,0.185723 -1.5287348,-0.09193 C 9.1301944,10.193007 9.0131393,9.8353422 8.9442503,9.4752214 8.8052016,8.535667 9.2256402,7.5947476 9.9244228,7.0722366 10.614872,6.5705325 11.505614,6.2857846 12.359072,6.2795606 c 0.829757,-0.00609 1.669789,0.3037034 2.37803,0.736056 0.631234,0.385344 1.131161,0.9773122 1.552152,1.5853529 0.497882,0.7190955 0.904308,1.5276805 1.108976,2.3780305 0.245221,1.018842 0.306042,2.111723 0.113239,3.141771 -0.175801,0.939218 -0.613112,1.831331 -1.132394,2.633443 -0.644206,0.995072 -1.532113,1.817735 -2.405715,2.618976 -0.518232,0.475306 -1.092637,0.887682 -1.670907,1.287786 -0.456228,0.315663 -1.415494,0.875481 -1.415494,0.875481 0,0 9.428717,0 9.580499,0 0.651331,0 1.063997,-0.658353 1.063997,-0.974067 0,-0.159644 0,-12.4825275 0,-12.4825275 0,0 -1.919618,-1.3795977 -3.000847,-1.9676978 C 17.268909,5.4259043 15.711942,4.8370675 14.603177,4.6613651 11.276169,4.1341436 7.6529874,5.3522295 7.5317739,8.4877361 7.4911409,9.5389268 7.8304193,10.426234 8.508911,11.02895 c 0.407648,0.36212 1.0711989,0.471268 1.585354,0.311087 0.387069,-0.120588 0.698311,-0.436525 0.849296,-0.870609 z"
     id="path6446"
     inkscape:connector-curvature="0"
     sodipodi:nodetypes="caccaaaaaaaacsscssssacc" />
  <rect
     width="19.000002"
     height="19.000002"
     rx="1"
     ry="1"
     x="2.4999981"
     y="2.500026"
     id="rect5505-21-8-1"
     style="opacity:0.69999999999999996;color:#000000;fill:none;stroke:#1d589b;stroke-width:1;stroke-linecap:round;stroke-linejoin:round;stroke-miterlimit:4;stroke-opacity:1;stroke-dasharray:none;stroke-dashoffset:0;marker:none;visibility:visible;display:inline;overflow:visible;enable-background:accumulate" />
</svg>
