<?xml version="1.0" encoding="UTF-8" standalone="no"?>
<svg
   xmlns:dc="http://purl.org/dc/elements/1.1/"
   xmlns:cc="http://creativecommons.org/ns#"
   xmlns:rdf="http://www.w3.org/1999/02/22-rdf-syntax-ns#"
   xmlns:svg="http://www.w3.org/2000/svg"
   xmlns="http://www.w3.org/2000/svg"
   xmlns:xlink="http://www.w3.org/1999/xlink"
   xmlns:sodipodi="http://sodipodi.sourceforge.net/DTD/sodipodi-0.dtd"
   xmlns:inkscape="http://www.inkscape.org/namespaces/inkscape"
   version="1.1"
   width="24"
   height="24"
   id="svg3426"
   inkscape:version="0.48.4 r9939"
   sodipodi:docname="vlc.svg">
  <sodipodi:namedview
     pagecolor="#ffffff"
     bordercolor="#666666"
     borderopacity="1"
     objecttolerance="10"
     gridtolerance="10"
     guidetolerance="10"
     inkscape:pageopacity="0"
     inkscape:pageshadow="2"
     inkscape:window-width="1366"
     inkscape:window-height="713"
     id="namedview10657"
     showgrid="false"
     inkscape:zoom="34.619781"
     inkscape:cx="16.526436"
     inkscape:cy="8.6162259"
     inkscape:window-x="0"
     inkscape:window-y="30"
     inkscape:window-maximized="1"
     inkscape:current-layer="svg3426"
     inkscape:snap-bbox="true"
     inkscape:bbox-nodes="true"
     inkscape:snap-bbox-edge-midpoints="true"
     showguides="true"
     inkscape:guide-bbox="true" />
  <defs
     id="defs3428">
    <radialGradient
       cx="4.9929786"
       cy="43.5"
       r="2.5"
       fx="4.9929786"
       fy="43.5"
       id="radialGradient3152"
       xlink:href="#linearGradient3688-166-749"
       gradientUnits="userSpaceOnUse"
       gradientTransform="matrix(2.003784,0,0,1.4,27.98813,-17.4)" />
    <linearGradient
       id="linearGradient3688-166-749">
      <stop
         id="stop2883"
         style="stop-color:#181818;stop-opacity:1"
         offset="0" />
      <stop
         id="stop2885"
         style="stop-color:#181818;stop-opacity:0"
         offset="1" />
    </linearGradient>
    <radialGradient
       cx="4.9929786"
       cy="43.5"
       r="2.5"
       fx="4.9929786"
       fy="43.5"
       id="radialGradient3154"
       xlink:href="#linearGradient3688-464-309"
       gradientUnits="userSpaceOnUse"
       gradientTransform="matrix(2.003784,0,0,1.4,-20.01187,-104.4)" />
    <linearGradient
       id="linearGradient3688-464-309">
      <stop
         id="stop2889"
         style="stop-color:#181818;stop-opacity:1"
         offset="0" />
      <stop
         id="stop2891"
         style="stop-color:#181818;stop-opacity:0"
         offset="1" />
    </linearGradient>
    <linearGradient
       x1="25.058096"
       y1="47.027729"
       x2="25.058096"
       y2="39.999443"
       id="linearGradient3156"
       xlink:href="#linearGradient3702-501-757"
       gradientUnits="userSpaceOnUse" />
    <linearGradient
       id="linearGradient3702-501-757">
      <stop
         id="stop2895"
         style="stop-color:#181818;stop-opacity:0"
         offset="0" />
      <stop
         id="stop2897"
         style="stop-color:#181818;stop-opacity:1"
         offset="0.5" />
      <stop
         id="stop2899"
         style="stop-color:#181818;stop-opacity:0"
         offset="1" />
    </linearGradient>
    <linearGradient
       id="linearGradient3680-6-6-6-3-7-4">
      <stop
         id="stop3682-4-6-1-3-7-5"
         style="stop-color:#dcdcdc;stop-opacity:1"
         offset="0" />
      <stop
         id="stop3684-8-5-8-0-2-3"
         style="stop-color:#ffffff;stop-opacity:1"
         offset="1" />
    </linearGradient>
    <linearGradient
       xlink:href="#linearGradient3680-6-6-6-3-7-4"
       id="linearGradient3875"
       gradientUnits="userSpaceOnUse"
       gradientTransform="matrix(0.46525496,0,0,0.46525496,0.2208768,-0.3282085)"
       x1="20"
       y1="26.000008"
       x2="20"
       y2="13.000008" />
    <linearGradient
       xlink:href="#linearGradient3680-6-6-6-3-7-4"
       id="linearGradient3880"
       gradientUnits="userSpaceOnUse"
       gradientTransform="matrix(0.66257291,0,0,0.66257291,-2.4539575,-4.5672473)"
       x1="20"
       y1="26.000008"
       x2="20"
       y2="13.000008" />
    <linearGradient
       id="linearGradient3924-0">
      <stop
         offset="0"
         style="stop-color:#ffffff;stop-opacity:1"
         id="stop3926-6" />
      <stop
         offset="0.06316455"
         style="stop-color:#ffffff;stop-opacity:0.23529412"
         id="stop3928-3" />
      <stop
         offset="0.95056331"
         style="stop-color:#ffffff;stop-opacity:0.15686275"
         id="stop3930-2" />
      <stop
         offset="1"
         style="stop-color:#ffffff;stop-opacity:0.39215687"
         id="stop3932-62" />
    </linearGradient>
    <linearGradient
       id="linearGradient2867-449-88-871-390-598-476-591-434-148-57-177-8-3-3-6-4-8-8-8-5-6-7">
      <stop
         offset="0"
         style="stop-color:#ee4e16;stop-opacity:1;"
         id="stop3750-1-0-7-6-6-1-3-9-3-0-9" />
      <stop
         offset="0.26238"
         style="stop-color:#d83e0f;stop-opacity:1;"
         id="stop3752-3-7-4-0-32-8-923-0-7-7-5" />
      <stop
         offset="0.704952"
         style="stop-color:#b03a00;stop-opacity:1;"
         id="stop3754-1-8-5-2-7-6-7-1-9-1-6" />
      <stop
         offset="1"
         style="stop-color:#000000;stop-opacity:1"
         id="stop3756-1-6-2-6-6-1-96-6-0-6-5" />
    </linearGradient>
    <radialGradient
       r="12.671875"
       fy="9.9571075"
       fx="7.1183534"
       cy="9.9571075"
       cx="7.1183534"
       gradientTransform="matrix(0,4.4529398,-5.4667877,0,66.838269,-38.124667)"
       gradientUnits="userSpaceOnUse"
       id="radialGradient3173"
       xlink:href="#linearGradient2867-449-88-871-390-598-476-591-434-148-57-177-8-3-3-6-4-8-8-8-5-6-7" />
    <linearGradient
       xlink:href="#linearGradient3924-0"
       id="linearGradient3203"
       gradientUnits="userSpaceOnUse"
       gradientTransform="matrix(0.62162164,0,0,0.62162164,27.298203,-6.3512651)"
       x1="23.99999"
       y1="4.999989"
       x2="23.99999"
       y2="43" />
    <linearGradient
       id="linearGradient3924-64">
      <stop
         id="stop3926-3-6"
         style="stop-color:#ffffff;stop-opacity:1"
         offset="0" />
      <stop
         id="stop3928-0"
         style="stop-color:#ffffff;stop-opacity:0.23529412"
         offset="0.06316455" />
      <stop
         id="stop3930-3-59"
         style="stop-color:#ffffff;stop-opacity:0.15686275"
         offset="0.95056331" />
      <stop
         id="stop3932-0"
         style="stop-color:#ffffff;stop-opacity:0.39215687"
         offset="1" />
    </linearGradient>
    <linearGradient
       y2="43"
       x2="23.99999"
       y1="4.999989"
       x1="23.99999"
       gradientTransform="matrix(0.45945947,0,0,0.45945947,0.9742189,0.9717506)"
       gradientUnits="userSpaceOnUse"
       id="linearGradient3101"
       xlink:href="#linearGradient3924-64" />
    <radialGradient
       r="12.671875"
       fy="9.9571075"
       fx="7.1183534"
       cy="9.9571075"
       cx="7.1183534"
       gradientTransform="matrix(0,4.4529398,-5.4667877,0,66.838269,-38.124667)"
       gradientUnits="userSpaceOnUse"
       id="radialGradient3173-8"
       xlink:href="#linearGradient2867-449-88-871-390-598-476-591-434-148-57-177-8-3-3-6-4-8-8-8-5-6-7-9" />
    <linearGradient
       id="linearGradient2867-449-88-871-390-598-476-591-434-148-57-177-8-3-3-6-4-8-8-8-5-6-7-9">
      <stop
         offset="0"
         style="stop-color:#ee4e16;stop-opacity:1;"
         id="stop3750-1-0-7-6-6-1-3-9-3-0-9-6" />
      <stop
         offset="0.26238"
         style="stop-color:#d83e0f;stop-opacity:1;"
         id="stop3752-3-7-4-0-32-8-923-0-7-7-5-7" />
      <stop
         offset="0.704952"
         style="stop-color:#b03a00;stop-opacity:1;"
         id="stop3754-1-8-5-2-7-6-7-1-9-1-6-3" />
      <stop
         offset="1"
         style="stop-color:#000000;stop-opacity:1"
         id="stop3756-1-6-2-6-6-1-96-6-0-6-5-4" />
    </linearGradient>
  </defs>
  <metadata
     id="metadata3431">
    <rdf:RDF>
      <cc:Work
         rdf:about="">
        <dc:format>image/svg+xml</dc:format>
        <dc:type
           rdf:resource="http://purl.org/dc/dcmitype/StillImage" />
        <dc:title />
      </cc:Work>
    </rdf:RDF>
  </metadata>
  <g
     style="display:inline"
     id="g2036"
     transform="matrix(0.55,0,0,0.3333336,-1.2000011,7.33331)">
    <g
       style="opacity:0.4"
       id="g3712"
       transform="matrix(1.052632,0,0,1.285713,-1.263158,-13.42854)">
      <rect
         style="fill:url(#radialGradient3152);fill-opacity:1;stroke:none"
         id="rect2801"
         y="40"
         x="38"
         height="7"
         width="5" />
      <rect
         style="fill:url(#radialGradient3154);fill-opacity:1;stroke:none"
         id="rect3696"
         transform="scale(-1,-1)"
         y="-47"
         x="-10"
         height="7"
         width="5" />
      <rect
         style="fill:url(#linearGradient3156);fill-opacity:1;stroke:none"
         id="rect3700"
         y="40"
         x="10"
         height="7.0000005"
         width="28" />
    </g>
  </g>
  <rect
     style="opacity:0.95;color:#000000;fill:url(#radialGradient3173);fill-opacity:1;fill-rule:nonzero;stroke:none;stroke-width:0.99999994000000003;marker:none;visibility:visible;display:inline;overflow:visible;enable-background:accumulate"
     id="rect5505-21-6"
     y="2.5000269"
     x="2.499999"
     ry="1"
     rx="1"
     height="19"
     width="19" />
  <rect
     width="17"
     height="17"
     x="3.5012493"
     y="3.4987738"
     id="rect6741-9-5"
     style="opacity:0.3;fill:none;stroke:url(#linearGradient3101);stroke-width:0.99999987999999995;stroke-linecap:round;stroke-linejoin:round;stroke-miterlimit:4;stroke-opacity:1;stroke-dasharray:none;stroke-dashoffset:0" />
  <path
     style="opacity:0.95;color:#000000;fill:#ffffff;fill-opacity:1;fill-rule:nonzero;stroke:none;stroke-width:0.99999994;marker:none;visibility:visible;display:inline;overflow:visible;enable-background:accumulate"
     d="m 3.499999,17.900013 17,0 1,-2.7e-5 0,2.600041 c 0,0.554 -0.446,1 -1,1 l -17,0 c -0.554,0 -1,-0.446 -1,-1 l 0,-2.600041 z"
     id="rect5505-21-6-3"
     inkscape:connector-curvature="0"
     sodipodi:nodetypes="cccsssscc" />
  <rect
     width="19.000002"
     height="19.000002"
     rx="1"
     ry="1"
     x="2.4999981"
     y="2.500026"
     id="rect5505-21-8-1"
     style="opacity:0.69999999999999996;color:#000000;fill:none;stroke:#aa350c;stroke-width:1;stroke-linecap:round;stroke-linejoin:round;stroke-miterlimit:4;stroke-opacity:1;stroke-dasharray:none;stroke-dashoffset:0;marker:none;visibility:visible;display:inline;overflow:visible;enable-background:accumulate" />
  <g
     transform="matrix(0.18387096,0,0,0.18387096,0.23226002,0.14280552)"
     id="g10631">
    <g
       id="g9679">
      <g
         id="g9674">
        <path
           inkscape:connector-curvature="0"
           id="path4044-6"
           d="m 52.330589,46.591743 a 1.999579,2.0185621 0 0 0 -1.828596,2.016169 l 0,25.999198 a 1.999579,2.0185621 0 0 0 2.953885,1.734843 l 2.555345,-1.430074 0,-26.608737 -2.555345,-1.453517 a 1.999579,2.0185621 0 0 0 -1.125289,-0.257882 z m 8.674107,4.524658 0,20.98222 6.001544,-3.37591 0,-14.2304 -6.001544,-3.37591 z m 10.995017,6.212612 0,8.556995 4.501158,-2.531932 a 1.999579,2.0185621 0 0 0 0,-3.49313 l -4.501158,-2.531933 z"
           style="opacity:0.15;fill:#000000;fill-opacity:1;fill-rule:evenodd;stroke:none" />
        <path
           inkscape:connector-curvature="0"
           id="path4044-6-3"
           d="m 52.330589,46.591743 a 1.999579,2.0185621 0 0 0 -1.828596,2.016169 l 0,25.999198 a 1.999579,2.0185621 0 0 0 2.953885,1.734843 l 2.555345,-1.430074 0,-26.608737 -2.555345,-1.453517 a 1.999579,2.0185621 0 0 0 -1.125289,-0.257882 z m 8.674107,4.524658 0,20.98222 6.001544,-3.37591 0,-14.2304 -6.001544,-3.37591 z m 10.995017,6.212612 0,8.556995 4.501158,-2.531932 a 1.999579,2.0185621 0 0 0 0,-3.49313 l -4.501158,-2.531933 z"
           style="opacity:0.07000002;fill:#000000;fill-opacity:1;fill-rule:evenodd;stroke:#000000;stroke-linecap:round;stroke-linejoin:round;stroke-opacity:1" />
        <path
           inkscape:connector-curvature="0"
           id="path4044"
           d="m 52.330445,46.591743 a 1.9996036,2.0185621 0 0 0 -1.828618,2.016169 l 0,25.999198 a 1.9996036,2.0185621 0 0 0 2.953921,1.734843 l 2.555377,-1.430074 0,-26.608737 -2.555377,-1.453517 a 1.9996036,2.0185621 0 0 0 -1.125303,-0.257882 z m 8.674214,4.524658 0,20.98222 6.001618,-3.37591 0,-14.2304 -6.001618,-3.37591 z m 10.995152,6.212612 0,8.556995 4.501214,-2.531932 a 1.9996036,2.0185621 0 0 0 0,-3.49313 l -4.501214,-2.531933 z"
           style="fill:#fafafa;fill-opacity:1;fill-rule:evenodd;stroke:none" />
      </g>
    </g>
  </g>
  <g
     transform="matrix(0.18333331,0,0,0.18333331,0.26666843,-0.29086155)"
     id="g7513">
    <path
       inkscape:connector-curvature="0"
       id="rect4147-1-6-5"
       d="m 33.90625,105.094 c -1.400697,0 -2.628052,0.8114 -3.1875,2 l -10.875,0 C 19.36817,107.094 19,107.46217 19,107.93775 l 0,1.28125 c 0,0.47558 0.36817,0.875 0.84375,0.875 l 10.90625,0 c 0.567178,1.16801 1.770593,2 3.15625,2 1.385657,0 2.557822,-0.83199 3.125,-2 l 71.125,0 c 0.47558,0 0.84375,-0.39942 0.84375,-0.875 l 0,-1.28125 c 0,-0.47558 -0.36817,-0.84375 -0.84375,-0.84375 l -71.09375,0 c -0.559448,-1.1886 -1.755553,-2 -3.15625,-2 z"
       style="opacity:0.15;fill:#000000;fill-opacity:1;stroke:none" />
    <rect
       ry="0.97260273"
       rx="0.97260273"
       y="106.58635"
       x="18.999987"
       height="3"
       width="90"
       id="rect4147-4"
       style="fill:#333333;fill-opacity:1;stroke:none" />
    <rect
       ry="0.5"
       rx="0.5"
       y="107.58635"
       x="19.999987"
       height="1"
       width="88"
       id="rect4147-8-6"
       style="opacity:0.15;fill:#ffffff;fill-opacity:1;stroke:none" />
    <g
       id="g7508">
      <path
         sodipodi:type="arc"
         style="fill:#282828;fill-opacity:1;stroke:none"
         id="path4205-9-74"
         sodipodi:cx="-0.45180723"
         sodipodi:cy="107.36747"
         sodipodi:rx="8.2831326"
         sodipodi:ry="8.2831326"
         d="m 7.8313253,107.36747 c 0,4.57465 -3.7084847,8.28313 -8.28313253,8.28313 -4.57464777,0 -8.28313257,-3.70848 -8.28313257,-8.28313 0,-4.57465 3.7084848,-8.283133 8.28313257,-8.283133 4.57464783,0 8.28313253,3.708483 8.28313253,8.283133 z"
         transform="matrix(0.4225685,0,0,0.4225685,34.082742,62.71624)" />
      <path
         sodipodi:type="arc"
         style="opacity:0.8;fill:#4d4d4d;fill-opacity:1;stroke:none"
         id="path4205-1"
         sodipodi:cx="-0.45180723"
         sodipodi:cy="107.36747"
         sodipodi:rx="8.2831326"
         sodipodi:ry="8.2831326"
         d="m 7.8313253,107.36747 c 0,4.57465 -3.7084847,8.28313 -8.28313253,8.28313 -4.57464777,0 -8.28313257,-3.70848 -8.28313257,-8.28313 0,-4.57465 3.7084848,-8.283133 8.28313257,-8.283133 4.57464783,0 8.28313253,3.708483 8.28313253,8.283133 z"
         transform="matrix(0.31688613,0,0,0.31688613,34.034994,74.063089)" />
      <path
         sodipodi:type="arc"
         style="opacity:0.8;fill:#333333;fill-opacity:1;stroke:none"
         id="path4205-4"
         sodipodi:cx="-0.45180723"
         sodipodi:cy="107.36747"
         sodipodi:rx="8.2831326"
         sodipodi:ry="8.2831326"
         d="m 7.8313253,107.36747 c 0,4.57465 -3.7084847,8.28313 -8.28313253,8.28313 -4.57464777,0 -8.28313257,-3.70848 -8.28313257,-8.28313 0,-4.57465 3.7084848,-8.283133 8.28313257,-8.283133 4.57464783,0 8.28313253,3.708483 8.28313253,8.283133 z"
         transform="matrix(0.18109091,0,0,0.18109091,33.973641,88.643078)" />
    </g>
  </g>
</svg>
