<?xml version="1.0" encoding="UTF-8" standalone="no"?>
<svg
   xmlns:dc="http://purl.org/dc/elements/1.1/"
   xmlns:cc="http://creativecommons.org/ns#"
   xmlns:rdf="http://www.w3.org/1999/02/22-rdf-syntax-ns#"
   xmlns:svg="http://www.w3.org/2000/svg"
   xmlns="http://www.w3.org/2000/svg"
   xmlns:xlink="http://www.w3.org/1999/xlink"
   xmlns:sodipodi="http://sodipodi.sourceforge.net/DTD/sodipodi-0.dtd"
   xmlns:inkscape="http://www.inkscape.org/namespaces/inkscape"
   version="1.1"
   width="24"
   height="24"
   id="svg3426"
   inkscape:version="0.48.4 r9939"
   sodipodi:docname="weka.svg">
  <sodipodi:namedview
     pagecolor="#ffffff"
     bordercolor="#666666"
     borderopacity="1"
     objecttolerance="10"
     gridtolerance="10"
     guidetolerance="10"
     inkscape:pageopacity="0"
     inkscape:pageshadow="2"
     inkscape:window-width="1366"
     inkscape:window-height="713"
     id="namedview16837"
     showgrid="false"
     inkscape:zoom="9.8333333"
     inkscape:cx="-0.25423729"
     inkscape:cy="12"
     inkscape:window-x="0"
     inkscape:window-y="30"
     inkscape:window-maximized="1"
     inkscape:current-layer="svg3426" />
  <defs
     id="defs3428">
    <linearGradient
       id="linearGradient3868">
      <stop
         offset="0"
         style="stop-color:#f4f4f4;stop-opacity:1"
         id="stop3870" />
      <stop
         offset="1"
         style="stop-color:#d0d0d0;stop-opacity:1"
         id="stop3872" />
    </linearGradient>
    <linearGradient
       x1="19.874987"
       y1="44.520065"
       x2="19.874987"
       y2="5.2502403"
       id="linearGradient3172-9-6"
       xlink:href="#linearGradient3707-319-631-407-1-846-4-3-8"
       gradientUnits="userSpaceOnUse"
       gradientTransform="matrix(0.48717951,0,0,0.48717951,0.30769188,7.8205088)" />
    <linearGradient
       id="linearGradient3707-319-631-407-1-846-4-3-8">
      <stop
         id="stop3788-6-7-8"
         style="stop-color:#365a7c;stop-opacity:1"
         offset="0" />
      <stop
         id="stop3790-9-4-43"
         style="stop-color:#5ea1ca;stop-opacity:1"
         offset="1" />
    </linearGradient>
    <linearGradient
       x1="19.874987"
       y1="44.520065"
       x2="19.874987"
       y2="5.2502403"
       id="linearGradient3333"
       xlink:href="#linearGradient3707-319-631-407-1-846-4-0-0-4"
       gradientUnits="userSpaceOnUse"
       gradientTransform="matrix(0.48717951,0,0,0.48717951,0.30769188,7.8205088)" />
    <linearGradient
       id="linearGradient3707-319-631-407-1-846-4-0-0-4">
      <stop
         id="stop3788-6-4-7-9"
         style="stop-color:#365a7c;stop-opacity:1"
         offset="0" />
      <stop
         id="stop3790-9-8-8-2"
         style="stop-color:#5ea1ca;stop-opacity:1"
         offset="1" />
    </linearGradient>
    <linearGradient
       x1="16.626165"
       y1="15.298182"
       x2="20.054544"
       y2="24.627615"
       id="linearGradient3178"
       xlink:href="#linearGradient8265-821-176-38-919-66-249-7-7-8"
       gradientUnits="userSpaceOnUse"
       gradientTransform="matrix(0.39077928,0,0,0.59639877,2.6029975,7.5932433)" />
    <linearGradient
       id="linearGradient8265-821-176-38-919-66-249-7-7-8">
      <stop
         id="stop2687-1-9-6"
         style="stop-color:#ffffff;stop-opacity:1"
         offset="0" />
      <stop
         id="stop2689-5-4-8"
         style="stop-color:#ffffff;stop-opacity:0"
         offset="1" />
    </linearGradient>
    <linearGradient
       x1="23.99999"
       y1="4.999989"
       x2="23.99999"
       y2="43"
       id="linearGradient3181"
       xlink:href="#linearGradient3924"
       gradientUnits="userSpaceOnUse"
       gradientTransform="matrix(0.45945947,0,0,0.45945947,0.9742203,8.9717328)" />
    <linearGradient
       id="linearGradient3924">
      <stop
         id="stop3926"
         style="stop-color:#ffffff;stop-opacity:1"
         offset="0" />
      <stop
         id="stop3928"
         style="stop-color:#ffffff;stop-opacity:0.23529412"
         offset="0.06316455" />
      <stop
         id="stop3930"
         style="stop-color:#ffffff;stop-opacity:0.15686275"
         offset="0.95056331" />
      <stop
         id="stop3932"
         style="stop-color:#ffffff;stop-opacity:0.39215687"
         offset="1" />
    </linearGradient>
    <radialGradient
       cx="7.4956832"
       cy="8.4497671"
       r="19.99999"
       fx="7.4956832"
       fy="8.4497671"
       id="radialGradient3184"
       xlink:href="#linearGradient2867-449-88-871-390-598-476-591-434-148-57-177"
       gradientUnits="userSpaceOnUse"
       gradientTransform="matrix(0,1.1385337,-1.2044328,-2.0976135e-8,22.177231,2.2497107)" />
    <linearGradient
       id="linearGradient2867-449-88-871-390-598-476-591-434-148-57-177">
      <stop
         id="stop3750"
         style="stop-color:#90dbec;stop-opacity:1"
         offset="0" />
      <stop
         id="stop3752"
         style="stop-color:#55c1ec;stop-opacity:1"
         offset="0.26238" />
      <stop
         id="stop3754"
         style="stop-color:#3689e6;stop-opacity:1"
         offset="0.704952" />
      <stop
         id="stop3756"
         style="stop-color:#2b63a0;stop-opacity:1"
         offset="1" />
    </linearGradient>
    <linearGradient
       x1="24"
       y1="44"
       x2="24"
       y2="3.8990016"
       id="linearGradient3186"
       xlink:href="#linearGradient3707-319-631-407-324"
       gradientUnits="userSpaceOnUse"
       gradientTransform="matrix(0.48717951,0,0,0.48717951,0.30769188,8.3076897)" />
    <linearGradient
       id="linearGradient3707-319-631-407-324">
      <stop
         id="stop3760"
         style="stop-color:#185f9a;stop-opacity:1"
         offset="0" />
      <stop
         id="stop3762"
         style="stop-color:#599ec9;stop-opacity:1"
         offset="1" />
    </linearGradient>
    <radialGradient
       cx="4.9929786"
       cy="43.5"
       r="2.5"
       fx="4.9929786"
       fy="43.5"
       id="radialGradient3152"
       xlink:href="#linearGradient3688-166-749"
       gradientUnits="userSpaceOnUse"
       gradientTransform="matrix(2.003784,0,0,1.4,27.98813,-17.4)" />
    <linearGradient
       id="linearGradient3688-166-749">
      <stop
         id="stop2883"
         style="stop-color:#181818;stop-opacity:1"
         offset="0" />
      <stop
         id="stop2885"
         style="stop-color:#181818;stop-opacity:0"
         offset="1" />
    </linearGradient>
    <radialGradient
       cx="4.9929786"
       cy="43.5"
       r="2.5"
       fx="4.9929786"
       fy="43.5"
       id="radialGradient3154"
       xlink:href="#linearGradient3688-464-309"
       gradientUnits="userSpaceOnUse"
       gradientTransform="matrix(2.003784,0,0,1.4,-20.01187,-104.4)" />
    <linearGradient
       id="linearGradient3688-464-309">
      <stop
         id="stop2889"
         style="stop-color:#181818;stop-opacity:1"
         offset="0" />
      <stop
         id="stop2891"
         style="stop-color:#181818;stop-opacity:0"
         offset="1" />
    </linearGradient>
    <linearGradient
       x1="25.058096"
       y1="47.027729"
       x2="25.058096"
       y2="39.999443"
       id="linearGradient3156"
       xlink:href="#linearGradient3702-501-757"
       gradientUnits="userSpaceOnUse" />
    <linearGradient
       id="linearGradient3702-501-757">
      <stop
         id="stop2895"
         style="stop-color:#181818;stop-opacity:0"
         offset="0" />
      <stop
         id="stop2897"
         style="stop-color:#181818;stop-opacity:1"
         offset="0.5" />
      <stop
         id="stop2899"
         style="stop-color:#181818;stop-opacity:0"
         offset="1" />
    </linearGradient>
    <linearGradient
       id="linearGradient2867-449-88-871-390-598-476-591-434-148-57-177-641-289-620-227-114-444-680-744-4-8-69-5-4-8-426-2-9-1-4-965">
      <stop
         id="stop4036"
         style="stop-color:#f4f4f4;stop-opacity:1"
         offset="0" />
      <stop
         id="stop4040"
         style="stop-color:#d0d0d0;stop-opacity:1"
         offset="1" />
    </linearGradient>
    <radialGradient
       r="19.99999"
       fy="8.4497671"
       fx="20.930695"
       cy="8.4497671"
       cx="20.930695"
       gradientTransform="matrix(1.165708e-8,1.4381477,-1.483354,-2.6496169e-8,42.73745,-34.976515)"
       gradientUnits="userSpaceOnUse"
       id="radialGradient3331"
       xlink:href="#linearGradient2867-449-88-871-390-598-476-591-434-148-57-177-641-289-620-227-114-444-680-744-4-8-69-5-4-8-426-2-9-1-4-965" />
    <radialGradient
       xlink:href="#linearGradient3688-166-749"
       id="radialGradient3064"
       gradientUnits="userSpaceOnUse"
       gradientTransform="matrix(2.003784,0,0,1.4,27.98813,-17.4)"
       cx="4.9929786"
       cy="43.5"
       fx="4.9929786"
       fy="43.5"
       r="2.5" />
    <radialGradient
       xlink:href="#linearGradient3688-464-309"
       id="radialGradient3066"
       gradientUnits="userSpaceOnUse"
       gradientTransform="matrix(2.003784,0,0,1.4,-20.01187,-104.4)"
       cx="4.9929786"
       cy="43.5"
       fx="4.9929786"
       fy="43.5"
       r="2.5" />
    <linearGradient
       xlink:href="#linearGradient3702-501-757"
       id="linearGradient3068"
       gradientUnits="userSpaceOnUse"
       x1="25.058096"
       y1="47.027729"
       x2="25.058096"
       y2="39.999443" />
    <radialGradient
       xlink:href="#linearGradient2867-449-88-871-390-598-476-591-434-148-57-177"
       id="radialGradient3070"
       gradientUnits="userSpaceOnUse"
       gradientTransform="matrix(0,1.1385337,-1.2044328,-2.0976135e-8,22.177231,2.2497107)"
       cx="7.4956832"
       cy="8.4497671"
       fx="7.4956832"
       fy="8.4497671"
       r="19.99999" />
    <linearGradient
       xlink:href="#linearGradient3707-319-631-407-324"
       id="linearGradient3072"
       gradientUnits="userSpaceOnUse"
       gradientTransform="matrix(0.48717951,0,0,0.48717951,0.30769188,8.3076897)"
       x1="24"
       y1="44"
       x2="24"
       y2="3.8990016" />
    <linearGradient
       xlink:href="#linearGradient3924"
       id="linearGradient3074"
       gradientUnits="userSpaceOnUse"
       gradientTransform="matrix(0.45945947,0,0,0.45945947,0.9742203,8.9717328)"
       x1="23.99999"
       y1="4.999989"
       x2="23.99999"
       y2="43" />
    <linearGradient
       xlink:href="#linearGradient8265-821-176-38-919-66-249-7-7-8"
       id="linearGradient3076"
       gradientUnits="userSpaceOnUse"
       gradientTransform="matrix(0.39077928,0,0,0.59639877,2.6029975,7.5932433)"
       x1="16.626165"
       y1="15.298182"
       x2="20.054544"
       y2="24.627615" />
    <linearGradient
       xlink:href="#linearGradient3707-319-631-407-1-846-4-3-8"
       id="linearGradient3078"
       gradientUnits="userSpaceOnUse"
       gradientTransform="matrix(0.48717951,0,0,0.48717951,0.30769188,7.8205088)"
       x1="19.874987"
       y1="44.520065"
       x2="19.874987"
       y2="5.2502403" />
    <linearGradient
       xlink:href="#linearGradient3707-319-631-407-1-846-4-3-8"
       id="linearGradient3082"
       gradientUnits="userSpaceOnUse"
       gradientTransform="matrix(0.48717951,0,0,0.48717951,0.30769188,7.8205088)"
       x1="19.874987"
       y1="44.520065"
       x2="19.874987"
       y2="5.2502403" />
    <linearGradient
       xlink:href="#linearGradient8265-821-176-38-919-66-249-7-7-8"
       id="linearGradient3085"
       gradientUnits="userSpaceOnUse"
       gradientTransform="matrix(0.39077928,0,0,0.59639877,2.6029975,-0.4067567)"
       x1="16.626165"
       y1="15.298182"
       x2="20.054544"
       y2="24.627615" />
    <linearGradient
       xlink:href="#linearGradient3924"
       id="linearGradient3088"
       gradientUnits="userSpaceOnUse"
       gradientTransform="matrix(0.45945947,0,0,0.45945947,0.9742203,0.9717328)"
       x1="23.99999"
       y1="4.999989"
       x2="23.99999"
       y2="43" />
    <radialGradient
       xlink:href="#linearGradient4632-92-3-0-8-1-6"
       id="radialGradient3091"
       gradientUnits="userSpaceOnUse"
       gradientTransform="matrix(0,1.1385337,-1.2044328,-2.0976135e-8,22.177231,-5.7502893)"
       cx="7.4956832"
       cy="8.4497671"
       fx="7.4956832"
       fy="8.4497671"
       r="19.99999" />
    <linearGradient
       xlink:href="#linearGradient4011-9-9-70-61-7"
       id="linearGradient3866"
       gradientUnits="userSpaceOnUse"
       gradientTransform="matrix(-0.12612572,0,0,0.12612572,24.549488,9.2956327)"
       x1="71.204407"
       y1="6.2375584"
       x2="71.204407"
       y2="44.340794" />
    <linearGradient
       id="linearGradient4011-9-9-70-61-7">
      <stop
         id="stop4013-5-4-3-8-3"
         style="stop-color:#ffffff;stop-opacity:1;"
         offset="0" />
      <stop
         offset="0.507761"
         style="stop-color:#ffffff;stop-opacity:0.23529412;"
         id="stop4015-1-5-70-9-5" />
      <stop
         id="stop4017-7-0-13-0-1"
         style="stop-color:#ffffff;stop-opacity:0.15686275;"
         offset="0.83456558" />
      <stop
         id="stop4019-1-12-7-0-7"
         style="stop-color:#ffffff;stop-opacity:0.39215687;"
         offset="1" />
    </linearGradient>
    <linearGradient
       xlink:href="#linearGradient4215-8-4-07-7"
       id="linearGradient3869"
       gradientUnits="userSpaceOnUse"
       gradientTransform="matrix(-0.12200399,0,0,0.12200399,19.406172,8.3456975)"
       x1="38.976662"
       y1="59.967686"
       x2="38.976662"
       y2="8.0928917" />
    <linearGradient
       id="linearGradient4215-8-4-07-7">
      <stop
         style="stop-color:#e9e9e9;stop-opacity:1;"
         offset="0"
         id="stop4217-1-2-1-2" />
      <stop
         style="stop-color:#ffffff;stop-opacity:1;"
         offset="1"
         id="stop4219-3-4-0-96" />
    </linearGradient>
    <linearGradient
       xlink:href="#linearGradient27416-1-2"
       id="linearGradient3884"
       gradientUnits="userSpaceOnUse"
       gradientTransform="matrix(0.38888771,0,0,0.4374987,-0.4423505,-1.5061266)"
       x1="30.271185"
       y1="10.028973"
       x2="30.271185"
       y2="55.052982" />
    <linearGradient
       id="linearGradient27416-1-2">
      <stop
         offset="0"
         style="stop-color:#55c1ec;stop-opacity:1"
         id="stop27420-2-0" />
      <stop
         offset="1"
         style="stop-color:#3689e6;stop-opacity:1"
         id="stop27422-3-5" />
    </linearGradient>
    <radialGradient
       cx="20.930695"
       cy="8.4497671"
       r="19.99999"
       fx="20.930695"
       fy="8.4497671"
       id="radialGradient3035"
       xlink:href="#linearGradient3868"
       gradientUnits="userSpaceOnUse"
       gradientTransform="matrix(1.165708e-8,1.4381477,-1.483354,-2.6496169e-8,165.53406,-79.42143)" />
    <linearGradient
       id="linearGradient4632-92-3-0-8-1-6">
      <stop
         id="stop4634-68-8-0-2-9-1"
         style="stop-color:#fafafa;stop-opacity:1"
         offset="0" />
      <stop
         id="stop4636-8-21-7-1-4-9"
         style="stop-color:#e1e1e1;stop-opacity:1"
         offset="1" />
    </linearGradient>
  </defs>
  <metadata
     id="metadata3431">
    <rdf:RDF>
      <cc:Work
         rdf:about="">
        <dc:format>image/svg+xml</dc:format>
        <dc:type
           rdf:resource="http://purl.org/dc/dcmitype/StillImage" />
        <dc:title />
      </cc:Work>
    </rdf:RDF>
  </metadata>
  <g
     transform="matrix(0.5789476,0,0,0.42857134,-1.894738,2.8571264)"
     id="g3712"
     style="opacity:0.4">
    <rect
       width="5"
       height="7"
       x="38"
       y="40"
       id="rect2801"
       style="fill:url(#radialGradient3064);fill-opacity:1;stroke:none" />
    <rect
       width="5"
       height="7"
       x="-10"
       y="-47"
       transform="scale(-1)"
       id="rect3696"
       style="fill:url(#radialGradient3066);fill-opacity:1;stroke:none" />
    <rect
       width="28"
       height="7.0000005"
       x="10"
       y="40"
       id="rect3700"
       style="fill:url(#linearGradient3068);fill-opacity:1;stroke:none" />
  </g>
  <path
     style="color:#000000;fill:url(#radialGradient3091);fill-opacity:1;fill-rule:nonzero;stroke:none;stroke-width:1;stroke-linecap:round;stroke-linejoin:round;stroke-miterlimit:4;stroke-opacity:0.23907104;stroke-dasharray:none;stroke-dashoffset:0;marker:none;visibility:visible;display:inline;overflow:visible;enable-background:accumulate"
     d="M 3.5 3 C 3.2143514 3 3 3.2143514 3 3.5 L 3 20.5 C 3 20.785649 3.2143514 21 3.5 21 L 20.5 21 C 20.785649 21 21 20.785649 21 20.5 L 21 3.5 C 21 3.2143514 20.785649 3 20.5 3 L 3.5 3 z "
     id="rect5505-21" />
  <rect
     style="opacity:0.5;fill:none;stroke:url(#linearGradient3088);stroke-width:0.99999988;stroke-linecap:round;stroke-linejoin:round;stroke-miterlimit:4;stroke-opacity:1;stroke-dasharray:none;stroke-dashoffset:0"
     id="rect6741-9"
     y="3.4987564"
     x="3.5012455"
     height="17"
     width="17" />
  <path
     style="color:#000000;font-style:normal;font-variant:normal;font-weight:normal;font-stretch:normal;font-size:medium;line-height:normal;font-family:sans-serif;text-indent:0;text-align:start;text-decoration:none;text-decoration-line:none;text-decoration-style:solid;text-decoration-color:#000000;letter-spacing:normal;word-spacing:normal;text-transform:none;direction:ltr;block-progression:tb;writing-mode:lr-tb;baseline-shift:baseline;text-anchor:start;white-space:normal;shape-padding:0;clip-rule:nonzero;display:inline;overflow:visible;visibility:visible;opacity:1;isolation:auto;mix-blend-mode:normal;color-interpolation:sRGB;color-interpolation-filters:linearRGB;solid-color:#000000;solid-opacity:1;fill:#000000;fill-opacity:0.23907106;fill-rule:nonzero;stroke:none;stroke-width:1;stroke-linecap:round;stroke-linejoin:round;stroke-miterlimit:4;stroke-dasharray:none;stroke-dashoffset:0;stroke-opacity:1;marker:none;color-rendering:auto;image-rendering:auto;shape-rendering:auto;text-rendering:auto;enable-background:accumulate"
     d="M 3.5,2 C 2.6776486,2 2,2.6776486 2,3.5 l 0,17 C 2,21.322351 2.6776486,22 3.5,22 l 17,0 c 0.822351,0 1.5,-0.677649 1.5,-1.5 l 0,-17 C 22,2.6776486 21.322351,2 20.5,2 l -17,0 z m 0,1 17,0 C 20.785649,3 21,3.2143514 21,3.5 l 0,17 c 0,0.285649 -0.214351,0.5 -0.5,0.5 l -17,0 C 3.2143514,21 3,20.785649 3,20.5 L 3,3.5 C 3,3.2143514 3.2143514,3 3.5,3 Z"
     id="rect7183" />
  <g
     transform="matrix(0.17190941,0,0,0.17190941,0.99779772,0.39311277)"
     style="display:inline"
     id="g13202">
    <g
       id="g13193">
      <path
         id="path12943-8-8"
         style="opacity:0.07000002;fill:#000000;fill-opacity:1;stroke:#ff0000;stroke-linecap:round;stroke-linejoin:round;stroke-opacity:1"
         d="m 27.972994,25.47115 1.189472,1.982452 1.685083,2.775432 c 0,0 1.192099,2.14482 1.982446,3.072799 0.576447,0.676829 1.206306,1.350637 1.982453,1.784206 1.533422,0.856593 3.332371,1.145017 5.05525,1.486839 2.151004,0.426763 4.370207,0.390788 6.542091,0.693857 2.49088,0.347583 4.977189,0.751531 7.434192,1.288594 2.270551,0.496307 4.506588,1.142256 6.740334,1.784206 1.928477,0.554219 3.884363,1.043323 5.749109,1.784207 1.675381,0.665646 3.282159,1.501533 4.857006,2.378941 1.193217,0.664787 2.278806,1.511024 3.469289,2.180696 0.515143,0.289778 1.006245,0.677776 1.585961,0.792981 0.909712,0.180783 1.885725,0.06382 2.775432,-0.198246 1.120569,-0.330071 2.066722,-1.091426 3.072799,-1.685083 1.010495,-0.596265 1.850785,-1.543117 2.973677,-1.883329 1.328473,-0.402498 2.806074,-0.391009 4.163148,-0.09912 0.895765,0.192666 1.720028,0.674789 2.478063,1.189471 0.967229,0.656715 1.834347,1.47617 2.577191,2.378941 0.640915,0.778903 1.071341,1.709646 1.58596,2.577187 0.543621,0.916428 1.585962,2.775431 1.585962,2.775431 l 1.007082,1.205331 1.173608,1.272733 c 0,0 1.618438,1.432721 2.279828,2.279819 0.82995,1.062987 2.08157,3.469289 2.08157,3.469289 0,0 -2.58614,-1.451015 -3.96491,-1.982451 -1.376336,-0.530504 -2.841507,-0.79298 -4.262265,-1.18947 0,0 -1.119553,-0.191563 -1.685084,-0.198245 -1.061871,-0.01255 -3.171922,0.297368 -3.171922,0.297368 -1.288594,0.09912 -2.182274,0.0016 -3.171922,0.396489 -1.44851,0.578034 -2.597274,1.743519 -3.766657,2.775433 -1.366852,1.206169 -2.325502,2.848569 -3.766657,3.964902 -0.806794,0.62495 -1.734296,1.094293 -2.676309,1.486838 -0.984503,0.41025 -2.026005,0.687723 -3.0728,0.892104 -0.945447,0.184593 -1.922392,0.151319 -2.874554,0.297367 -1.633272,0.25052 -3.230444,0.700308 -4.857006,0.991226 -1.711183,0.306054 -5.154373,0.792981 -5.154373,0.792981 l -4.064025,0.297367 c 0,0 0.300057,0.426357 0.495613,0.594735 0.820177,0.706188 2.775431,1.685083 2.775431,1.685083 0,0 2.676309,1.288594 3.0728,1.288594 0.39649,0 1.837576,0.435523 2.775431,0.495613 1.353511,0.08672 2.712216,-0.08815 4.064026,-0.198245 1.160116,-0.09449 2.309018,-0.303928 3.469289,-0.396491 0.725345,-0.05786 1.502287,-0.362242 2.180697,-0.09912 0.479214,0.185862 1.090348,1.090348 1.090348,1.090348 0,0 -1.705543,0.07557 -2.478064,0.39649 -0.415019,0.172405 -0.674814,0.621821 -1.090348,0.79298 -0.803663,0.331029 -2.577187,0.396491 -2.577187,0.396491 0,0 4.626156,0.188524 6.938579,0.297367 1.28886,0.06066 2.652561,-0.241001 3.86578,0.198245 0.621348,0.22496 1.585961,1.189471 1.585961,1.189471 0,0 -1.261015,-0.188119 -1.883329,-0.09912 -0.693071,0.09912 -1.292224,0.576558 -1.982451,0.693859 -1.20523,0.204823 -2.453853,0.146673 -3.667535,0 -1.79005,-0.216329 -3.471342,-1.014724 -5.253496,-1.288594 -1.014486,-0.1559 -3.072799,-0.198245 -3.072799,-0.198245 l 4.757883,2.180696 c 0,0 2.239364,0.950375 3.271044,1.585961 0.60203,0.370892 1.216265,0.759252 1.685085,1.288598 0.432064,0.487842 1.387715,1.685083 0.991224,1.685083 -0.396489,0 -7.632437,-3.271049 -7.632437,-3.271049 l -6.641211,-2.87456 c 0,0 -2.1052,-1.212434 -3.271044,-1.486839 -0.90111,-0.212095 -1.85291,-0.176157 -2.775433,-0.09912 -1.310861,0.109463 -3.865779,0.792981 -3.865779,0.792981 l -3.46929,0.693858 c 0,0 0.826901,-0.998842 1.387716,-1.288593 1.439266,-0.743611 4.757883,-0.991226 4.757883,-0.991226 0,0 1.223737,-0.217958 1.685084,-0.594735 0.298438,-0.243732 0.594735,-0.991227 0.594735,-0.991227 l -6.542089,-3.072799 c 0,0 -3.251318,-1.767302 -4.956128,-2.478064 -2.092741,-0.872496 -4.397953,-1.201545 -6.442965,-2.180696 -0.777116,-0.372083 -2.180695,-1.387716 -2.180695,-1.387716 l -0.99123,-0.693858 0.99123,2.973677 2.874547,4.65876 2.973684,4.163148 c 0,0 1.527913,2.244461 2.577185,3.072799 0.869839,0.686689 1.961524,1.035496 2.973675,1.486839 1.07031,0.477277 2.119712,1.06999 3.271045,1.288593 1.623047,0.308166 3.306137,-0.08229 4.956128,0 0.994933,0.04963 2.018988,0.01289 2.973677,0.297368 0.892257,0.265863 2.478064,1.288594 2.478064,1.288594 l -5.055251,0 -4.361393,0.09912 c 0,0 4.457834,1.297403 6.641212,2.081574 2.148107,0.771512 4.559038,1.154504 6.343844,2.577184 0.315381,0.25139 0.693858,0.99123 0.693858,0.99123 0,0 -7.063872,-1.57763 -10.506991,-2.676313 -1.923201,-0.61368 -5.649987,-2.180693 -5.649987,-2.180693 l -3.271044,-1.189472 c 0,0 1.648239,1.524037 2.478064,2.279823 2.006347,1.827345 4.013246,3.654365 6.046476,5.451735 0.982747,0.86875 2.973677,2.57719 2.973677,2.57719 0,0 -2.171394,-0.51581 -3.171922,-0.99123 -2.218256,-1.05402 -6.145598,-4.06402 -6.145598,-4.06402 0,0 -2.802889,-2.00463 -4.064025,-3.171924 -0.755202,-0.69901 -1.447404,-1.469398 -2.081574,-2.279815 -0.367081,-0.469101 -0.490637,-1.164024 -0.991222,-1.486842 -1.885351,-1.215805 -4.64524,-0.06623 -6.641212,-1.090347 -0.665181,-0.341296 -1.125864,-0.996677 -1.585963,-1.585962 -0.237133,-0.30371 -0.59474,-0.991225 -0.59474,-0.991225 0,0 3.743575,0.861363 5.64999,0.892104 0.799052,0.01288 2.378944,-0.297368 2.378944,-0.297368 l -4.658767,-7.533315 -2.775427,-4.26227 c 0,0 -2.006937,-1.536619 -2.279823,-2.676309 -0.197801,-0.826128 0.119247,-1.459162 0.59474,-2.478065 l -2.973684,-7.037704 c 0,0 -1.088974,-3.821996 -2.279816,-5.352618 -1.071281,-1.376956 -2.798844,-2.084574 -4.163147,-3.171923 -0.40361,-0.321675 -0.741114,-0.477723 -0.792981,-0.991225 -0.08504,-0.841975 0.51344,-1.473395 1.189472,-1.982451 0.68626,-0.516757 1.636964,-0.751785 2.081582,-1.486839 0.543538,-2.490094 -1.299182,-5.118845 -1.288601,-7.731559 0.0056,-1.341708 0.33048,-2.673328 0.693861,-3.964903 0.317392,-1.128105 1.288592,-3.271045 1.288592,-3.271045 z"
         inkscape:connector-curvature="0"
         sodipodi:nodetypes="cccaaaaaaaaaaaaaaaaacccacacacaaaaaaaccacsaaaacaacaacaaaaccaasccaaccacaccaacccccaaaaacccaacaccaacacaaaaacacccaccassscaac" />
      <path
         id="path12943-8"
         style="opacity:0.15;fill:#000000;fill-opacity:1;stroke:none"
         d="m 27.972994,25.471145 1.189472,1.982452 1.685083,2.775432 c 0,0 1.192099,2.14482 1.982446,3.072799 0.576447,0.676829 1.206306,1.350637 1.982453,1.784206 1.533422,0.856593 3.332371,1.145017 5.05525,1.486839 2.151004,0.426763 4.370207,0.390788 6.542091,0.693857 2.49088,0.347583 4.977189,0.751531 7.434192,1.288594 2.270551,0.496307 4.506588,1.142256 6.740334,1.784206 1.928477,0.554219 3.884363,1.043323 5.749109,1.784207 1.675381,0.665646 3.282159,1.501533 4.857006,2.378941 1.193217,0.664787 2.278806,1.511024 3.469289,2.180696 0.515143,0.289778 1.006245,0.677776 1.585961,0.792981 0.909712,0.180783 1.885725,0.06382 2.775432,-0.198246 1.120569,-0.330071 2.066722,-1.091426 3.072799,-1.685083 1.010495,-0.596265 1.850785,-1.543117 2.973677,-1.883329 1.328473,-0.402498 2.806074,-0.391009 4.163148,-0.09912 0.895765,0.192666 1.720028,0.674789 2.478063,1.189471 0.967229,0.656715 1.834347,1.47617 2.577191,2.378941 0.640915,0.778903 1.071341,1.709646 1.58596,2.577187 0.543621,0.916428 1.585962,2.775431 1.585962,2.775431 l 1.007082,1.205331 1.173608,1.272733 c 0,0 1.618438,1.432721 2.279828,2.279819 0.82995,1.062987 2.08157,3.469289 2.08157,3.469289 0,0 -2.58614,-1.451015 -3.96491,-1.982451 -1.376336,-0.530504 -2.841507,-0.79298 -4.262265,-1.18947 0,0 -1.119553,-0.191563 -1.685084,-0.198245 -1.061871,-0.01255 -3.171922,0.297368 -3.171922,0.297368 -1.288594,0.09912 -2.182274,0.0016 -3.171922,0.396489 -1.44851,0.578034 -2.597274,1.743519 -3.766657,2.775433 -1.366852,1.206169 -2.325502,2.848569 -3.766657,3.964902 -0.806794,0.62495 -1.734296,1.094293 -2.676309,1.486838 -0.984503,0.41025 -2.026005,0.687723 -3.0728,0.892104 -0.945447,0.184593 -1.922392,0.151319 -2.874554,0.297367 -1.633272,0.25052 -3.230444,0.700308 -4.857006,0.991226 -1.711183,0.306054 -5.154373,0.792981 -5.154373,0.792981 l -4.064025,0.297367 c 0,0 0.300057,0.426357 0.495613,0.594735 0.820177,0.706188 2.775431,1.685083 2.775431,1.685083 0,0 2.676309,1.288594 3.0728,1.288594 0.39649,0 1.837576,0.435523 2.775431,0.495613 1.353511,0.08672 2.712216,-0.08815 4.064026,-0.198245 1.160116,-0.09449 2.309018,-0.303928 3.469289,-0.396491 0.725345,-0.05786 1.502287,-0.362242 2.180697,-0.09912 0.479214,0.185862 1.090348,1.090348 1.090348,1.090348 0,0 -1.705543,0.07557 -2.478064,0.39649 -0.415019,0.172405 -0.674814,0.621821 -1.090348,0.79298 -0.803663,0.331029 -2.577187,0.396491 -2.577187,0.396491 0,0 4.626156,0.188524 6.938579,0.297367 1.28886,0.06066 2.652561,-0.241001 3.86578,0.198245 0.621348,0.22496 1.585961,1.189471 1.585961,1.189471 0,0 -1.261015,-0.188119 -1.883329,-0.09912 -0.693071,0.09912 -1.292224,0.576558 -1.982451,0.693859 -1.20523,0.204823 -2.453853,0.146673 -3.667535,0 -1.79005,-0.216329 -3.471342,-1.014724 -5.253496,-1.288594 -1.014486,-0.1559 -3.072799,-0.198245 -3.072799,-0.198245 l 4.757883,2.180696 c 0,0 2.239364,0.950375 3.271044,1.585961 0.60203,0.370892 1.216265,0.759252 1.685085,1.288598 0.432064,0.487842 1.387715,1.685083 0.991224,1.685083 -0.396489,0 -7.632437,-3.271049 -7.632437,-3.271049 l -6.641211,-2.87456 c 0,0 -2.1052,-1.212434 -3.271044,-1.486839 -0.90111,-0.212095 -1.85291,-0.176157 -2.775433,-0.09912 -1.310861,0.109463 -3.865779,0.792981 -3.865779,0.792981 l -3.46929,0.693858 c 0,0 0.826901,-0.998842 1.387716,-1.288593 1.439266,-0.743611 4.757883,-0.991226 4.757883,-0.991226 0,0 1.223737,-0.217958 1.685084,-0.594735 0.298438,-0.243732 0.594735,-0.991227 0.594735,-0.991227 l -6.542089,-3.072799 c 0,0 -3.251318,-1.767302 -4.956128,-2.478064 -2.092741,-0.872496 -4.397953,-1.201545 -6.442965,-2.180696 -0.777116,-0.372083 -2.180695,-1.387716 -2.180695,-1.387716 l -0.99123,-0.693858 0.99123,2.973677 2.874547,4.65876 2.973684,4.163148 c 0,0 1.527913,2.244461 2.577185,3.072799 0.869839,0.686689 1.961524,1.035496 2.973675,1.486839 1.07031,0.477277 2.119712,1.06999 3.271045,1.288593 1.623047,0.308166 3.306137,-0.08229 4.956128,0 0.994933,0.04963 2.018988,0.01289 2.973677,0.297368 0.892257,0.265863 2.478064,1.288594 2.478064,1.288594 l -5.055251,0 -4.361393,0.09912 c 0,0 4.457834,1.297403 6.641212,2.081574 2.148107,0.771512 4.559038,1.154504 6.343844,2.577184 0.315381,0.25139 0.693858,0.99123 0.693858,0.99123 0,0 -7.063872,-1.57763 -10.506991,-2.676313 -1.923201,-0.61368 -5.649987,-2.180693 -5.649987,-2.180693 l -3.271044,-1.189472 c 0,0 1.648239,1.524037 2.478064,2.279823 2.006347,1.827345 4.013246,3.654365 6.046476,5.451735 0.982747,0.86875 2.973677,2.57719 2.973677,2.57719 0,0 -2.171394,-0.51581 -3.171922,-0.99123 -2.218256,-1.05402 -6.145598,-4.06402 -6.145598,-4.06402 0,0 -2.802889,-2.00463 -4.064025,-3.171924 -0.755202,-0.69901 -1.447404,-1.469398 -2.081574,-2.279815 -0.367081,-0.469101 -0.490637,-1.164024 -0.991222,-1.486842 -1.885351,-1.215805 -4.64524,-0.06623 -6.641212,-1.090347 -0.665181,-0.341296 -1.125864,-0.996677 -1.585963,-1.585962 -0.237133,-0.30371 -0.59474,-0.991225 -0.59474,-0.991225 0,0 3.743575,0.861363 5.64999,0.892104 0.799052,0.01288 2.378944,-0.297368 2.378944,-0.297368 l -4.658767,-7.533315 -2.775427,-4.26227 c 0,0 -2.006937,-1.536619 -2.279823,-2.676309 -0.197801,-0.826128 0.119247,-1.459162 0.59474,-2.478065 l -2.973684,-7.037704 c 0,0 -1.088974,-3.821996 -2.279816,-5.352618 -1.071281,-1.376956 -2.798844,-2.084574 -4.163147,-3.171923 -0.40361,-0.321675 -0.741114,-0.477723 -0.792981,-0.991225 -0.08504,-0.841975 0.51344,-1.473395 1.189472,-1.982451 0.68626,-0.516757 1.636964,-0.751785 2.081582,-1.486839 0.543538,-2.490094 -1.299182,-5.118845 -1.288601,-7.731559 0.0056,-1.341708 0.33048,-2.673328 0.693861,-3.964903 0.317392,-1.128105 1.288592,-3.271045 1.288592,-3.271045 z"
         inkscape:connector-curvature="0"
         sodipodi:nodetypes="cccaaaaaaaaaaaaaaaaacccacacacaaaaaaaccacsaaaacaacaacaaaaccaasccaaccacaccaacccccaaaaacccaacaccaacacaaaaacacccaccassscaac" />
      <path
         id="path12943"
         style="fill:#b97345;fill-opacity:1;stroke:none"
         d="m 27.972994,24.471536 1.189472,1.982452 1.685083,2.775432 c 0,0 1.192099,2.14482 1.982446,3.072799 0.576447,0.676829 1.206306,1.350637 1.982453,1.784206 1.533422,0.856593 3.332371,1.145017 5.05525,1.486839 2.151004,0.426763 4.370207,0.390788 6.542091,0.693857 2.49088,0.347583 4.977189,0.751531 7.434192,1.288594 2.270551,0.496307 4.506588,1.142256 6.740334,1.784206 1.928477,0.554219 3.884363,1.043323 5.749109,1.784207 1.675381,0.665646 3.282159,1.501533 4.857006,2.378941 1.193217,0.664787 2.278806,1.511024 3.469289,2.180696 0.515143,0.289778 1.006245,0.677776 1.585961,0.792981 0.909712,0.180783 1.885725,0.06382 2.775432,-0.198246 1.120569,-0.330071 2.066722,-1.091426 3.072799,-1.685083 1.010495,-0.596265 1.850785,-1.543117 2.973677,-1.883329 1.328473,-0.402498 2.806074,-0.391009 4.163148,-0.09912 0.895765,0.192666 1.720028,0.674789 2.478063,1.189471 0.967229,0.656715 1.834347,1.47617 2.577191,2.378941 0.640915,0.778903 1.071341,1.709646 1.58596,2.577187 0.543621,0.916428 1.585962,2.775431 1.585962,2.775431 l 1.007082,1.205331 1.173608,1.272733 c 0,0 1.618438,1.432721 2.279828,2.279819 C 102.74838,57.352868 104,59.75917 104,59.75917 c 0,0 -2.58614,-1.451015 -3.96491,-1.982451 -1.376336,-0.530504 -2.841507,-0.79298 -4.262265,-1.18947 0,0 -1.119553,-0.191563 -1.685084,-0.198245 -1.061871,-0.01255 -3.171922,0.297368 -3.171922,0.297368 -1.288594,0.09912 -2.182274,0.0016 -3.171922,0.396489 -1.44851,0.578034 -2.597274,1.743519 -3.766657,2.775433 -1.366852,1.206169 -2.325502,2.848569 -3.766657,3.964902 -0.806794,0.62495 -1.734296,1.094293 -2.676309,1.486838 -0.984503,0.41025 -2.026005,0.687723 -3.0728,0.892104 -0.945447,0.184593 -1.922392,0.151319 -2.874554,0.297367 -1.633272,0.25052 -3.230444,0.700308 -4.857006,0.991226 -1.711183,0.306054 -5.154373,0.792981 -5.154373,0.792981 l -4.064025,0.297367 c 0,0 0.300057,0.426357 0.495613,0.594735 0.820177,0.706188 2.775431,1.685083 2.775431,1.685083 0,0 2.676309,1.288594 3.0728,1.288594 0.39649,0 1.837576,0.435523 2.775431,0.495613 1.353511,0.08672 2.712216,-0.08815 4.064026,-0.198245 1.160116,-0.09449 2.309018,-0.303928 3.469289,-0.396491 0.725345,-0.05786 1.502287,-0.362242 2.180697,-0.09912 0.479214,0.185862 1.090348,1.090348 1.090348,1.090348 0,0 -1.705543,0.07557 -2.478064,0.39649 -0.415019,0.172405 -0.674814,0.621821 -1.090348,0.79298 -0.803663,0.331029 -2.577187,0.396491 -2.577187,0.396491 0,0 4.626156,0.188524 6.938579,0.297367 1.28886,0.06066 2.652561,-0.241001 3.86578,0.198245 0.621348,0.22496 1.585961,1.189471 1.585961,1.189471 0,0 -1.261015,-0.188119 -1.883329,-0.09912 -0.693071,0.09912 -1.292224,0.576558 -1.982451,0.693859 -1.20523,0.204823 -2.453853,0.146673 -3.667535,0 -1.79005,-0.216329 -3.471342,-1.014724 -5.253496,-1.288594 -1.014486,-0.1559 -3.072799,-0.198245 -3.072799,-0.198245 l 4.757883,2.180696 c 0,0 2.239364,0.950375 3.271044,1.585961 0.60203,0.370892 1.216265,0.759252 1.685085,1.288598 0.432064,0.487842 1.387715,1.685083 0.991224,1.685083 -0.396489,0 -7.632437,-3.271049 -7.632437,-3.271049 l -6.641211,-2.87456 c 0,0 -2.1052,-1.212434 -3.271044,-1.486839 -0.90111,-0.212095 -1.85291,-0.176157 -2.775433,-0.09912 -1.310861,0.109463 -3.865779,0.792981 -3.865779,0.792981 l -3.46929,0.693858 c 0,0 0.826901,-0.998842 1.387716,-1.288593 1.439266,-0.743611 4.757883,-0.991226 4.757883,-0.991226 0,0 1.223737,-0.217958 1.685084,-0.594735 0.298438,-0.243732 0.594735,-0.991227 0.594735,-0.991227 l -6.542089,-3.072799 c 0,0 -3.251318,-1.767302 -4.956128,-2.478064 -2.092741,-0.872496 -4.397953,-1.201545 -6.442965,-2.180696 -0.777116,-0.372083 -2.180695,-1.387716 -2.180695,-1.387716 l -0.99123,-0.693858 0.99123,2.973677 2.874547,4.65876 2.973684,4.163148 c 0,0 1.527913,2.244461 2.577185,3.072799 0.869839,0.686689 1.961524,1.035496 2.973675,1.486839 1.07031,0.477277 2.119712,1.06999 3.271045,1.288593 1.623047,0.308166 3.306137,-0.08229 4.956128,0 0.994933,0.04963 2.018988,0.01289 2.973677,0.297368 0.892257,0.265863 2.478064,1.288594 2.478064,1.288594 l -5.055251,0 -4.361393,0.09912 c 0,0 4.457834,1.297403 6.641212,2.081574 2.148107,0.771512 4.559038,1.154504 6.343844,2.577184 0.315381,0.25139 0.693858,0.99123 0.693858,0.99123 0,0 -7.063872,-1.57763 -10.506991,-2.676313 -1.923201,-0.61368 -5.649987,-2.180693 -5.649987,-2.180693 l -3.271044,-1.189472 c 0,0 1.648239,1.524037 2.478064,2.279823 2.006347,1.827345 4.013246,3.654365 6.046476,5.451735 0.982747,0.86875 2.973677,2.57719 2.973677,2.57719 0,0 -2.171394,-0.51581 -3.171922,-0.99123 -2.218256,-1.05402 -6.145598,-4.06402 -6.145598,-4.06402 0,0 -2.802889,-2.00463 -4.064025,-3.171924 -0.755202,-0.69901 -1.447404,-1.469398 -2.081574,-2.279815 -0.367081,-0.469101 -0.490637,-1.164024 -0.991222,-1.486842 -1.885351,-1.215805 -4.64524,-0.06623 -6.641212,-1.090347 -0.665181,-0.341296 -1.125864,-0.996677 -1.585963,-1.585962 -0.237133,-0.30371 -0.59474,-0.991225 -0.59474,-0.991225 0,0 3.743575,0.861363 5.64999,0.892104 0.799052,0.01288 2.378944,-0.297368 2.378944,-0.297368 l -4.658767,-7.533315 -2.775427,-4.26227 c 0,0 -2.006937,-1.536619 -2.279823,-2.676309 -0.197801,-0.826128 0.119247,-1.459162 0.59474,-2.478065 l -2.973684,-7.037704 c 0,0 -1.088974,-3.821996 -2.279816,-5.352618 -1.071281,-1.376956 -2.798844,-2.084574 -4.163147,-3.171923 -0.40361,-0.321675 -0.741114,-0.477723 -0.792981,-0.991225 -0.08504,-0.841975 0.51344,-1.473395 1.189472,-1.982451 0.68626,-0.516757 1.636964,-0.751785 2.081582,-1.486839 0.543538,-2.490094 -1.299182,-5.118845 -1.288601,-7.731559 0.0056,-1.341708 0.33048,-2.673328 0.693861,-3.964903 0.317392,-1.128105 1.288592,-3.271045 1.288592,-3.271045 z"
         inkscape:connector-curvature="0"
         sodipodi:nodetypes="cccaaaaaaaaaaaaaaaaacccacacacaaaaaaaccacsaaaacaacaacaaaaccaasccaaccacaccaacccccaaaaacccaacaccaacacaaaaacacccaccassscaac" />
    </g>
    <path
       d="m 95.289343,105.56839 a 5,5 0 0 1 -9.999995,0 5,5 0 1 1 9.999995,0 z"
       id="path4356-7-6-7-6-1-5-9"
       style="color:#000000;fill:#ffffff;fill-opacity:1;fill-rule:evenodd;stroke:none;stroke-width:0.33830979;marker:none;visibility:visible;display:inline;overflow:visible;enable-background:accumulate"
       inkscape:connector-curvature="0" />
    <path
       d="m 95.289343,104.56936 a 5,5 0 0 1 -9.999995,0 5,5 0 1 1 9.999995,0 z"
       id="path4356-8-9-9-8-7-6"
       style="opacity:0.6;color:#000000;fill:#008000;fill-opacity:1;fill-rule:evenodd;stroke:none;stroke-width:0.33830979;marker:none;visibility:visible;display:inline;overflow:visible;enable-background:accumulate"
       inkscape:connector-curvature="0" />
    <path
       d="m 108.43401,99.56839 a 5,5 0 0 1 -9.999992,0 5,5 0 1 1 9.999992,0 z"
       id="path4356-7-6-7-6-1-5-3-7"
       style="color:#000000;fill:#ffffff;fill-opacity:1;fill-rule:evenodd;stroke:none;stroke-width:0.33830979;marker:none;visibility:visible;display:inline;overflow:visible;enable-background:accumulate"
       inkscape:connector-curvature="0" />
    <path
       d="m 108.43401,98.569358 a 5,5 0 0 1 -9.999992,0 5,5 0 1 1 9.999992,0 z"
       id="path4356-8-9-9-8-7-3-1"
       style="opacity:0.6;color:#000000;fill:#008000;fill-opacity:1;fill-rule:evenodd;stroke:none;stroke-width:0.33830979;marker:none;visibility:visible;display:inline;overflow:visible;enable-background:accumulate"
       inkscape:connector-curvature="0" />
    <path
       d="m 82.144678,99.56839 a 5,5 0 0 1 -9.999995,0 5,5 0 1 1 9.999995,0 z"
       id="path4356-7-6-7-6-1-5-1-7-2"
       style="color:#000000;fill:#ffffff;fill-opacity:1;fill-rule:evenodd;stroke:none;stroke-width:0.33830979;marker:none;visibility:visible;display:inline;overflow:visible;enable-background:accumulate"
       inkscape:connector-curvature="0" />
    <path
       d="m 82.144678,98.569356 a 5,5 0 0 1 -9.999995,0 5,5 0 1 1 9.999995,0 z"
       id="path4356-8-9-9-8-7-8-6-3"
       style="opacity:0.6;color:#000000;fill:#008000;fill-opacity:1;fill-rule:evenodd;stroke:none;stroke-width:0.33830979;marker:none;visibility:visible;display:inline;overflow:visible;enable-background:accumulate"
       inkscape:connector-curvature="0" />
    <path
       d="m 42.710663,105.56839 a 5,5 0 0 1 -9.999995,0 5,5 0 1 1 9.999995,0 z"
       id="path4356-7-6-7-6-1-5"
       style="color:#000000;fill:#ffffff;fill-opacity:1;fill-rule:evenodd;stroke:none;stroke-width:0.33830979;marker:none;visibility:visible;display:inline;overflow:visible;enable-background:accumulate"
       inkscape:connector-curvature="0" />
    <path
       d="m 42.710663,104.56936 a 5,5 0 0 1 -9.999995,0 5,5 0 1 1 9.999995,0 z"
       id="path4356-8-9-9-8-7"
       style="opacity:0.6;color:#000000;fill:#008000;fill-opacity:1;fill-rule:evenodd;stroke:none;stroke-width:0.33830979;marker:none;visibility:visible;display:inline;overflow:visible;enable-background:accumulate"
       inkscape:connector-curvature="0" />
    <path
       d="m 69.000007,105.56839 a 5,5 0 0 1 -9.999995,0 5,5 0 1 1 9.999995,0 z"
       id="path4356-7-6-7-6-1-5-1"
       style="color:#000000;fill:#ffffff;fill-opacity:1;fill-rule:evenodd;stroke:none;stroke-width:0.33830979;marker:none;visibility:visible;display:inline;overflow:visible;enable-background:accumulate"
       inkscape:connector-curvature="0" />
    <path
       d="m 69.000007,104.56936 a 5,5 0 0 1 -9.999995,0 5,5 0 1 1 9.999995,0 z"
       id="path4356-8-9-9-8-7-8"
       style="opacity:0.6;color:#000000;fill:#008000;fill-opacity:1;fill-rule:evenodd;stroke:none;stroke-width:0.33830979;marker:none;visibility:visible;display:inline;overflow:visible;enable-background:accumulate"
       inkscape:connector-curvature="0" />
    <path
       d="m 55.855333,99.56839 a 5,5 0 0 1 -9.999995,0 5,5 0 1 1 9.999995,0 z"
       id="path4356-7-6-7-6-1-5-3"
       style="color:#000000;fill:#ffffff;fill-opacity:1;fill-rule:evenodd;stroke:none;stroke-width:0.33830979;marker:none;visibility:visible;display:inline;overflow:visible;enable-background:accumulate"
       inkscape:connector-curvature="0" />
    <path
       d="m 55.855333,98.569358 a 5,5 0 0 1 -9.999995,0 5,5 0 1 1 9.999995,0 z"
       id="path4356-8-9-9-8-7-3"
       style="opacity:0.6;color:#000000;fill:#008000;fill-opacity:1;fill-rule:evenodd;stroke:none;stroke-width:0.33830979;marker:none;visibility:visible;display:inline;overflow:visible;enable-background:accumulate"
       inkscape:connector-curvature="0" />
    <path
       d="m 29.565984,99.56839 a 5,5 0 0 1 -9.999995,0 5,5 0 1 1 9.999995,0 z"
       id="path4356-7-6-7-6-1-5-1-7"
       style="color:#000000;fill:#ffffff;fill-opacity:1;fill-rule:evenodd;stroke:none;stroke-width:0.33830979;marker:none;visibility:visible;display:inline;overflow:visible;enable-background:accumulate"
       inkscape:connector-curvature="0" />
    <path
       d="m 29.565984,98.569356 a 5,5 0 0 1 -9.999995,0 5,5 0 1 1 9.999995,0 z"
       id="path4356-8-9-9-8-7-8-6"
       style="opacity:0.6;color:#000000;fill:#008000;fill-opacity:1;fill-rule:evenodd;stroke:none;stroke-width:0.33830979;marker:none;visibility:visible;display:inline;overflow:visible;enable-background:accumulate"
       inkscape:connector-curvature="0" />
  </g>
</svg>
