<?xml version="1.0" encoding="UTF-8" standalone="no"?>
<svg
   xmlns:dc="http://purl.org/dc/elements/1.1/"
   xmlns:cc="http://creativecommons.org/ns#"
   xmlns:rdf="http://www.w3.org/1999/02/22-rdf-syntax-ns#"
   xmlns:svg="http://www.w3.org/2000/svg"
   xmlns="http://www.w3.org/2000/svg"
   xmlns:xlink="http://www.w3.org/1999/xlink"
   xmlns:sodipodi="http://sodipodi.sourceforge.net/DTD/sodipodi-0.dtd"
   xmlns:inkscape="http://www.inkscape.org/namespaces/inkscape"
   version="1.1"
   width="24"
   height="24"
   id="svg3426"
   inkscape:version="0.48.4 r9939"
   sodipodi:docname="weka.svg">
  <sodipodi:namedview
     pagecolor="#ffffff"
     bordercolor="#666666"
     borderopacity="1"
     objecttolerance="10"
     gridtolerance="10"
     guidetolerance="10"
     inkscape:pageopacity="0"
     inkscape:pageshadow="2"
     inkscape:window-width="1366"
     inkscape:window-height="713"
     id="namedview16837"
     showgrid="false"
     inkscape:zoom="9.8333333"
     inkscape:cx="-0.25423729"
     inkscape:cy="12"
     inkscape:window-x="0"
     inkscape:window-y="30"
     inkscape:window-maximized="1"
     inkscape:current-layer="svg3426" />
  <defs
     id="defs3428">
    <linearGradient
       id="linearGradient10910">
      <stop
         style="stop-color:#d45500;stop-opacity:1;"
         offset="0"
         id="stop10912" />
      <stop
         id="stop10918"
         offset="0.5"
         style="stop-color:#d45500;stop-opacity:0.78431374;" />
      <stop
         style="stop-color:#d45500;stop-opacity:0.58823532;"
         offset="0.80000001"
         id="stop10920" />
      <stop
         style="stop-color:#000000;stop-opacity:0.78431374;"
         offset="1"
         id="stop10914" />
    </linearGradient>
    <linearGradient
       id="linearGradient3868">
      <stop
         offset="0"
         style="stop-color:#f4f4f4;stop-opacity:1"
         id="stop3870" />
      <stop
         offset="1"
         style="stop-color:#d0d0d0;stop-opacity:1"
         id="stop3872" />
    </linearGradient>
    <linearGradient
       x1="19.874987"
       y1="44.520065"
       x2="19.874987"
       y2="5.2502403"
       id="linearGradient3172-9-6"
       xlink:href="#linearGradient3707-319-631-407-1-846-4-3-8"
       gradientUnits="userSpaceOnUse"
       gradientTransform="matrix(0.48717951,0,0,0.48717951,0.30769188,7.8205088)" />
    <linearGradient
       id="linearGradient3707-319-631-407-1-846-4-3-8">
      <stop
         id="stop3788-6-7-8"
         style="stop-color:#365a7c;stop-opacity:1"
         offset="0" />
      <stop
         id="stop3790-9-4-43"
         style="stop-color:#5ea1ca;stop-opacity:1"
         offset="1" />
    </linearGradient>
    <linearGradient
       x1="19.874987"
       y1="44.520065"
       x2="19.874987"
       y2="5.2502403"
       id="linearGradient3333"
       xlink:href="#linearGradient3707-319-631-407-1-846-4-0-0-4"
       gradientUnits="userSpaceOnUse"
       gradientTransform="matrix(0.48717951,0,0,0.48717951,0.30769188,7.8205088)" />
    <linearGradient
       id="linearGradient3707-319-631-407-1-846-4-0-0-4">
      <stop
         id="stop3788-6-4-7-9"
         style="stop-color:#365a7c;stop-opacity:1"
         offset="0" />
      <stop
         id="stop3790-9-8-8-2"
         style="stop-color:#5ea1ca;stop-opacity:1"
         offset="1" />
    </linearGradient>
    <linearGradient
       x1="16.626165"
       y1="15.298182"
       x2="20.054544"
       y2="24.627615"
       id="linearGradient3178"
       xlink:href="#linearGradient8265-821-176-38-919-66-249-7-7-8"
       gradientUnits="userSpaceOnUse"
       gradientTransform="matrix(0.39077928,0,0,0.59639877,2.6029975,7.5932433)" />
    <linearGradient
       id="linearGradient8265-821-176-38-919-66-249-7-7-8">
      <stop
         id="stop2687-1-9-6"
         style="stop-color:#ffffff;stop-opacity:1"
         offset="0" />
      <stop
         id="stop2689-5-4-8"
         style="stop-color:#ffffff;stop-opacity:0"
         offset="1" />
    </linearGradient>
    <linearGradient
       x1="23.99999"
       y1="4.999989"
       x2="23.99999"
       y2="43"
       id="linearGradient3181"
       xlink:href="#linearGradient3924"
       gradientUnits="userSpaceOnUse"
       gradientTransform="matrix(0.45945947,0,0,0.45945947,0.9742203,8.9717328)" />
    <linearGradient
       id="linearGradient3924">
      <stop
         id="stop3926"
         style="stop-color:#ffffff;stop-opacity:1"
         offset="0" />
      <stop
         id="stop3928"
         style="stop-color:#ffffff;stop-opacity:0.23529412"
         offset="0.06316455" />
      <stop
         id="stop3930"
         style="stop-color:#ffffff;stop-opacity:0.15686275"
         offset="0.95056331" />
      <stop
         id="stop3932"
         style="stop-color:#ffffff;stop-opacity:0.39215687"
         offset="1" />
    </linearGradient>
    <radialGradient
       cx="7.4956832"
       cy="8.4497671"
       r="19.99999"
       fx="7.4956832"
       fy="8.4497671"
       id="radialGradient3184"
       xlink:href="#linearGradient2867-449-88-871-390-598-476-591-434-148-57-177"
       gradientUnits="userSpaceOnUse"
       gradientTransform="matrix(0,1.1385337,-1.2044328,-2.0976135e-8,22.177231,2.2497107)" />
    <linearGradient
       id="linearGradient2867-449-88-871-390-598-476-591-434-148-57-177">
      <stop
         id="stop3750"
         style="stop-color:#90dbec;stop-opacity:1"
         offset="0" />
      <stop
         id="stop3752"
         style="stop-color:#55c1ec;stop-opacity:1"
         offset="0.26238" />
      <stop
         id="stop3754"
         style="stop-color:#3689e6;stop-opacity:1"
         offset="0.704952" />
      <stop
         id="stop3756"
         style="stop-color:#2b63a0;stop-opacity:1"
         offset="1" />
    </linearGradient>
    <linearGradient
       x1="24"
       y1="44"
       x2="24"
       y2="3.8990016"
       id="linearGradient3186"
       xlink:href="#linearGradient3707-319-631-407-324"
       gradientUnits="userSpaceOnUse"
       gradientTransform="matrix(0.48717951,0,0,0.48717951,0.30769188,8.3076897)" />
    <linearGradient
       id="linearGradient3707-319-631-407-324">
      <stop
         id="stop3760"
         style="stop-color:#185f9a;stop-opacity:1"
         offset="0" />
      <stop
         id="stop3762"
         style="stop-color:#599ec9;stop-opacity:1"
         offset="1" />
    </linearGradient>
    <radialGradient
       cx="4.9929786"
       cy="43.5"
       r="2.5"
       fx="4.9929786"
       fy="43.5"
       id="radialGradient3152"
       xlink:href="#linearGradient3688-166-749"
       gradientUnits="userSpaceOnUse"
       gradientTransform="matrix(2.003784,0,0,1.4,27.98813,-17.4)" />
    <linearGradient
       id="linearGradient3688-166-749">
      <stop
         id="stop2883"
         style="stop-color:#181818;stop-opacity:1"
         offset="0" />
      <stop
         id="stop2885"
         style="stop-color:#181818;stop-opacity:0"
         offset="1" />
    </linearGradient>
    <radialGradient
       cx="4.9929786"
       cy="43.5"
       r="2.5"
       fx="4.9929786"
       fy="43.5"
       id="radialGradient3154"
       xlink:href="#linearGradient3688-464-309"
       gradientUnits="userSpaceOnUse"
       gradientTransform="matrix(2.003784,0,0,1.4,-20.01187,-104.4)" />
    <linearGradient
       id="linearGradient3688-464-309">
      <stop
         id="stop2889"
         style="stop-color:#181818;stop-opacity:1"
         offset="0" />
      <stop
         id="stop2891"
         style="stop-color:#181818;stop-opacity:0"
         offset="1" />
    </linearGradient>
    <linearGradient
       x1="25.058096"
       y1="47.027729"
       x2="25.058096"
       y2="39.999443"
       id="linearGradient3156"
       xlink:href="#linearGradient3702-501-757"
       gradientUnits="userSpaceOnUse" />
    <linearGradient
       id="linearGradient3702-501-757">
      <stop
         id="stop2895"
         style="stop-color:#181818;stop-opacity:0"
         offset="0" />
      <stop
         id="stop2897"
         style="stop-color:#181818;stop-opacity:1"
         offset="0.5" />
      <stop
         id="stop2899"
         style="stop-color:#181818;stop-opacity:0"
         offset="1" />
    </linearGradient>
    <linearGradient
       id="linearGradient2867-449-88-871-390-598-476-591-434-148-57-177-641-289-620-227-114-444-680-744-4-8-69-5-4-8-426-2-9-1-4-965">
      <stop
         id="stop4036"
         style="stop-color:#f4f4f4;stop-opacity:1"
         offset="0" />
      <stop
         id="stop4040"
         style="stop-color:#d0d0d0;stop-opacity:1"
         offset="1" />
    </linearGradient>
    <radialGradient
       r="19.99999"
       fy="8.4497671"
       fx="20.930695"
       cy="8.4497671"
       cx="20.930695"
       gradientTransform="matrix(1.165708e-8,1.4381477,-1.483354,-2.6496169e-8,42.73745,-34.976515)"
       gradientUnits="userSpaceOnUse"
       id="radialGradient3331"
       xlink:href="#linearGradient2867-449-88-871-390-598-476-591-434-148-57-177-641-289-620-227-114-444-680-744-4-8-69-5-4-8-426-2-9-1-4-965" />
    <radialGradient
       xlink:href="#linearGradient3688-166-749"
       id="radialGradient3064"
       gradientUnits="userSpaceOnUse"
       gradientTransform="matrix(2.003784,0,0,1.4,27.98813,-17.4)"
       cx="4.9929786"
       cy="43.5"
       fx="4.9929786"
       fy="43.5"
       r="2.5" />
    <radialGradient
       xlink:href="#linearGradient3688-464-309"
       id="radialGradient3066"
       gradientUnits="userSpaceOnUse"
       gradientTransform="matrix(2.003784,0,0,1.4,-20.01187,-104.4)"
       cx="4.9929786"
       cy="43.5"
       fx="4.9929786"
       fy="43.5"
       r="2.5" />
    <linearGradient
       xlink:href="#linearGradient3702-501-757"
       id="linearGradient3068"
       gradientUnits="userSpaceOnUse"
       x1="25.058096"
       y1="47.027729"
       x2="25.058096"
       y2="39.999443" />
    <radialGradient
       xlink:href="#linearGradient2867-449-88-871-390-598-476-591-434-148-57-177"
       id="radialGradient3070"
       gradientUnits="userSpaceOnUse"
       gradientTransform="matrix(0,1.1385337,-1.2044328,-2.0976135e-8,22.177231,2.2497107)"
       cx="7.4956832"
       cy="8.4497671"
       fx="7.4956832"
       fy="8.4497671"
       r="19.99999" />
    <linearGradient
       xlink:href="#linearGradient3707-319-631-407-324"
       id="linearGradient3072"
       gradientUnits="userSpaceOnUse"
       gradientTransform="matrix(0.48717951,0,0,0.48717951,0.30769188,8.3076897)"
       x1="24"
       y1="44"
       x2="24"
       y2="3.8990016" />
    <linearGradient
       xlink:href="#linearGradient3924"
       id="linearGradient3074"
       gradientUnits="userSpaceOnUse"
       gradientTransform="matrix(0.45945947,0,0,0.45945947,0.9742203,8.9717328)"
       x1="23.99999"
       y1="4.999989"
       x2="23.99999"
       y2="43" />
    <linearGradient
       xlink:href="#linearGradient8265-821-176-38-919-66-249-7-7-8"
       id="linearGradient3076"
       gradientUnits="userSpaceOnUse"
       gradientTransform="matrix(0.39077928,0,0,0.59639877,2.6029975,7.5932433)"
       x1="16.626165"
       y1="15.298182"
       x2="20.054544"
       y2="24.627615" />
    <linearGradient
       xlink:href="#linearGradient3707-319-631-407-1-846-4-3-8"
       id="linearGradient3078"
       gradientUnits="userSpaceOnUse"
       gradientTransform="matrix(0.48717951,0,0,0.48717951,0.30769188,7.8205088)"
       x1="19.874987"
       y1="44.520065"
       x2="19.874987"
       y2="5.2502403" />
    <linearGradient
       xlink:href="#linearGradient3707-319-631-407-1-846-4-3-8"
       id="linearGradient3082"
       gradientUnits="userSpaceOnUse"
       gradientTransform="matrix(0.48717951,0,0,0.48717951,0.30769188,7.8205088)"
       x1="19.874987"
       y1="44.520065"
       x2="19.874987"
       y2="5.2502403" />
    <linearGradient
       xlink:href="#linearGradient8265-821-176-38-919-66-249-7-7-8"
       id="linearGradient3085"
       gradientUnits="userSpaceOnUse"
       gradientTransform="matrix(0.39077928,0,0,0.59639877,2.6029975,-0.4067567)"
       x1="16.626165"
       y1="15.298182"
       x2="20.054544"
       y2="24.627615" />
    <linearGradient
       xlink:href="#linearGradient3924"
       id="linearGradient3088"
       gradientUnits="userSpaceOnUse"
       gradientTransform="matrix(0.45945947,0,0,0.45945947,0.9742203,0.9717328)"
       x1="23.99999"
       y1="4.999989"
       x2="23.99999"
       y2="43" />
    <radialGradient
       xlink:href="#linearGradient4632-92-3-0-8-1-6"
       id="radialGradient3091"
       gradientUnits="userSpaceOnUse"
       gradientTransform="matrix(0,1.1385337,-1.2044328,-2.0976135e-8,22.177231,-5.7502893)"
       cx="7.4956832"
       cy="8.4497671"
       fx="7.4956832"
       fy="8.4497671"
       r="19.99999" />
    <linearGradient
       xlink:href="#linearGradient4011-9-9-70-61-7"
       id="linearGradient3866"
       gradientUnits="userSpaceOnUse"
       gradientTransform="matrix(-0.12612572,0,0,0.12612572,24.549488,9.2956327)"
       x1="71.204407"
       y1="6.2375584"
       x2="71.204407"
       y2="44.340794" />
    <linearGradient
       id="linearGradient4011-9-9-70-61-7">
      <stop
         id="stop4013-5-4-3-8-3"
         style="stop-color:#ffffff;stop-opacity:1;"
         offset="0" />
      <stop
         offset="0.507761"
         style="stop-color:#ffffff;stop-opacity:0.23529412;"
         id="stop4015-1-5-70-9-5" />
      <stop
         id="stop4017-7-0-13-0-1"
         style="stop-color:#ffffff;stop-opacity:0.15686275;"
         offset="0.83456558" />
      <stop
         id="stop4019-1-12-7-0-7"
         style="stop-color:#ffffff;stop-opacity:0.39215687;"
         offset="1" />
    </linearGradient>
    <linearGradient
       xlink:href="#linearGradient4215-8-4-07-7"
       id="linearGradient3869"
       gradientUnits="userSpaceOnUse"
       gradientTransform="matrix(-0.12200399,0,0,0.12200399,19.406172,8.3456975)"
       x1="38.976662"
       y1="59.967686"
       x2="38.976662"
       y2="8.0928917" />
    <linearGradient
       id="linearGradient4215-8-4-07-7">
      <stop
         style="stop-color:#e9e9e9;stop-opacity:1;"
         offset="0"
         id="stop4217-1-2-1-2" />
      <stop
         style="stop-color:#ffffff;stop-opacity:1;"
         offset="1"
         id="stop4219-3-4-0-96" />
    </linearGradient>
    <linearGradient
       xlink:href="#linearGradient27416-1-2"
       id="linearGradient3884"
       gradientUnits="userSpaceOnUse"
       gradientTransform="matrix(0.38888771,0,0,0.4374987,-0.4423505,-1.5061266)"
       x1="30.271185"
       y1="10.028973"
       x2="30.271185"
       y2="55.052982" />
    <linearGradient
       id="linearGradient27416-1-2">
      <stop
         offset="0"
         style="stop-color:#55c1ec;stop-opacity:1"
         id="stop27420-2-0" />
      <stop
         offset="1"
         style="stop-color:#3689e6;stop-opacity:1"
         id="stop27422-3-5" />
    </linearGradient>
    <radialGradient
       cx="20.930695"
       cy="8.4497671"
       r="19.99999"
       fx="20.930695"
       fy="8.4497671"
       id="radialGradient3035"
       xlink:href="#linearGradient3868"
       gradientUnits="userSpaceOnUse"
       gradientTransform="matrix(1.165708e-8,1.4381477,-1.483354,-2.6496169e-8,165.53406,-79.42143)" />
    <linearGradient
       id="linearGradient4632-92-3-0-8-1-6">
      <stop
         id="stop4634-68-8-0-2-9-1"
         style="stop-color:#fafafa;stop-opacity:1"
         offset="0" />
      <stop
         id="stop4636-8-21-7-1-4-9"
         style="stop-color:#e1e1e1;stop-opacity:1"
         offset="1" />
    </linearGradient>
    <radialGradient
       inkscape:collect="always"
       xlink:href="#linearGradient10910"
       id="radialGradient10916"
       cx="12"
       cy="10.359555"
       fx="12"
       fy="10.359555"
       r="6.8763762"
       gradientTransform="matrix(1.7434705,-3.4056558e-8,2.9085088e-8,1.4889641,-8.9216461,-5.0654501)"
       gradientUnits="userSpaceOnUse" />
  </defs>
  <metadata
     id="metadata3431">
    <rdf:RDF>
      <cc:Work
         rdf:about="">
        <dc:format>image/svg+xml</dc:format>
        <dc:type
           rdf:resource="http://purl.org/dc/dcmitype/StillImage" />
        <dc:title />
      </cc:Work>
    </rdf:RDF>
  </metadata>
  <g
     transform="matrix(0.5789476,0,0,0.42857134,-1.894738,2.8571264)"
     id="g3712"
     style="opacity:0.4">
    <rect
       width="5"
       height="7"
       x="38"
       y="40"
       id="rect2801"
       style="fill:url(#radialGradient3064);fill-opacity:1;stroke:none" />
    <rect
       width="5"
       height="7"
       x="-10"
       y="-47"
       transform="scale(-1)"
       id="rect3696"
       style="fill:url(#radialGradient3066);fill-opacity:1;stroke:none" />
    <rect
       width="28"
       height="7.0000005"
       x="10"
       y="40"
       id="rect3700"
       style="fill:url(#linearGradient3068);fill-opacity:1;stroke:none" />
  </g>
  <path
     style="color:#000000;fill:url(#radialGradient3091);fill-opacity:1;fill-rule:nonzero;stroke:none;stroke-width:1;stroke-linecap:round;stroke-linejoin:round;stroke-miterlimit:4;stroke-opacity:0.23907104;stroke-dasharray:none;stroke-dashoffset:0;marker:none;visibility:visible;display:inline;overflow:visible;enable-background:accumulate"
     d="M 3.5 3 C 3.2143514 3 3 3.2143514 3 3.5 L 3 20.5 C 3 20.785649 3.2143514 21 3.5 21 L 20.5 21 C 20.785649 21 21 20.785649 21 20.5 L 21 3.5 C 21 3.2143514 20.785649 3 20.5 3 L 3.5 3 z "
     id="rect5505-21" />
  <rect
     style="opacity:0.5;fill:none;stroke:url(#linearGradient3088);stroke-width:0.99999988;stroke-linecap:round;stroke-linejoin:round;stroke-miterlimit:4;stroke-opacity:1;stroke-dasharray:none;stroke-dashoffset:0"
     id="rect6741-9"
     y="3.4987564"
     x="3.5012455"
     height="17"
     width="17" />
  <path
     style="color:#000000;font-style:normal;font-variant:normal;font-weight:normal;font-stretch:normal;font-size:medium;line-height:normal;font-family:sans-serif;text-indent:0;text-align:start;text-decoration:none;text-decoration-line:none;text-decoration-style:solid;text-decoration-color:#000000;letter-spacing:normal;word-spacing:normal;text-transform:none;direction:ltr;block-progression:tb;writing-mode:lr-tb;baseline-shift:baseline;text-anchor:start;white-space:normal;shape-padding:0;clip-rule:nonzero;display:inline;overflow:visible;visibility:visible;opacity:1;isolation:auto;mix-blend-mode:normal;color-interpolation:sRGB;color-interpolation-filters:linearRGB;solid-color:#000000;solid-opacity:1;fill:#000000;fill-opacity:0.23907106;fill-rule:nonzero;stroke:none;stroke-width:1;stroke-linecap:round;stroke-linejoin:round;stroke-miterlimit:4;stroke-dasharray:none;stroke-dashoffset:0;stroke-opacity:1;marker:none;color-rendering:auto;image-rendering:auto;shape-rendering:auto;text-rendering:auto;enable-background:accumulate"
     d="M 3.5,2 C 2.6776486,2 2,2.6776486 2,3.5 l 0,17 C 2,21.322351 2.6776486,22 3.5,22 l 17,0 c 0.822351,0 1.5,-0.677649 1.5,-1.5 l 0,-17 C 22,2.6776486 21.322351,2 20.5,2 l -17,0 z m 0,1 17,0 C 20.785649,3 21,3.2143514 21,3.5 l 0,17 c 0,0.285649 -0.214351,0.5 -0.5,0.5 l -17,0 C 3.2143514,21 3,20.785649 3,20.5 L 3,3.5 C 3,3.2143514 3.2143514,3 3.5,3 Z"
     id="rect7183" />
  <path
     id="path12943-8-8"
     style="opacity:0.07000002;fill:#000000;fill-opacity:1;stroke:#ff0000;stroke-width:0.17190941;stroke-linecap:round;stroke-linejoin:round;stroke-opacity:1"
     d="M 5.8066186,4.7718431 6.0111,5.1126453 6.3007817,5.5897682 c 0,0 0.204933,0.3687147 0.3408011,0.528243 0.099097,0.1163533 0.2073753,0.2321872 0.3408023,0.3067218 0.2636097,0.1472564 0.5728659,0.1968392 0.8690451,0.2556016 0.3697778,0.073365 0.7512797,0.06718 1.124647,0.1192806 0.4282057,0.059753 0.8556256,0.1291952 1.2780078,0.2215214 0.390329,0.08532 0.774725,0.1963646 1.158727,0.3067218 0.331523,0.095275 0.667758,0.1793571 0.988326,0.306722 0.288013,0.1144308 0.564234,0.2581277 0.834965,0.4089623 0.205125,0.1142832 0.391748,0.2597593 0.596403,0.3748822 0.08856,0.049816 0.172983,0.1165161 0.272642,0.1363209 0.156388,0.031078 0.324173,0.010971 0.477122,-0.03408 0.192637,-0.056742 0.355289,-0.1876264 0.528244,-0.2896817 0.173713,-0.1025035 0.318167,-0.2652763 0.511203,-0.3237619 0.228377,-0.069193 0.48239,-0.067218 0.715684,-0.01704 0.15399,0.033121 0.295689,0.1160026 0.426002,0.2044812 0.166276,0.1128955 0.315342,0.2537676 0.443044,0.4089624 0.110179,0.1339007 0.184173,0.2939042 0.272641,0.4430427 0.09345,0.1575426 0.272642,0.4771227 0.272642,0.4771227 l 0.173127,0.2072077 0.201754,0.2187948 c 0,0 0.278225,0.2462983 0.391924,0.3919223 0.142676,0.182738 0.357841,0.596403 0.357841,0.596403 0,0 -0.444581,-0.249443 -0.681605,-0.340802 -0.236605,-0.0912 -0.488482,-0.13632 -0.732723,-0.204481 0,0 -0.192462,-0.03293 -0.289682,-0.03408 -0.182546,-0.0022 -0.545283,0.05112 -0.545283,0.05112 -0.221522,0.01704 -0.375154,2.75e-4 -0.545284,0.06816 -0.249012,0.09937 -0.446496,0.299727 -0.647523,0.477123 -0.234975,0.207352 -0.399776,0.489696 -0.647524,0.681604 -0.138696,0.107435 -0.298142,0.188119 -0.460083,0.255601 -0.169245,0.07053 -0.348289,0.118226 -0.528243,0.153361 -0.162531,0.03173 -0.330477,0.02601 -0.494163,0.05112 -0.280775,0.04307 -0.555344,0.12039 -0.834965,0.170402 -0.294169,0.05261 -0.886085,0.13632 -0.886085,0.13632 l -0.698644,0.05112 c 0,0 0.05158,0.07329 0.0852,0.10224 0.140996,0.121401 0.477123,0.289682 0.477123,0.289682 0,0 0.460082,0.221521 0.528243,0.221521 0.06816,0 0.315897,0.07487 0.477123,0.0852 0.232681,0.01491 0.466255,-0.01515 0.698644,-0.03408 0.199435,-0.01624 0.396942,-0.05225 0.596403,-0.06816 0.124694,-0.0099 0.258258,-0.06227 0.374883,-0.01704 0.08238,0.03195 0.187441,0.187441 0.187441,0.187441 0,0 -0.293199,0.01299 -0.426003,0.06816 -0.07134,0.02964 -0.116007,0.106897 -0.187441,0.136321 -0.138157,0.05691 -0.443042,0.06816 -0.443042,0.06816 0,0 0.795279,0.03241 1.192807,0.05112 0.221567,0.01043 0.456,-0.04143 0.664564,0.03408 0.106815,0.03867 0.272641,0.204482 0.272641,0.204482 0,0 -0.21678,-0.03234 -0.323762,-0.01704 -0.119145,0.01704 -0.222145,0.09912 -0.340802,0.119281 -0.20719,0.03521 -0.42184,0.02521 -0.630484,0 -0.307726,-0.03719 -0.596756,-0.174441 -0.903125,-0.221521 -0.1744,-0.0268 -0.528243,-0.03408 -0.528243,-0.03408 l 0.817925,0.374883 c 0,0 0.384968,0.163378 0.562323,0.272641 0.103495,0.06376 0.209087,0.130523 0.289682,0.221522 0.07428,0.08386 0.238561,0.289682 0.170401,0.289682 -0.06816,0 -1.312088,-0.562324 -1.312088,-0.562324 l -1.141687,-0.494164 c 0,0 -0.361903,-0.208429 -0.562323,-0.255602 -0.154909,-0.03646 -0.318533,-0.03028 -0.477123,-0.01704 -0.225349,0.01882 -0.664564,0.13632 -0.664564,0.13632 l -0.5964033,0.119281 c 0,0 0.142152,-0.17171 0.2385614,-0.221521 0.2474229,-0.127834 0.8179249,-0.170401 0.8179249,-0.170401 0,0 0.210372,-0.03747 0.289682,-0.102241 0.0513,-0.0419 0.10224,-0.170401 0.10224,-0.170401 l -1.124646,-0.528243 c 0,0 -0.5589325,-0.303816 -0.8520054,-0.426003 C 8.8548767,11.846856 8.4585891,11.79029 8.1070323,11.621964 7.9734387,11.558 7.7321503,11.383403 7.7321503,11.383403 l -0.1704018,-0.119281 0.1704018,0.511203 0.4941617,0.800885 0.5112042,0.715684 c 0,0 0.2626627,0.385844 0.4430424,0.528243 0.1495335,0.118049 0.3372044,0.178012 0.5112027,0.255602 0.1839964,0.08205 0.3643987,0.183941 0.5623237,0.221521 0.279017,0.05298 0.568356,-0.01415 0.852005,0 0.171038,0.0085 0.347083,0.0022 0.511203,0.05112 0.153387,0.0457 0.426002,0.221521 0.426002,0.221521 l -0.869045,0 -0.749764,0.01704 c 0,0 0.766343,0.223035 1.141686,0.357842 0.36928,0.13263 0.783742,0.19847 1.090567,0.443042 0.05422,0.04322 0.119281,0.170402 0.119281,0.170402 0,0 -1.214346,-0.27121 -1.806251,-0.460084 -0.330616,-0.105496 -0.9712859,-0.37488 -0.9712859,-0.37488 L 9.4361599,14.518781 c 0,0 0.2833478,0.261997 0.4260025,0.391923 0.3449096,0.314138 0.6899146,0.62822 1.0394466,0.937205 0.168943,0.149346 0.511203,0.443043 0.511203,0.443043 0,0 -0.373283,-0.08867 -0.545284,-0.170402 -0.381339,-0.181196 -1.0564858,-0.698643 -1.0564858,-0.698643 0,0 -0.481843,-0.344615 -0.6986441,-0.545284 C 8.9825717,14.756457 8.8635757,14.62402 8.7545559,14.484702 8.6914512,14.404059 8.6702108,14.284595 8.5841555,14.2291 8.2600459,14.020091 7.785595,14.217714 7.4424687,14.041659 7.3281178,13.982987 7.2489221,13.870321 7.1698267,13.769017 7.1290613,13.716806 7.0675853,13.598616 7.0675853,13.598616 c 0,0 0.6435558,0.148076 0.9712865,0.153361 0.1373645,0.0022 0.4089628,-0.05112 0.4089628,-0.05112 L 7.6469487,12.405809 7.1698267,11.673085 c 0,0 -0.3450113,-0.26416 -0.391923,-0.460083 -0.034004,-0.142019 0.0205,-0.250844 0.1022414,-0.426003 L 6.3689408,9.5771518 c 0,0 -0.1872049,-0.6570371 -0.3919218,-0.9201655 C 5.7928557,8.4202747 5.4958714,8.2986285 5.2613349,8.1117029 5.1919505,8.056404 5.1339304,8.0295779 5.125014,7.941302 5.1103948,7.7965586 5.2132791,7.6880116 5.3294954,7.6005001 5.4474699,7.5116647 5.6109049,7.4712611 5.6873389,7.3448984 5.7807782,6.9168278 5.4639973,6.4649208 5.4658163,6.0157707 5.466779,5.7851185 5.5226289,5.5562005 5.5850975,5.3341666 5.6396602,5.1402347 5.8066186,4.7718431 5.8066186,4.7718431 z"
     inkscape:connector-curvature="0"
     sodipodi:nodetypes="cccaaaaaaaaaaaaaaaaacccacacacaaaaaaaccacsaaaacaacaacaaaaccaasccaaccacaccaacccccaaaaacccaacaccaacacaaaaacacccaccassscaac" />
  <path
     id="path12943-8"
     style="opacity:0.15;fill:#000000;fill-opacity:1;stroke:none"
     d="M 5.8066186,4.7718423 6.0111,5.1126444 6.3007817,5.5897673 c 0,0 0.204933,0.3687148 0.3408011,0.5282431 0.099097,0.1163532 0.2073753,0.2321872 0.3408023,0.3067218 0.2636097,0.1472564 0.5728659,0.1968392 0.8690451,0.2556016 0.3697778,0.073365 0.7512797,0.06718 1.124647,0.1192805 0.4282057,0.059753 0.8556256,0.1291953 1.2780078,0.2215215 0.390329,0.08532 0.774725,0.1963645 1.158727,0.3067218 0.331523,0.095275 0.667758,0.179357 0.988326,0.3067219 0.288013,0.1144309 0.564234,0.2581277 0.834965,0.4089624 0.205125,0.1142831 0.391748,0.2597592 0.596403,0.3748822 0.08856,0.049816 0.172983,0.116516 0.272642,0.1363208 0.156388,0.031078 0.324173,0.010971 0.477122,-0.03408 0.192637,-0.056742 0.355289,-0.1876264 0.528244,-0.2896816 0.173713,-0.1025036 0.318167,-0.2652764 0.511203,-0.323762 0.228377,-0.069193 0.48239,-0.067218 0.715684,-0.01704 0.15399,0.033121 0.295689,0.1160026 0.426002,0.2044813 0.166276,0.1128955 0.315342,0.2537675 0.443044,0.4089623 0.110179,0.1339008 0.184173,0.2939043 0.272641,0.4430427 0.09345,0.1575426 0.272642,0.4771227 0.272642,0.4771227 l 0.173127,0.2072078 0.201754,0.2187948 c 0,0 0.278225,0.2462981 0.391924,0.3919221 0.142676,0.182738 0.357841,0.596404 0.357841,0.596404 0,0 -0.444581,-0.249444 -0.681605,-0.340802 -0.236605,-0.0912 -0.488482,-0.136321 -0.732723,-0.204481 0,0 -0.192462,-0.03293 -0.289682,-0.03408 -0.182546,-0.0022 -0.545283,0.05112 -0.545283,0.05112 -0.221522,0.01704 -0.375154,2.75e-4 -0.545284,0.06816 -0.249012,0.09937 -0.446496,0.299727 -0.647523,0.477123 -0.234975,0.207352 -0.399776,0.489696 -0.647524,0.681604 -0.138696,0.107435 -0.298142,0.188119 -0.460083,0.255601 -0.169245,0.07053 -0.348289,0.118226 -0.528243,0.153361 -0.162531,0.03173 -0.330477,0.02601 -0.494163,0.05112 -0.280775,0.04307 -0.555344,0.120389 -0.834965,0.170401 -0.294169,0.05261 -0.886085,0.136321 -0.886085,0.136321 l -0.698644,0.05112 c 0,0 0.05158,0.07329 0.0852,0.10224 0.140996,0.121401 0.477123,0.289682 0.477123,0.289682 0,0 0.460082,0.221521 0.528243,0.221521 0.06816,0 0.315897,0.07487 0.477123,0.0852 0.232681,0.01491 0.466255,-0.01515 0.698644,-0.03408 0.199435,-0.01624 0.396942,-0.05225 0.596403,-0.06816 0.124694,-0.0099 0.258258,-0.06227 0.374883,-0.01704 0.08238,0.03195 0.187441,0.187441 0.187441,0.187441 0,0 -0.293199,0.01299 -0.426003,0.06816 -0.07134,0.02964 -0.116007,0.106897 -0.187441,0.136321 -0.138157,0.05691 -0.443042,0.06816 -0.443042,0.06816 0,0 0.795279,0.03241 1.192807,0.05112 0.221567,0.01043 0.456,-0.04143 0.664564,0.03408 0.106815,0.03867 0.272641,0.204481 0.272641,0.204481 0,0 -0.21678,-0.03234 -0.323762,-0.01704 -0.119145,0.01704 -0.222145,0.09912 -0.340802,0.119281 -0.20719,0.03521 -0.42184,0.02522 -0.630484,0 -0.307726,-0.03719 -0.596756,-0.17444 -0.903125,-0.221521 -0.1744,-0.0268 -0.528243,-0.03408 -0.528243,-0.03408 l 0.817925,0.374883 c 0,0 0.384968,0.163378 0.562323,0.272641 0.103495,0.06376 0.209087,0.130523 0.289682,0.221522 0.07428,0.08386 0.238561,0.289682 0.170401,0.289682 -0.06816,0 -1.312088,-0.562324 -1.312088,-0.562324 l -1.141687,-0.494164 c 0,0 -0.361903,-0.208429 -0.562323,-0.255602 -0.154909,-0.03646 -0.318533,-0.03028 -0.477123,-0.01704 -0.225349,0.01882 -0.664564,0.136321 -0.664564,0.136321 l -0.5964033,0.11928 c 0,0 0.142152,-0.17171 0.2385614,-0.221521 0.2474229,-0.127834 0.8179249,-0.170401 0.8179249,-0.170401 0,0 0.210372,-0.03747 0.289682,-0.102241 0.0513,-0.0419 0.10224,-0.170401 0.10224,-0.170401 l -1.124646,-0.528243 c 0,0 -0.5589325,-0.303816 -0.8520054,-0.426002 C 8.8548767,11.846855 8.4585891,11.790289 8.1070323,11.621963 7.9734387,11.557999 7.7321503,11.383402 7.7321503,11.383402 l -0.1704018,-0.119281 0.1704018,0.511203 0.4941617,0.800885 0.5112042,0.715684 c 0,0 0.2626627,0.385844 0.4430424,0.528243 0.1495335,0.118049 0.3372044,0.178012 0.5112027,0.255602 0.1839964,0.08205 0.3643987,0.183941 0.5623237,0.221521 0.279017,0.05298 0.568356,-0.01415 0.852005,0 0.171038,0.0085 0.347083,0.0022 0.511203,0.05112 0.153387,0.0457 0.426002,0.221521 0.426002,0.221521 l -0.869045,0 -0.749764,0.01704 c 0,0 0.766343,0.223036 1.141686,0.357842 0.36928,0.13263 0.783742,0.19847 1.090567,0.443042 0.05422,0.04322 0.119281,0.170402 0.119281,0.170402 0,0 -1.214346,-0.27121 -1.806251,-0.460084 C 10.639153,14.992646 9.9984831,14.723262 9.9984831,14.723262 L 9.4361599,14.51878 c 0,0 0.2833478,0.261997 0.4260025,0.391923 0.3449096,0.314138 0.6899146,0.62822 1.0394466,0.937205 0.168943,0.149346 0.511203,0.443043 0.511203,0.443043 0,0 -0.373283,-0.08867 -0.545284,-0.170402 -0.381339,-0.181196 -1.0564858,-0.698643 -1.0564858,-0.698643 0,0 -0.481843,-0.344615 -0.6986441,-0.545283 C 8.9825717,14.756456 8.8635757,14.624019 8.7545559,14.484701 8.6914512,14.404058 8.6702108,14.284594 8.5841555,14.229099 8.2600459,14.02009 7.785595,14.217713 7.4424687,14.041658 7.3281178,13.982986 7.2489221,13.87032 7.1698267,13.769016 7.1290613,13.716805 7.0675853,13.598615 7.0675853,13.598615 c 0,0 0.6435558,0.148077 0.9712865,0.153361 0.1373645,0.0022 0.4089628,-0.05112 0.4089628,-0.05112 L 7.6469487,12.405808 7.1698267,11.673084 c 0,0 -0.3450113,-0.264159 -0.391923,-0.460083 -0.034004,-0.142019 0.0205,-0.250844 0.1022414,-0.426003 L 6.3689408,9.5771509 c 0,0 -0.1872049,-0.6570371 -0.3919218,-0.9201654 C 5.7928557,8.4202738 5.4958714,8.2986276 5.2613349,8.1117021 5.1919505,8.0564031 5.1339304,8.029577 5.125014,7.9413012 5.1103948,7.7965577 5.2132791,7.6880107 5.3294954,7.6004992 5.4474699,7.5116638 5.6109049,7.4712603 5.6873389,7.3448976 5.7807782,6.916827 5.4639973,6.46492 5.4658163,6.0157698 5.466779,5.7851176 5.5226289,5.5561996 5.5850975,5.3341657 5.6396602,5.1402338 5.8066186,4.7718423 5.8066186,4.7718423 z"
     inkscape:connector-curvature="0"
     sodipodi:nodetypes="cccaaaaaaaaaaaaaaaaacccacacacaaaaaaaccacsaaaacaacaacaaaaccaasccaaccacaccaacccccaaaaacccaacaccaacacaaaaacacccaccassscaac" />
  <path
     id="path12943"
     style="fill:url(#radialGradient10916);fill-opacity:1;stroke:none"
     d="M 5.8066186,4.6000001 6.0111,4.9408022 6.3007817,5.4179251 c 0,0 0.204933,0.3687148 0.3408011,0.5282431 0.099097,0.1163533 0.2073753,0.2321872 0.3408023,0.3067218 0.2636097,0.1472564 0.5728659,0.1968392 0.8690451,0.2556016 0.3697778,0.073365 0.7512797,0.06718 1.124647,0.1192805 0.4282057,0.059753 0.8556256,0.1291953 1.2780078,0.2215215 0.390329,0.08532 0.774725,0.1963645 1.158727,0.3067218 0.331523,0.095275 0.667758,0.179357 0.988326,0.306722 0.288013,0.1144308 0.564234,0.2581276 0.834965,0.4089623 0.205125,0.1142831 0.391748,0.2597592 0.596403,0.3748822 0.08856,0.049815 0.172983,0.116516 0.272642,0.1363209 0.156388,0.031078 0.324173,0.010971 0.477122,-0.03408 0.192637,-0.056742 0.355289,-0.1876264 0.528244,-0.2896816 0.173713,-0.1025036 0.318167,-0.2652764 0.511203,-0.323762 0.228377,-0.069193 0.48239,-0.067218 0.715684,-0.01704 0.15399,0.033121 0.295689,0.1160026 0.426002,0.2044813 0.166276,0.1128955 0.315342,0.2537675 0.443044,0.4089623 0.110179,0.1339008 0.184173,0.2939043 0.272641,0.4430427 0.09345,0.1575426 0.272642,0.4771227 0.272642,0.4771227 l 0.173127,0.2072078 0.201754,0.2187948 c 0,0 0.278225,0.2462982 0.391924,0.3919223 0.142676,0.182737 0.357841,0.596403 0.357841,0.596403 0,0 -0.444581,-0.249443 -0.681605,-0.340802 -0.236605,-0.0912 -0.488482,-0.13632 -0.732723,-0.204481 0,0 -0.192462,-0.03293 -0.289682,-0.03408 -0.182546,-0.0022 -0.545283,0.05112 -0.545283,0.05112 -0.221522,0.01704 -0.375154,2.75e-4 -0.545284,0.06816 -0.249012,0.09937 -0.446496,0.299727 -0.647523,0.477123 -0.234975,0.207352 -0.399776,0.489696 -0.647524,0.681604 -0.138696,0.107435 -0.298142,0.188119 -0.460083,0.255601 -0.169245,0.07053 -0.348289,0.118226 -0.528243,0.153361 -0.162531,0.03173 -0.330477,0.02601 -0.494163,0.05112 -0.280775,0.04307 -0.555344,0.12039 -0.834965,0.170402 -0.294169,0.05261 -0.886085,0.13632 -0.886085,0.13632 l -0.698644,0.05112 c 0,0 0.05158,0.07329 0.0852,0.10224 0.140996,0.121401 0.477123,0.289682 0.477123,0.289682 0,0 0.460082,0.221521 0.528243,0.221521 0.06816,0 0.315897,0.07487 0.477123,0.0852 0.232681,0.01491 0.466255,-0.01515 0.698644,-0.03408 0.199435,-0.01624 0.396942,-0.05225 0.596403,-0.06816 0.124694,-0.0099 0.258258,-0.06227 0.374883,-0.01704 0.08238,0.03195 0.187441,0.187441 0.187441,0.187441 0,0 -0.293199,0.01299 -0.426003,0.06816 -0.07134,0.02964 -0.116007,0.106897 -0.187441,0.136321 -0.138157,0.05691 -0.443042,0.06816 -0.443042,0.06816 0,0 0.795279,0.03241 1.192807,0.05112 0.221567,0.01043 0.456,-0.04143 0.664564,0.03408 0.106815,0.03867 0.272641,0.204482 0.272641,0.204482 0,0 -0.21678,-0.03234 -0.323762,-0.01704 -0.119145,0.01704 -0.222145,0.09912 -0.340802,0.119281 -0.20719,0.03521 -0.42184,0.02521 -0.630484,0 -0.307726,-0.03719 -0.596756,-0.174441 -0.903125,-0.221522 -0.1744,-0.0268 -0.528243,-0.03408 -0.528243,-0.03408 l 0.817925,0.374882 c 0,0 0.384968,0.163379 0.562323,0.272642 0.103495,0.06376 0.209087,0.130523 0.289682,0.221522 0.07428,0.08387 0.238561,0.289682 0.170401,0.289682 -0.06816,0 -1.312088,-0.562324 -1.312088,-0.562324 l -1.141687,-0.494164 c 0,0 -0.361903,-0.208429 -0.562323,-0.255602 -0.154909,-0.03646 -0.318533,-0.03028 -0.477123,-0.01704 -0.225349,0.01882 -0.664564,0.13632 -0.664564,0.13632 l -0.5964033,0.119281 c 0,0 0.142152,-0.17171 0.2385614,-0.221521 0.2474229,-0.127834 0.8179249,-0.170401 0.8179249,-0.170401 0,0 0.210372,-0.03747 0.289682,-0.102241 0.0513,-0.0419 0.10224,-0.170401 0.10224,-0.170401 l -1.124646,-0.528243 c 0,0 -0.5589325,-0.303816 -0.8520054,-0.426003 C 8.8548767,11.675013 8.4585891,11.618447 8.1070323,11.450121 7.9734387,11.386157 7.7321503,11.21156 7.7321503,11.21156 l -0.1704018,-0.119281 0.1704018,0.511203 0.4941617,0.800885 0.5112042,0.715684 c 0,0 0.2626627,0.385844 0.4430424,0.528243 0.1495335,0.118049 0.3372044,0.178012 0.5112027,0.255602 0.1839964,0.08205 0.3643987,0.183941 0.5623237,0.221521 0.279017,0.05298 0.568356,-0.01415 0.852005,0 0.171038,0.0085 0.347083,0.0022 0.511203,0.05112 0.153387,0.0457 0.426002,0.221522 0.426002,0.221522 l -0.869045,0 -0.749764,0.01704 c 0,0 0.766343,0.223035 1.141686,0.357842 0.36928,0.13263 0.783742,0.19847 1.090567,0.443042 0.05422,0.04322 0.119281,0.170402 0.119281,0.170402 0,0 -1.214346,-0.27121 -1.806251,-0.460084 C 10.639153,14.820804 9.9984831,14.55142 9.9984831,14.55142 L 9.4361599,14.346938 c 0,0 0.2833478,0.261997 0.4260025,0.391923 0.3449096,0.314138 0.6899146,0.62822 1.0394466,0.937205 0.168943,0.149346 0.511203,0.443043 0.511203,0.443043 0,0 -0.373283,-0.08867 -0.545284,-0.170402 -0.381339,-0.181196 -1.0564858,-0.698643 -1.0564858,-0.698643 0,0 -0.481843,-0.344615 -0.6986441,-0.545284 C 8.9825717,14.584614 8.8635757,14.452177 8.7545559,14.312859 8.6914512,14.232216 8.6702108,14.112752 8.5841555,14.057257 8.2600459,13.848248 7.785595,14.045871 7.4424687,13.869816 7.3281178,13.811144 7.2489221,13.698478 7.1698267,13.597174 7.1290613,13.544963 7.0675853,13.426773 7.0675853,13.426773 c 0,0 0.6435558,0.148076 0.9712865,0.153361 0.1373645,0.0022 0.4089628,-0.05112 0.4089628,-0.05112 L 7.6469487,12.233966 7.1698267,11.501242 c 0,0 -0.3450113,-0.26416 -0.391923,-0.460083 -0.034004,-0.142019 0.0205,-0.250844 0.1022414,-0.426003 L 6.3689408,9.4053087 c 0,0 -0.1872049,-0.6570371 -0.3919218,-0.9201654 C 5.7928557,8.2484316 5.4958714,8.1267854 5.2613349,7.9398599 5.1919505,7.8845609 5.1339304,7.8577348 5.125014,7.769459 5.1103948,7.6247156 5.2132791,7.5161685 5.3294954,7.428657 5.4474699,7.3398216 5.6109049,7.2994181 5.6873389,7.1730554 5.7807782,6.7449848 5.4639973,6.2930778 5.4658163,5.8439276 5.466779,5.6132754 5.5226289,5.3843574 5.5850975,5.1623235 5.6396602,4.9683916 5.8066186,4.6000001 5.8066186,4.6000001 z"
     inkscape:connector-curvature="0"
     sodipodi:nodetypes="cccaaaaaaaaaaaaaaaaacccacacacaaaaaaaccacsaaaacaacaacaaaaccaasccaaccacaccaacccccaaaaacccaacaccaacacaaaaacacccaccassscaac" />
  <path
     inkscape:connector-curvature="0"
     style="color:#000000;fill:#ffffff;fill-opacity:1;fill-rule:evenodd;stroke:none;stroke-width:0.33830979;marker:none;visibility:visible;display:inline;overflow:visible;enable-background:accumulate"
     id="path4356-7-6-7-6-1-5-9"
     d="m 17.378932,18.541312 a 0.85954705,0.85954705 0 0 1 -1.719093,0 0.85954705,0.85954705 0 1 1 1.719093,0 z" />
  <path
     inkscape:connector-curvature="0"
     style="opacity:0.6;color:#000000;fill:#008000;fill-opacity:1;fill-rule:evenodd;stroke:none;stroke-width:0.33830979;marker:none;visibility:visible;display:inline;overflow:visible;enable-background:accumulate"
     id="path4356-8-9-9-8-7-6"
     d="m 17.378932,18.36957 a 0.85954705,0.85954705 0 0 1 -1.719093,0 0.85954705,0.85954705 0 1 1 1.719093,0 z" />
  <path
     inkscape:connector-curvature="0"
     style="color:#000000;fill:#ffffff;fill-opacity:1;fill-rule:evenodd;stroke:none;stroke-width:0.33830979;marker:none;visibility:visible;display:inline;overflow:visible;enable-background:accumulate"
     id="path4356-7-6-7-6-1-5-3-7"
     d="m 19.638624,17.509856 a 0.85954705,0.85954705 0 0 1 -1.719092,0 0.85954705,0.85954705 0 1 1 1.719092,0 z" />
  <path
     inkscape:connector-curvature="0"
     style="opacity:0.6;color:#000000;fill:#008000;fill-opacity:1;fill-rule:evenodd;stroke:none;stroke-width:0.33830979;marker:none;visibility:visible;display:inline;overflow:visible;enable-background:accumulate"
     id="path4356-8-9-9-8-7-3-1"
     d="m 19.638624,17.338113 a 0.85954705,0.85954705 0 0 1 -1.719092,0 0.85954705,0.85954705 0 1 1 1.719092,0 z" />
  <path
     inkscape:connector-curvature="0"
     style="color:#000000;fill:#ffffff;fill-opacity:1;fill-rule:evenodd;stroke:none;stroke-width:0.33830979;marker:none;visibility:visible;display:inline;overflow:visible;enable-background:accumulate"
     id="path4356-7-6-7-6-1-5-1-7-2"
     d="m 15.119241,17.509856 a 0.85954705,0.85954705 0 0 1 -1.719093,0 0.85954705,0.85954705 0 1 1 1.719093,0 z" />
  <path
     inkscape:connector-curvature="0"
     style="opacity:0.6;color:#000000;fill:#008000;fill-opacity:1;fill-rule:evenodd;stroke:none;stroke-width:0.33830979;marker:none;visibility:visible;display:inline;overflow:visible;enable-background:accumulate"
     id="path4356-8-9-9-8-7-8-6-3"
     d="m 15.119241,17.338113 a 0.85954705,0.85954705 0 0 1 -1.719093,0 0.85954705,0.85954705 0 1 1 1.719093,0 z" />
  <path
     inkscape:connector-curvature="0"
     style="color:#000000;fill:#ffffff;fill-opacity:1;fill-rule:evenodd;stroke:none;stroke-width:0.33830979;marker:none;visibility:visible;display:inline;overflow:visible;enable-background:accumulate"
     id="path4356-7-6-7-6-1-5"
     d="m 8.3401626,18.541312 a 0.85954705,0.85954705 0 0 1 -1.7190932,0 0.85954705,0.85954705 0 1 1 1.7190932,0 z" />
  <path
     inkscape:connector-curvature="0"
     style="opacity:0.6;color:#000000;fill:#008000;fill-opacity:1;fill-rule:evenodd;stroke:none;stroke-width:0.33830979;marker:none;visibility:visible;display:inline;overflow:visible;enable-background:accumulate"
     id="path4356-8-9-9-8-7"
     d="m 8.3401626,18.36957 a 0.85954705,0.85954705 0 0 1 -1.7190932,0 0.85954705,0.85954705 0 1 1 1.7190932,0 z" />
  <path
     inkscape:connector-curvature="0"
     style="color:#000000;fill:#ffffff;fill-opacity:1;fill-rule:evenodd;stroke:none;stroke-width:0.33830979;marker:none;visibility:visible;display:inline;overflow:visible;enable-background:accumulate"
     id="path4356-7-6-7-6-1-5-1"
     d="m 12.859548,18.541312 a 0.85954705,0.85954705 0 0 1 -1.719093,0 0.85954705,0.85954705 0 1 1 1.719093,0 z" />
  <path
     inkscape:connector-curvature="0"
     style="opacity:0.6;color:#000000;fill:#008000;fill-opacity:1;fill-rule:evenodd;stroke:none;stroke-width:0.33830979;marker:none;visibility:visible;display:inline;overflow:visible;enable-background:accumulate"
     id="path4356-8-9-9-8-7-8"
     d="m 12.859548,18.36957 a 0.85954705,0.85954705 0 0 1 -1.719093,0 0.85954705,0.85954705 0 1 1 1.719093,0 z" />
  <path
     inkscape:connector-curvature="0"
     style="color:#000000;fill:#ffffff;fill-opacity:1;fill-rule:evenodd;stroke:none;stroke-width:0.33830979;marker:none;visibility:visible;display:inline;overflow:visible;enable-background:accumulate"
     id="path4356-7-6-7-6-1-5-3"
     d="m 10.599855,17.509856 a 0.85954705,0.85954705 0 0 1 -1.7190932,0 0.85954705,0.85954705 0 1 1 1.7190932,0 z" />
  <path
     inkscape:connector-curvature="0"
     style="opacity:0.6;color:#000000;fill:#008000;fill-opacity:1;fill-rule:evenodd;stroke:none;stroke-width:0.33830979;marker:none;visibility:visible;display:inline;overflow:visible;enable-background:accumulate"
     id="path4356-8-9-9-8-7-3"
     d="m 10.599855,17.338113 a 0.85954705,0.85954705 0 0 1 -1.7190932,0 0.85954705,0.85954705 0 1 1 1.7190932,0 z" />
  <path
     inkscape:connector-curvature="0"
     style="color:#000000;fill:#ffffff;fill-opacity:1;fill-rule:evenodd;stroke:none;stroke-width:0.33830979;marker:none;visibility:visible;display:inline;overflow:visible;enable-background:accumulate"
     id="path4356-7-6-7-6-1-5-1-7"
     d="m 6.0804686,17.509856 a 0.85954705,0.85954705 0 0 1 -1.7190933,0 0.85954705,0.85954705 0 1 1 1.7190933,0 z" />
  <path
     inkscape:connector-curvature="0"
     style="opacity:0.6;color:#000000;fill:#008000;fill-opacity:1;fill-rule:evenodd;stroke:none;stroke-width:0.33830979;marker:none;visibility:visible;display:inline;overflow:visible;enable-background:accumulate"
     id="path4356-8-9-9-8-7-8-6"
     d="m 6.0804686,17.338113 a 0.85954705,0.85954705 0 0 1 -1.7190933,0 0.85954705,0.85954705 0 1 1 1.7190933,0 z" />
</svg>
