<?xml version="1.0" encoding="UTF-8" standalone="no"?>
<!-- Created with Inkscape (http://www.inkscape.org/) -->

<svg
   xmlns:dc="http://purl.org/dc/elements/1.1/"
   xmlns:cc="http://creativecommons.org/ns#"
   xmlns:rdf="http://www.w3.org/1999/02/22-rdf-syntax-ns#"
   xmlns:svg="http://www.w3.org/2000/svg"
   xmlns="http://www.w3.org/2000/svg"
   xmlns:xlink="http://www.w3.org/1999/xlink"
   xmlns:sodipodi="http://sodipodi.sourceforge.net/DTD/sodipodi-0.dtd"
   xmlns:inkscape="http://www.inkscape.org/namespaces/inkscape"
   width="128"
   height="128"
   id="svg2"
   version="1.1"
   inkscape:version="0.48.4 r9939"
   sodipodi:docname="clementine.svg">
  <sodipodi:namedview
     id="base"
     pagecolor="#ffffff"
     bordercolor="#666666"
     borderopacity="1.0"
     inkscape:pageopacity="0"
     inkscape:pageshadow="2"
     inkscape:zoom="2.86"
     inkscape:cx="132.39943"
     inkscape:cy="79.242089"
     inkscape:document-units="px"
     inkscape:current-layer="layer2"
     showgrid="true"
     showguides="false"
     inkscape:snap-global="true"
     inkscape:snap-to-guides="false"
     inkscape:snap-page="false"
     inkscape:snap-nodes="false"
     inkscape:window-width="1366"
     inkscape:window-height="713"
     inkscape:window-x="0"
     inkscape:window-y="30"
     inkscape:window-maximized="1"
     inkscape:snap-bbox="false"
     inkscape:snap-grids="false">
    <inkscape:grid
       type="xygrid"
       id="grid2985"
       empspacing="10"
       visible="true"
       enabled="true"
       snapvisiblegridlinesonly="true"
       spacingy="0.05"
       spacingx="0.05" />
    <sodipodi:guide
       position="0,0"
       orientation="0,128"
       id="guide2987" />
    <sodipodi:guide
       position="128,0"
       orientation="-128,0"
       id="guide2989" />
    <sodipodi:guide
       position="128,128"
       orientation="0,-128"
       id="guide2991" />
    <sodipodi:guide
       position="0,128"
       orientation="128,0"
       id="guide2993" />
  </sodipodi:namedview>
  <defs
     id="defs4">
    <linearGradient
       id="linearGradient4015">
      <stop
         style="stop-color:#000000;stop-opacity:0;"
         offset="0"
         id="stop4017" />
      <stop
         id="stop4019"
         offset="0"
         style="stop-color:#000000;stop-opacity:0.23529412;" />
      <stop
         style="stop-color:#000000;stop-opacity:0;"
         offset="1"
         id="stop4021" />
    </linearGradient>
    <linearGradient
       id="linearGradient4007">
      <stop
         style="stop-color:#000000;stop-opacity:1;"
         offset="0"
         id="stop4009" />
      <stop
         style="stop-color:#000000;stop-opacity:0"
         offset="1"
         id="stop4011" />
    </linearGradient>
    <linearGradient
       id="linearGradient3999">
      <stop
         id="stop4001"
         offset="0"
         style="stop-color:#000000;stop-opacity:0;" />
      <stop
         style="stop-color:#000000;stop-opacity:0.23529412;"
         offset="0.00000137"
         id="stop4003" />
      <stop
         id="stop4005"
         offset="1"
         style="stop-color:#000000;stop-opacity:0;" />
    </linearGradient>
    <linearGradient
       id="linearGradient3991">
      <stop
         id="stop3993"
         offset="0"
         style="stop-color:#000000;stop-opacity:0;" />
      <stop
         style="stop-color:#000000;stop-opacity:0.23529412;"
         offset="0.50517088"
         id="stop3995" />
      <stop
         id="stop3997"
         offset="1"
         style="stop-color:#000000;stop-opacity:0;" />
    </linearGradient>
    <linearGradient
       id="linearGradient3893">
      <stop
         style="stop-color:#000000;stop-opacity:0;"
         offset="0"
         id="stop3895" />
      <stop
         id="stop3901"
         offset="0.5"
         style="stop-color:#000000;stop-opacity:0.23529412;" />
      <stop
         style="stop-color:#000000;stop-opacity:0;"
         offset="1"
         id="stop3897" />
    </linearGradient>
    <linearGradient
       inkscape:collect="always"
       xlink:href="#linearGradient3893-3"
       id="linearGradient3899-7"
       x1="19"
       y1="117.50015"
       x2="109"
       y2="117.50015"
       gradientUnits="userSpaceOnUse" />
    <linearGradient
       id="linearGradient3893-3">
      <stop
         style="stop-color:#000000;stop-opacity:0;"
         offset="0"
         id="stop3895-0" />
      <stop
         id="stop3901-4"
         offset="0.5"
         style="stop-color:#000000;stop-opacity:0.23529412;" />
      <stop
         style="stop-color:#000000;stop-opacity:0;"
         offset="1"
         id="stop3897-5" />
    </linearGradient>
    <linearGradient
       inkscape:collect="always"
       xlink:href="#linearGradient3991"
       id="linearGradient3950"
       x1="65.360306"
       y1="125.22649"
       x2="65.360306"
       y2="119.97504"
       gradientUnits="userSpaceOnUse"
       gradientTransform="matrix(1.1740484,0,0,1.0281818,-11.584774,-7.3596232)" />
    <linearGradient
       inkscape:collect="always"
       xlink:href="#linearGradient3893-3-1"
       id="linearGradient3950-3"
       x1="25.198938"
       y1="122.69496"
       x2="101.85676"
       y2="122.69496"
       gradientUnits="userSpaceOnUse"
       gradientTransform="matrix(1.1740484,0,0,1.7136363,-11.584774,-94.754544)" />
    <linearGradient
       id="linearGradient3893-3-1">
      <stop
         style="stop-color:#000000;stop-opacity:0;"
         offset="0"
         id="stop3895-0-6" />
      <stop
         id="stop3901-4-5"
         offset="0.5"
         style="stop-color:#000000;stop-opacity:0.23529412;" />
      <stop
         style="stop-color:#000000;stop-opacity:0;"
         offset="1"
         id="stop3897-5-5" />
    </linearGradient>
    <radialGradient
       inkscape:collect="always"
       xlink:href="#linearGradient4015"
       id="radialGradient4013"
       cx="1.8038398"
       cy="117.54263"
       fx="1.8038398"
       fy="117.54263"
       r="5"
       gradientTransform="matrix(1.9827603,3.6679731e-8,-1.0788098e-8,0.58316166,-21.511998,-187.31079)"
       gradientUnits="userSpaceOnUse" />
    <radialGradient
       inkscape:collect="always"
       xlink:href="#linearGradient4015-6"
       id="radialGradient4013-0"
       cx="1.8038398"
       cy="117.54263"
       fx="1.8038398"
       fy="117.54263"
       r="5"
       gradientTransform="matrix(1.9827603,3.6679731e-8,-1.0788098e-8,0.58316166,-21.511998,-186.01767)"
       gradientUnits="userSpaceOnUse" />
    <linearGradient
       id="linearGradient4015-6">
      <stop
         style="stop-color:#000000;stop-opacity:0;"
         offset="0"
         id="stop4017-7" />
      <stop
         id="stop4019-7"
         offset="0"
         style="stop-color:#000000;stop-opacity:0.23529412;" />
      <stop
         style="stop-color:#000000;stop-opacity:0;"
         offset="1"
         id="stop4021-8" />
    </linearGradient>
    <radialGradient
       r="5"
       fy="117.54263"
       fx="1.8038398"
       cy="117.54263"
       cx="1.8038398"
       gradientTransform="matrix(1.9827603,3.6679731e-8,-1.0788098e-8,0.58316166,104.488,-187.31079)"
       gradientUnits="userSpaceOnUse"
       id="radialGradient4039"
       xlink:href="#linearGradient4015-6"
       inkscape:collect="always" />
    <filter
       color-interpolation-filters="sRGB"
       id="filter7217-8"
       inkscape:label="Drop Shadow">
      <feFlood
         id="feFlood7219-2"
         flood-opacity="0.3"
         flood-color="rgb(0,0,0)"
         result="flood" />
      <feComposite
         id="feComposite7221-5"
         in2="SourceGraphic"
         in="flood"
         operator="in"
         result="composite1" />
      <feGaussianBlur
         id="feGaussianBlur7223-6"
         stdDeviation="1"
         result="blur" />
      <feOffset
         id="feOffset7225-3"
         dx="-1"
         dy="-1"
         result="offset" />
      <feComposite
         id="feComposite7227-3"
         in2="offset"
         in="SourceGraphic"
         operator="over"
         result="composite2" />
    </filter>
  </defs>
  <metadata
     id="metadata7">
    <rdf:RDF>
      <cc:Work
         rdf:about="">
        <dc:format>image/svg+xml</dc:format>
        <dc:type
           rdf:resource="http://purl.org/dc/dcmitype/StillImage" />
        <dc:title />
      </cc:Work>
    </rdf:RDF>
  </metadata>
  <g
     inkscape:groupmode="layer"
     id="layer6"
     inkscape:label="bottom shadow"
     style="display:inline"
     sodipodi:insensitive="true">
    <rect
       style="opacity:0.6;fill:url(#linearGradient3950);fill-opacity:1;stroke:none"
       id="rect3942"
       width="90"
       height="6"
       x="18"
       y="115.7931" />
    <rect
       style="opacity:0.6;fill:url(#radialGradient4013);fill-opacity:1;stroke:none"
       id="rect3942-1"
       width="10"
       height="6"
       x="-18"
       y="-121.7931"
       ry="0"
       transform="scale(-1,-1)" />
    <rect
       style="opacity:0.6;fill:url(#radialGradient4039);fill-opacity:1;stroke:none"
       id="rect3942-1-5"
       width="10"
       height="6"
       x="108"
       y="-121.7931"
       ry="0"
       transform="scale(1,-1)" />
  </g>
  <g
     inkscape:groupmode="layer"
     id="layer3"
     inkscape:label="square"
     style="display:inline"
     sodipodi:insensitive="true">
    <rect
       style="fill:#e8ac44;fill-opacity:1;stroke:#dc9600;stroke-width:0.99988151;stroke-linecap:round;stroke-linejoin:round;stroke-miterlimit:1;stroke-opacity:1;stroke-dasharray:none"
       id="rect3810"
       width="107.00012"
       height="93.000122"
       x="10.49994"
       y="24.499941"
       ry="3.4482758" />
  </g>
  <g
     inkscape:groupmode="layer"
     id="layer4"
     inkscape:label="square outter shadow"
     style="display:inline"
     sodipodi:insensitive="true">
    <rect
       style="fill:none;stroke:#9a6900;stroke-width:1.00007546;stroke-linecap:round;stroke-linejoin:round;stroke-miterlimit:1;stroke-opacity:0.48235294;stroke-dasharray:none"
       id="rect3810-1"
       width="108.99992"
       height="94.999924"
       x="9.5000381"
       y="23.500038"
       ry="4.5258622" />
  </g>
  <g
     inkscape:groupmode="layer"
     id="layer5"
     inkscape:label="square inner highlight"
     style="display:inline"
     sodipodi:insensitive="true">
    <rect
       style="fill:none;stroke:#ffb518;stroke-width:0.99960476;stroke-linecap:round;stroke-linejoin:round;stroke-miterlimit:1;stroke-opacity:0.48235294;stroke-dasharray:none"
       id="rect3810-1-7"
       width="105.0004"
       height="91.000397"
       x="11.499803"
       y="25.499802"
       ry="2.5862069" />
  </g>
  <g
     inkscape:groupmode="layer"
     id="g4995"
     inkscape:label="icon second shadow"
     style="display:inline;opacity:0.07">
    <path
       style="fill:#000000"
       d=""
       id="path4997"
       inkscape:connector-curvature="0" />
    <g
       id="g4999"
       transform="translate(-19.999999,1.0003242)"
       style="fill:#000000;stroke:#000000;stroke-opacity:1;stroke-linejoin:round;stroke-linecap:round">
      <path
         inkscape:connector-curvature="0"
         id="path5001"
         d="m 61.737233,79.194472 c -0.267306,-0.286919 -0.486011,-0.623802 -0.486011,-0.748625 0,-0.124823 -0.139769,-0.391026 -0.310597,-0.591561 -1.508128,-1.77038 -2.271741,-8.023354 -1.398292,-11.450149 0.194259,-0.762131 0.435253,-1.704938 0.535544,-2.095128 0.10029,-0.390189 0.493636,-1.273568 0.874101,-1.963064 l 0.691755,-1.253629 1.1317,0.05532 c 1.312015,0.06414 3.092667,0.422493 4.249508,0.855208 0.879277,0.328893 3.199589,1.048267 4.849924,1.503637 0.571598,0.157718 1.219896,0.380662 1.440663,0.495429 0.220766,0.114768 1.519853,0.576281 2.886859,1.025585 1.367007,0.449305 2.69332,0.901331 2.947364,1.004504 0.254044,0.103173 0.818547,0.305157 1.254452,0.448853 1.17242,0.386492 0.54958,-0.08575 -0.821476,-0.622845 -0.651016,-0.255027 -1.638322,-0.665865 -2.194013,-0.912973 -0.555691,-0.247108 -1.374092,-0.584251 -1.818669,-0.749207 -1.746558,-0.648044 -7.362593,-3.198678 -8.919313,-4.050884 -3.143855,-1.721063 -3.28878,-1.984849 -2.349195,-4.275917 1.586735,-3.869072 5.033606,-7.247798 8.627577,-8.45701 3.675625,-1.236686 4.089814,-1.239159 4.837272,-0.02888 1.191783,1.929723 1.763401,2.901216 2.019337,3.43196 0.153132,0.317554 0.33792,0.629335 0.41063,0.692846 0.0727,0.06351 0.32491,0.531182 0.56044,1.039269 0.23553,0.508088 0.91645,1.963065 1.51316,3.233283 0.59671,1.270218 1.36396,2.933049 1.705,3.69518 0.34105,0.762131 0.71996,1.566155 0.84204,1.786719 0.12207,0.220565 0.22195,0.507497 0.22195,0.637627 0,0.130129 0.20123,0.677156 0.44719,1.215614 0.62903,1.377134 1.16945,2.736401 1.16945,2.941416 0,0.09563 -0.32585,0.239047 -0.72413,0.318701 -0.39826,0.07965 -0.95575,0.414391 -1.23886,0.74386 -0.49894,0.580659 -0.5366,0.587729 -1.22747,0.230467 -0.82476,-0.426503 -0.96661,-0.448893 -0.96661,-0.152569 0,0.1188 0.36374,0.347531 0.80832,0.508292 0.76424,0.276356 0.80794,0.349576 0.80145,1.342904 l -0.007,1.050612 -1.43657,0.717154 c -0.79012,0.394433 -2.89155,1.449037 -4.669856,2.343562 -3.500244,1.760698 -7.532036,3.693953 -9.007001,4.318887 -0.508088,0.215272 -1.235576,0.525025 -1.616642,0.688338 -2.310904,0.990382 -3.003781,1.222366 -4.190701,1.403099 -0.806316,0.122777 -1.034123,0.06345 -1.44343,-0.375885 l 0,0 z m 20.53033,-12.089363 c 0,-0.05904 -0.20786,-0.218589 -0.4619,-0.354549 -0.27835,-0.148969 -0.4619,-0.158927 -0.4619,-0.02506 0,0.122178 0.18187,0.269669 0.40416,0.327759 0.22229,0.05809 0.43014,0.117674 0.4619,0.132408 0.0318,0.01474 0.0577,-0.02152 0.0577,-0.08056 z"
         style="fill:#000000;fill-opacity:1;stroke:#000000;stroke-opacity:1;stroke-linejoin:round;stroke-linecap:round" />
      <path
         inkscape:connector-curvature="0"
         id="path5003"
         d="m 75.108148,93.607712 c -1.809577,-0.586027 -4.64024,-1.738625 -4.923515,-2.004773 -0.150058,-0.140985 -0.53265,-0.390091 -0.850204,-0.553569 -0.810346,-0.417169 -2.349163,-1.861643 -3.004795,-2.820575 -0.303961,-0.444576 -0.617916,-0.860284 -0.697676,-0.923795 -0.07976,-0.06351 -0.410266,-0.687073 -0.734456,-1.385693 -1.638222,-3.530315 -1.616858,-3.621917 1.300516,-5.576269 1.259987,-0.844067 2.818891,-1.818645 3.464231,-2.165731 0.645341,-0.347085 1.22531,-0.695755 1.288821,-0.774821 0.06351,-0.07907 0.819906,-0.500019 1.680878,-0.935451 0.860971,-0.435431 1.900241,-0.999634 2.309487,-1.253782 0.409247,-0.254149 1.523537,-0.853441 2.4762,-1.33176 0.952664,-0.478319 2.09586,-1.069445 2.540437,-1.313615 1.566461,-0.86033 4.182271,-2.122138 4.399321,-2.122138 0.12081,0 0.21965,0.130891 0.21965,0.290869 0,0.159979 0.20786,0.420677 0.4619,0.579329 0.25405,0.158653 0.4619,0.430992 0.4619,0.605198 0,0.174205 -0.41808,1.550356 -0.92907,3.058113 -0.51099,1.507758 -1.02177,3.053158 -1.13507,3.434224 -0.1133,0.381065 -0.56484,1.680152 -1.00343,2.886859 -0.43859,1.206707 -1.07846,2.973465 -1.42193,3.926129 -0.34347,0.952664 -0.87686,2.280573 -1.185308,2.95091 -0.308445,0.670337 -0.56081,1.27292 -0.56081,1.339074 0,0.06615 -0.46212,1.102583 -1.026934,2.303174 -1.140315,2.423899 -1.149915,2.429384 -3.130143,1.788093 z"
         style="fill:#000000;fill-opacity:1;stroke:#000000;stroke-opacity:1;stroke-linejoin:round;stroke-linecap:round" />
      <path
         inkscape:connector-curvature="0"
         id="path5005"
         d="m 81.574713,101.27222 c -2.595016,-0.37772 -3.419102,-0.54784 -4.388026,-0.9058 -0.444577,-0.16425 -1.224029,-0.423066 -1.732116,-0.57515 -1.028612,-0.307892 -1.38219,-0.447563 -2.88686,-1.14037 -4.332857,-1.995011 -8.322623,-5.089076 -11.202567,-8.687597 -0.507233,-0.633795 -1.104045,-1.354824 -1.326248,-1.602285 -0.222203,-0.247464 -0.533372,-0.742193 -0.691486,-1.0994 -0.158115,-0.357206 -0.352578,-0.649464 -0.432141,-0.649464 -0.173962,0 -2.975868,-5.657331 -2.975868,-6.008578 0,-0.135262 -0.196494,-0.891225 -0.436652,-1.679915 -0.785217,-2.578686 -1.41131,-6.46471 -1.410288,-8.753357 0.0015,-3.368676 0.987884,-8.950466 2.053135,-11.618425 0.6184,-1.548802 2.899935,-5.843618 3.251205,-6.120142 0.08068,-0.06351 0.370956,-0.484882 0.645061,-0.93638 0.911615,-1.501582 3.565521,-4.329418 5.597387,-5.964224 0.571598,-0.459899 1.091233,-0.897083 1.154743,-0.971521 0.23535,-0.27584 2.788379,-1.827723 3.006819,-1.827723 0.124555,0 0.226464,-0.0807 0.226464,-0.179337 0,-0.19245 3.908566,-2.247572 3.9974,-2.101831 0.363402,0.59619 1.54537,2.994626 1.54537,3.135846 0,0.103022 -0.337762,0.325549 -0.750583,0.494506 -1.754064,0.717893 -3.675768,1.751676 -4.67692,2.515955 -0.127136,0.09706 -0.646771,0.47893 -1.154744,0.848611 -1.75938,1.280399 -6.581832,6.365328 -6.581832,6.940069 0,0.08546 -0.246578,0.486215 -0.54795,0.890561 -0.476154,0.638846 -1.000334,1.683392 -2.339163,4.661303 -0.40688,0.90501 -1.139923,3.56065 -1.470074,5.325724 -0.670313,3.583681 -0.166532,10.158894 1.081449,14.114776 0.325001,1.030195 2.498079,5.496213 2.860287,5.878338 0.164987,0.174062 0.438571,0.585689 0.607965,0.914731 0.169393,0.329039 0.618042,0.952601 0.996997,1.385692 0.378955,0.433089 1.064878,1.237137 1.524273,1.786772 1.00624,1.203895 5.020035,4.471443 6.153115,5.009124 0.446437,0.21185 0.933136,0.531496 1.081553,0.710327 0.148418,0.178833 0.362185,0.32515 0.475038,0.32515 0.112853,0 0.645744,0.198596 1.184202,0.44132 1.314332,0.592476 3.565113,1.415799 4.558721,1.667557 4.688894,1.188051 10.493664,1.184686 15.011674,-0.0087 1.72412,-0.45541 5.11981,-1.859516 6.34561,-2.623887 1.650977,-1.029505 3.338187,-2.186616 3.928207,-2.694025 0.91077,-0.783251 3.81789,-3.709981 4.34786,-4.377188 0.99016,-1.246569 2.00663,-2.755756 2.00663,-2.979313 0,-0.133021 0.0779,-0.276498 0.17321,-0.318841 0.0953,-0.04234 0.48409,-0.700543 0.86405,-1.462674 0.37996,-0.762131 0.70819,-1.41946 0.7294,-1.46073 0.0212,-0.04127 0.46379,0.206375 0.98353,0.550325 0.7995,0.529081 0.94499,0.746805 0.94499,1.414148 0,0.878899 -0.86372,2.836136 -1.73212,3.925076 -0.44339,0.556 -0.69764,0.889903 -1.37593,1.807005 -0.3757,0.507972 -0.97328,1.199118 -1.32796,1.535881 -0.35468,0.336763 -0.64487,0.688315 -0.64487,0.78123 0,0.09292 -0.23383,0.367105 -0.51963,0.609306 -0.2858,0.2422 -0.88338,0.780893 -1.32796,1.197092 -0.44457,0.4162 -1.22402,1.061048 -1.73211,1.432998 -0.50809,0.37195 -0.97576,0.729124 -1.03927,0.793716 -0.25,0.254256 -2.70131,1.779501 -3.46423,2.155495 -0.44458,0.219104 -0.964207,0.487381 -1.154747,0.596171 -0.19053,0.108789 -0.60624,0.299864 -0.92379,0.424611 -0.31756,0.12475 -0.83719,0.338199 -1.15475,0.474334 -4.63516,1.987097 -10.75792,2.756737 -15.93546,2.003117 l 0,0 z"
         style="fill:#000000;fill-opacity:1;stroke:#000000;stroke-opacity:1;stroke-linejoin:round;stroke-linecap:round" />
      <path
         inkscape:connector-curvature="0"
         id="path5007"
         d="m 84.520753,97.00666 c -1.66992,-0.365506 -4.12143,-1.564075 -4.517654,-2.208729 -0.318959,-0.518942 -0.165127,-1.758326 0.529564,-4.266584 0.17591,-0.63511 0.4423,-1.674379 0.59199,-2.309488 0.1497,-0.635109 0.35712,-1.466525 0.46094,-1.84759 0.10382,-0.381066 0.3154,-1.160518 0.47017,-1.732116 0.15477,-0.571598 0.51155,-1.766758 0.79285,-2.655911 0.2813,-0.889152 0.62851,-2.032349 0.77158,-2.540436 0.72354,-2.569461 1.2466,-4.231061 1.54737,-4.915496 0.1833,-0.417131 0.33328,-0.905894 0.33328,-1.08614 0,-0.180247 0.12061,-0.592429 0.26802,-0.91596 0.21913,-0.480935 0.42897,-0.588239 1.15034,-0.588239 0.77116,0 0.90177,0.08002 1.03666,0.635109 0.0849,0.34931 0.29471,0.840106 0.46629,1.090657 0.17159,0.250552 0.31197,0.634144 0.31197,0.852428 0,0.218284 0.0973,0.456983 0.21611,0.530441 0.12634,0.07808 0.11838,-0.180051 -0.0192,-0.621479 -0.1294,-0.415272 -0.31687,-1.080545 -0.41659,-1.478384 -0.0997,-0.397839 -0.25384,-0.840678 -0.34247,-0.984088 -0.089,-0.143963 0.156,-0.577899 0.54698,-0.968878 0.38947,-0.389474 0.77247,-0.964448 0.85109,-1.277721 0.0786,-0.313273 0.2085,-0.538339 0.28861,-0.500148 0.81178,0.387023 9.09704,4.589777 10.422867,5.287077 2.24055,1.178379 5.73315,3.28005 7.56357,4.551368 1.38903,0.964755 1.44343,1.039731 1.44343,1.989488 0,1.584461 -0.93814,3.98085 -2.0208,5.161959 -0.15878,0.173215 -0.28869,0.394678 -0.28869,0.49214 0,0.316368 -3.10915,3.37746 -4.16727,4.102865 -1.39694,0.957676 -2.877997,1.666243 -4.262357,2.039184 -1.08436,0.292125 -1.18641,0.28152 -1.67437,-0.173978 -0.2858,-0.266785 -0.51964,-0.622839 -0.51964,-0.791229 0,-0.168391 -0.0857,-0.306166 -0.19039,-0.306166 -0.10472,0 -0.48599,-0.649543 -0.84728,-1.44343 -1.84221,-4.048081 -2.16254,-4.78295 -2.64259,-6.062405 -0.28595,-0.762131 -0.86426,-2.269071 -1.28514,-3.348757 -0.42087,-1.079685 -0.97291,-2.534662 -1.22674,-3.233282 -0.86837,-2.38998 -0.79529,-2.246604 -0.90661,-1.778759 -0.0543,0.228391 -0.005,0.540171 0.10962,0.692847 0.11463,0.152675 0.34189,0.745262 0.50502,1.31686 0.16313,0.571599 0.39781,1.295803 0.52152,1.609343 0.12371,0.31354 0.57952,1.664591 1.0129,3.002334 0.43338,1.337743 0.90206,2.744041 1.04152,3.125107 0.13945,0.381065 0.33918,1.004627 0.44383,1.385692 0.10466,0.381066 0.44245,1.576226 0.75064,2.655911 0.75416,2.641964 1.09706,4.077151 1.09706,4.591599 0,0.830939 -3.25439,2.478837 -5.9583,3.017052 -1.51739,0.302037 -2.55469,0.279129 -4.25974,-0.09407 z"
         style="fill:#000000;fill-opacity:1;stroke:#000000;stroke-opacity:1;stroke-linejoin:round;stroke-linecap:round" />
    </g>
  </g>
  <g
     style="opacity:0.15;display:inline"
     inkscape:label="icon first shadow"
     id="g4981"
     inkscape:groupmode="layer"
     sodipodi:insensitive="true">
    <path
       inkscape:connector-curvature="0"
       id="path4983"
       d=""
       style="fill:#000000" />
    <g
       style="fill:#000000"
       transform="translate(-19.999999,1.0003242)"
       id="g4985">
      <path
         style="fill:#000000;fill-opacity:1;stroke:none"
         d="m 61.737233,79.194472 c -0.267306,-0.286919 -0.486011,-0.623802 -0.486011,-0.748625 0,-0.124823 -0.139769,-0.391026 -0.310597,-0.591561 -1.508128,-1.77038 -2.271741,-8.023354 -1.398292,-11.450149 0.194259,-0.762131 0.435253,-1.704938 0.535544,-2.095128 0.10029,-0.390189 0.493636,-1.273568 0.874101,-1.963064 l 0.691755,-1.253629 1.1317,0.05532 c 1.312015,0.06414 3.092667,0.422493 4.249508,0.855208 0.879277,0.328893 3.199589,1.048267 4.849924,1.503637 0.571598,0.157718 1.219896,0.380662 1.440663,0.495429 0.220766,0.114768 1.519853,0.576281 2.886859,1.025585 1.367007,0.449305 2.69332,0.901331 2.947364,1.004504 0.254044,0.103173 0.818547,0.305157 1.254452,0.448853 1.17242,0.386492 0.54958,-0.08575 -0.821476,-0.622845 -0.651016,-0.255027 -1.638322,-0.665865 -2.194013,-0.912973 -0.555691,-0.247108 -1.374092,-0.584251 -1.818669,-0.749207 -1.746558,-0.648044 -7.362593,-3.198678 -8.919313,-4.050884 -3.143855,-1.721063 -3.28878,-1.984849 -2.349195,-4.275917 1.586735,-3.869072 5.033606,-7.247798 8.627577,-8.45701 3.675625,-1.236686 4.089814,-1.239159 4.837272,-0.02888 1.191783,1.929723 1.763401,2.901216 2.019337,3.43196 0.153132,0.317554 0.33792,0.629335 0.41063,0.692846 0.0727,0.06351 0.32491,0.531182 0.56044,1.039269 0.23553,0.508088 0.91645,1.963065 1.51316,3.233283 0.59671,1.270218 1.36396,2.933049 1.705,3.69518 0.34105,0.762131 0.71996,1.566155 0.84204,1.786719 0.12207,0.220565 0.22195,0.507497 0.22195,0.637627 0,0.130129 0.20123,0.677156 0.44719,1.215614 0.62903,1.377134 1.16945,2.736401 1.16945,2.941416 0,0.09563 -0.32585,0.239047 -0.72413,0.318701 -0.39826,0.07965 -0.95575,0.414391 -1.23886,0.74386 -0.49894,0.580659 -0.5366,0.587729 -1.22747,0.230467 -0.82476,-0.426503 -0.96661,-0.448893 -0.96661,-0.152569 0,0.1188 0.36374,0.347531 0.80832,0.508292 0.76424,0.276356 0.80794,0.349576 0.80145,1.342904 l -0.007,1.050612 -1.43657,0.717154 c -0.79012,0.394433 -2.89155,1.449037 -4.669856,2.343562 -3.500244,1.760698 -7.532036,3.693953 -9.007001,4.318887 -0.508088,0.215272 -1.235576,0.525025 -1.616642,0.688338 -2.310904,0.990382 -3.003781,1.222366 -4.190701,1.403099 -0.806316,0.122777 -1.034123,0.06345 -1.44343,-0.375885 l 0,0 z m 20.53033,-12.089363 c 0,-0.05904 -0.20786,-0.218589 -0.4619,-0.354549 -0.27835,-0.148969 -0.4619,-0.158927 -0.4619,-0.02506 0,0.122178 0.18187,0.269669 0.40416,0.327759 0.22229,0.05809 0.43014,0.117674 0.4619,0.132408 0.0318,0.01474 0.0577,-0.02152 0.0577,-0.08056 z"
         id="path4987"
         inkscape:connector-curvature="0" />
      <path
         style="fill:#000000;fill-opacity:1;stroke:none"
         d="m 75.108148,93.607712 c -1.809577,-0.586027 -4.64024,-1.738625 -4.923515,-2.004773 -0.150058,-0.140985 -0.53265,-0.390091 -0.850204,-0.553569 -0.810346,-0.417169 -2.349163,-1.861643 -3.004795,-2.820575 -0.303961,-0.444576 -0.617916,-0.860284 -0.697676,-0.923795 -0.07976,-0.06351 -0.410266,-0.687073 -0.734456,-1.385693 -1.638222,-3.530315 -1.616858,-3.621917 1.300516,-5.576269 1.259987,-0.844067 2.818891,-1.818645 3.464231,-2.165731 0.645341,-0.347085 1.22531,-0.695755 1.288821,-0.774821 0.06351,-0.07907 0.819906,-0.500019 1.680878,-0.935451 0.860971,-0.435431 1.900241,-0.999634 2.309487,-1.253782 0.409247,-0.254149 1.523537,-0.853441 2.4762,-1.33176 0.952664,-0.478319 2.09586,-1.069445 2.540437,-1.313615 1.566461,-0.86033 4.182271,-2.122138 4.399321,-2.122138 0.12081,0 0.21965,0.130891 0.21965,0.290869 0,0.159979 0.20786,0.420677 0.4619,0.579329 0.25405,0.158653 0.4619,0.430992 0.4619,0.605198 0,0.174205 -0.41808,1.550356 -0.92907,3.058113 -0.51099,1.507758 -1.02177,3.053158 -1.13507,3.434224 -0.1133,0.381065 -0.56484,1.680152 -1.00343,2.886859 -0.43859,1.206707 -1.07846,2.973465 -1.42193,3.926129 -0.34347,0.952664 -0.87686,2.280573 -1.185308,2.95091 -0.308445,0.670337 -0.56081,1.27292 -0.56081,1.339074 0,0.06615 -0.46212,1.102583 -1.026934,2.303174 -1.140315,2.423899 -1.149915,2.429384 -3.130143,1.788093 z"
         id="path4989"
         inkscape:connector-curvature="0" />
      <path
         style="fill:#000000;fill-opacity:1;stroke:none"
         d="m 81.574713,101.27222 c -2.595016,-0.37772 -3.419102,-0.54784 -4.388026,-0.9058 -0.444577,-0.16425 -1.224029,-0.423066 -1.732116,-0.57515 -1.028612,-0.307892 -1.38219,-0.447563 -2.88686,-1.14037 -4.332857,-1.995011 -8.322623,-5.089076 -11.202567,-8.687597 -0.507233,-0.633795 -1.104045,-1.354824 -1.326248,-1.602285 -0.222203,-0.247464 -0.533372,-0.742193 -0.691486,-1.0994 -0.158115,-0.357206 -0.352578,-0.649464 -0.432141,-0.649464 -0.173962,0 -2.975868,-5.657331 -2.975868,-6.008578 0,-0.135262 -0.196494,-0.891225 -0.436652,-1.679915 -0.785217,-2.578686 -1.41131,-6.46471 -1.410288,-8.753357 0.0015,-3.368676 0.987884,-8.950466 2.053135,-11.618425 0.6184,-1.548802 2.899935,-5.843618 3.251205,-6.120142 0.08068,-0.06351 0.370956,-0.484882 0.645061,-0.93638 0.911615,-1.501582 3.565521,-4.329418 5.597387,-5.964224 0.571598,-0.459899 1.091233,-0.897083 1.154743,-0.971521 0.23535,-0.27584 2.788379,-1.827723 3.006819,-1.827723 0.124555,0 0.226464,-0.0807 0.226464,-0.179337 0,-0.19245 3.908566,-2.247572 3.9974,-2.101831 0.363402,0.59619 1.54537,2.994626 1.54537,3.135846 0,0.103022 -0.337762,0.325549 -0.750583,0.494506 -1.754064,0.717893 -3.675768,1.751676 -4.67692,2.515955 -0.127136,0.09706 -0.646771,0.47893 -1.154744,0.848611 -1.75938,1.280399 -6.581832,6.365328 -6.581832,6.940069 0,0.08546 -0.246578,0.486215 -0.54795,0.890561 -0.476154,0.638846 -1.000334,1.683392 -2.339163,4.661303 -0.40688,0.90501 -1.139923,3.56065 -1.470074,5.325724 -0.670313,3.583681 -0.166532,10.158894 1.081449,14.114776 0.325001,1.030195 2.498079,5.496213 2.860287,5.878338 0.164987,0.174062 0.438571,0.585689 0.607965,0.914731 0.169393,0.329039 0.618042,0.952601 0.996997,1.385692 0.378955,0.433089 1.064878,1.237137 1.524273,1.786772 1.00624,1.203895 5.020035,4.471443 6.153115,5.009124 0.446437,0.21185 0.933136,0.531496 1.081553,0.710327 0.148418,0.178833 0.362185,0.32515 0.475038,0.32515 0.112853,0 0.645744,0.198596 1.184202,0.44132 1.314332,0.592476 3.565113,1.415799 4.558721,1.667557 4.688894,1.188051 10.493664,1.184686 15.011674,-0.0087 1.72412,-0.45541 5.11981,-1.859516 6.34561,-2.623887 1.650977,-1.029505 3.338187,-2.186616 3.928207,-2.694025 0.91077,-0.783251 3.81789,-3.709981 4.34786,-4.377188 0.99016,-1.246569 2.00663,-2.755756 2.00663,-2.979313 0,-0.133021 0.0779,-0.276498 0.17321,-0.318841 0.0953,-0.04234 0.48409,-0.700543 0.86405,-1.462674 0.37996,-0.762131 0.70819,-1.41946 0.7294,-1.46073 0.0212,-0.04127 0.46379,0.206375 0.98353,0.550325 0.7995,0.529081 0.94499,0.746805 0.94499,1.414148 0,0.878899 -0.86372,2.836136 -1.73212,3.925076 -0.44339,0.556 -0.69764,0.889903 -1.37593,1.807005 -0.3757,0.507972 -0.97328,1.199118 -1.32796,1.535881 -0.35468,0.336763 -0.64487,0.688315 -0.64487,0.78123 0,0.09292 -0.23383,0.367105 -0.51963,0.609306 -0.2858,0.2422 -0.88338,0.780893 -1.32796,1.197092 -0.44457,0.4162 -1.22402,1.061048 -1.73211,1.432998 -0.50809,0.37195 -0.97576,0.729124 -1.03927,0.793716 -0.25,0.254256 -2.70131,1.779501 -3.46423,2.155495 -0.44458,0.219104 -0.964207,0.487381 -1.154747,0.596171 -0.19053,0.108789 -0.60624,0.299864 -0.92379,0.424611 -0.31756,0.12475 -0.83719,0.338199 -1.15475,0.474334 -4.63516,1.987097 -10.75792,2.756737 -15.93546,2.003117 l 0,0 z"
         id="path4991"
         inkscape:connector-curvature="0" />
      <path
         style="fill:#000000;fill-opacity:1;stroke:none"
         d="m 84.520753,97.00666 c -1.66992,-0.365506 -4.12143,-1.564075 -4.517654,-2.208729 -0.318959,-0.518942 -0.165127,-1.758326 0.529564,-4.266584 0.17591,-0.63511 0.4423,-1.674379 0.59199,-2.309488 0.1497,-0.635109 0.35712,-1.466525 0.46094,-1.84759 0.10382,-0.381066 0.3154,-1.160518 0.47017,-1.732116 0.15477,-0.571598 0.51155,-1.766758 0.79285,-2.655911 0.2813,-0.889152 0.62851,-2.032349 0.77158,-2.540436 0.72354,-2.569461 1.2466,-4.231061 1.54737,-4.915496 0.1833,-0.417131 0.33328,-0.905894 0.33328,-1.08614 0,-0.180247 0.12061,-0.592429 0.26802,-0.91596 0.21913,-0.480935 0.42897,-0.588239 1.15034,-0.588239 0.77116,0 0.90177,0.08002 1.03666,0.635109 0.0849,0.34931 0.29471,0.840106 0.46629,1.090657 0.17159,0.250552 0.31197,0.634144 0.31197,0.852428 0,0.218284 0.0973,0.456983 0.21611,0.530441 0.12634,0.07808 0.11838,-0.180051 -0.0192,-0.621479 -0.1294,-0.415272 -0.31687,-1.080545 -0.41659,-1.478384 -0.0997,-0.397839 -0.25384,-0.840678 -0.34247,-0.984088 -0.089,-0.143963 0.156,-0.577899 0.54698,-0.968878 0.38947,-0.389474 0.77247,-0.964448 0.85109,-1.277721 0.0786,-0.313273 0.2085,-0.538339 0.28861,-0.500148 0.81178,0.387023 9.09704,4.589777 10.422867,5.287077 2.24055,1.178379 5.73315,3.28005 7.56357,4.551368 1.38903,0.964755 1.44343,1.039731 1.44343,1.989488 0,1.584461 -0.93814,3.98085 -2.0208,5.161959 -0.15878,0.173215 -0.28869,0.394678 -0.28869,0.49214 0,0.316368 -3.10915,3.37746 -4.16727,4.102865 -1.39694,0.957676 -2.877997,1.666243 -4.262357,2.039184 -1.08436,0.292125 -1.18641,0.28152 -1.67437,-0.173978 -0.2858,-0.266785 -0.51964,-0.622839 -0.51964,-0.791229 0,-0.168391 -0.0857,-0.306166 -0.19039,-0.306166 -0.10472,0 -0.48599,-0.649543 -0.84728,-1.44343 -1.84221,-4.048081 -2.16254,-4.78295 -2.64259,-6.062405 -0.28595,-0.762131 -0.86426,-2.269071 -1.28514,-3.348757 -0.42087,-1.079685 -0.97291,-2.534662 -1.22674,-3.233282 -0.86837,-2.38998 -0.79529,-2.246604 -0.90661,-1.778759 -0.0543,0.228391 -0.005,0.540171 0.10962,0.692847 0.11463,0.152675 0.34189,0.745262 0.50502,1.31686 0.16313,0.571599 0.39781,1.295803 0.52152,1.609343 0.12371,0.31354 0.57952,1.664591 1.0129,3.002334 0.43338,1.337743 0.90206,2.744041 1.04152,3.125107 0.13945,0.381065 0.33918,1.004627 0.44383,1.385692 0.10466,0.381066 0.44245,1.576226 0.75064,2.655911 0.75416,2.641964 1.09706,4.077151 1.09706,4.591599 0,0.830939 -3.25439,2.478837 -5.9583,3.017052 -1.51739,0.302037 -2.55469,0.279129 -4.25974,-0.09407 z"
         id="path4993"
         inkscape:connector-curvature="0" />
    </g>
  </g>
  <g
     inkscape:groupmode="layer"
     id="layer2"
     inkscape:label="icon"
     style="display:inline"
     sodipodi:insensitive="true">
    <path
       style="fill:#000000"
       d=""
       id="path4812"
       inkscape:connector-curvature="0" />
    <g
       id="g4946"
       transform="translate(-19.999999,-5.0924228e-8)"
       style="fill:#ffffff">
      <path
         inkscape:connector-curvature="0"
         id="path4769"
         d="m 61.737233,79.194472 c -0.267306,-0.286919 -0.486011,-0.623802 -0.486011,-0.748625 0,-0.124823 -0.139769,-0.391026 -0.310597,-0.591561 -1.508128,-1.77038 -2.271741,-8.023354 -1.398292,-11.450149 0.194259,-0.762131 0.435253,-1.704938 0.535544,-2.095128 0.10029,-0.390189 0.493636,-1.273568 0.874101,-1.963064 l 0.691755,-1.253629 1.1317,0.05532 c 1.312015,0.06414 3.092667,0.422493 4.249508,0.855208 0.879277,0.328893 3.199589,1.048267 4.849924,1.503637 0.571598,0.157718 1.219896,0.380662 1.440663,0.495429 0.220766,0.114768 1.519853,0.576281 2.886859,1.025585 1.367007,0.449305 2.69332,0.901331 2.947364,1.004504 0.254044,0.103173 0.818547,0.305157 1.254452,0.448853 1.17242,0.386492 0.54958,-0.08575 -0.821476,-0.622845 -0.651016,-0.255027 -1.638322,-0.665865 -2.194013,-0.912973 -0.555691,-0.247108 -1.374092,-0.584251 -1.818669,-0.749207 -1.746558,-0.648044 -7.362593,-3.198678 -8.919313,-4.050884 -3.143855,-1.721063 -3.28878,-1.984849 -2.349195,-4.275917 1.586735,-3.869072 5.033606,-7.247798 8.627577,-8.45701 3.675625,-1.236686 4.089814,-1.239159 4.837272,-0.02888 1.191783,1.929723 1.763401,2.901216 2.019337,3.43196 0.153132,0.317554 0.33792,0.629335 0.41063,0.692846 0.0727,0.06351 0.32491,0.531182 0.56044,1.039269 0.23553,0.508088 0.91645,1.963065 1.51316,3.233283 0.59671,1.270218 1.36396,2.933049 1.705,3.69518 0.34105,0.762131 0.71996,1.566155 0.84204,1.786719 0.12207,0.220565 0.22195,0.507497 0.22195,0.637627 0,0.130129 0.20123,0.677156 0.44719,1.215614 0.62903,1.377134 1.16945,2.736401 1.16945,2.941416 0,0.09563 -0.32585,0.239047 -0.72413,0.318701 -0.39826,0.07965 -0.95575,0.414391 -1.23886,0.74386 -0.49894,0.580659 -0.5366,0.587729 -1.22747,0.230467 -0.82476,-0.426503 -0.96661,-0.448893 -0.96661,-0.152569 0,0.1188 0.36374,0.347531 0.80832,0.508292 0.76424,0.276356 0.80794,0.349576 0.80145,1.342904 l -0.007,1.050612 -1.43657,0.717154 c -0.79012,0.394433 -2.89155,1.449037 -4.669856,2.343562 -3.500244,1.760698 -7.532036,3.693953 -9.007001,4.318887 -0.508088,0.215272 -1.235576,0.525025 -1.616642,0.688338 -2.310904,0.990382 -3.003781,1.222366 -4.190701,1.403099 -0.806316,0.122777 -1.034123,0.06345 -1.44343,-0.375885 l 0,0 z m 20.53033,-12.089363 c 0,-0.05904 -0.20786,-0.218589 -0.4619,-0.354549 -0.27835,-0.148969 -0.4619,-0.158927 -0.4619,-0.02506 0,0.122178 0.18187,0.269669 0.40416,0.327759 0.22229,0.05809 0.43014,0.117674 0.4619,0.132408 0.0318,0.01474 0.0577,-0.02152 0.0577,-0.08056 z"
         style="fill:#ffffff;fill-opacity:1;stroke:none" />
      <path
         inkscape:connector-curvature="0"
         id="path4771"
         d="m 75.108148,93.607712 c -1.809577,-0.586027 -4.64024,-1.738625 -4.923515,-2.004773 -0.150058,-0.140985 -0.53265,-0.390091 -0.850204,-0.553569 -0.810346,-0.417169 -2.349163,-1.861643 -3.004795,-2.820575 -0.303961,-0.444576 -0.617916,-0.860284 -0.697676,-0.923795 -0.07976,-0.06351 -0.410266,-0.687073 -0.734456,-1.385693 -1.638222,-3.530315 -1.616858,-3.621917 1.300516,-5.576269 1.259987,-0.844067 2.818891,-1.818645 3.464231,-2.165731 0.645341,-0.347085 1.22531,-0.695755 1.288821,-0.774821 0.06351,-0.07907 0.819906,-0.500019 1.680878,-0.935451 0.860971,-0.435431 1.900241,-0.999634 2.309487,-1.253782 0.409247,-0.254149 1.523537,-0.853441 2.4762,-1.33176 0.952664,-0.478319 2.09586,-1.069445 2.540437,-1.313615 1.566461,-0.86033 4.182271,-2.122138 4.399321,-2.122138 0.12081,0 0.21965,0.130891 0.21965,0.290869 0,0.159979 0.20786,0.420677 0.4619,0.579329 0.25405,0.158653 0.4619,0.430992 0.4619,0.605198 0,0.174205 -0.41808,1.550356 -0.92907,3.058113 -0.51099,1.507758 -1.02177,3.053158 -1.13507,3.434224 -0.1133,0.381065 -0.56484,1.680152 -1.00343,2.886859 -0.43859,1.206707 -1.07846,2.973465 -1.42193,3.926129 -0.34347,0.952664 -0.87686,2.280573 -1.185308,2.95091 -0.308445,0.670337 -0.56081,1.27292 -0.56081,1.339074 0,0.06615 -0.46212,1.102583 -1.026934,2.303174 -1.140315,2.423899 -1.149915,2.429384 -3.130143,1.788093 z"
         style="fill:#ffffff;fill-opacity:1;stroke:none" />
      <path
         inkscape:connector-curvature="0"
         id="path4781"
         d="m 81.574713,101.27222 c -2.595016,-0.37772 -3.419102,-0.54784 -4.388026,-0.9058 -0.444577,-0.16425 -1.224029,-0.423066 -1.732116,-0.57515 -1.028612,-0.307892 -1.38219,-0.447563 -2.88686,-1.14037 -4.332857,-1.995011 -8.322623,-5.089076 -11.202567,-8.687597 -0.507233,-0.633795 -1.104045,-1.354824 -1.326248,-1.602285 -0.222203,-0.247464 -0.533372,-0.742193 -0.691486,-1.0994 -0.158115,-0.357206 -0.352578,-0.649464 -0.432141,-0.649464 -0.173962,0 -2.975868,-5.657331 -2.975868,-6.008578 0,-0.135262 -0.196494,-0.891225 -0.436652,-1.679915 -0.785217,-2.578686 -1.41131,-6.46471 -1.410288,-8.753357 0.0015,-3.368676 0.987884,-8.950466 2.053135,-11.618425 0.6184,-1.548802 2.899935,-5.843618 3.251205,-6.120142 0.08068,-0.06351 0.370956,-0.484882 0.645061,-0.93638 0.911615,-1.501582 3.565521,-4.329418 5.597387,-5.964224 0.571598,-0.459899 1.091233,-0.897083 1.154743,-0.971521 0.23535,-0.27584 2.788379,-1.827723 3.006819,-1.827723 0.124555,0 0.226464,-0.0807 0.226464,-0.179337 0,-0.19245 3.908566,-2.247572 3.9974,-2.101831 0.363402,0.59619 1.54537,2.994626 1.54537,3.135846 0,0.103022 -0.337762,0.325549 -0.750583,0.494506 -1.754064,0.717893 -3.675768,1.751676 -4.67692,2.515955 -0.127136,0.09706 -0.646771,0.47893 -1.154744,0.848611 -1.75938,1.280399 -6.581832,6.365328 -6.581832,6.940069 0,0.08546 -0.246578,0.486215 -0.54795,0.890561 -0.476154,0.638846 -1.000334,1.683392 -2.339163,4.661303 -0.40688,0.90501 -1.139923,3.56065 -1.470074,5.325724 -0.670313,3.583681 -0.166532,10.158894 1.081449,14.114776 0.325001,1.030195 2.498079,5.496213 2.860287,5.878338 0.164987,0.174062 0.438571,0.585689 0.607965,0.914731 0.169393,0.329039 0.618042,0.952601 0.996997,1.385692 0.378955,0.433089 1.064878,1.237137 1.524273,1.786772 1.00624,1.203895 5.020035,4.471443 6.153115,5.009124 0.446437,0.21185 0.933136,0.531496 1.081553,0.710327 0.148418,0.178833 0.362185,0.32515 0.475038,0.32515 0.112853,0 0.645744,0.198596 1.184202,0.44132 1.314332,0.592476 3.565113,1.415799 4.558721,1.667557 4.688894,1.188051 10.493664,1.184686 15.011674,-0.0087 1.72412,-0.45541 5.11981,-1.859516 6.34561,-2.623887 1.650977,-1.029505 3.338187,-2.186616 3.928207,-2.694025 0.91077,-0.783251 3.81789,-3.709981 4.34786,-4.377188 0.99016,-1.246569 2.00663,-2.755756 2.00663,-2.979313 0,-0.133021 0.0779,-0.276498 0.17321,-0.318841 0.0953,-0.04234 0.48409,-0.700543 0.86405,-1.462674 0.37996,-0.762131 0.70819,-1.41946 0.7294,-1.46073 0.0212,-0.04127 0.46379,0.206375 0.98353,0.550325 0.7995,0.529081 0.94499,0.746805 0.94499,1.414148 0,0.878899 -0.86372,2.836136 -1.73212,3.925076 -0.44339,0.556 -0.69764,0.889903 -1.37593,1.807005 -0.3757,0.507972 -0.97328,1.199118 -1.32796,1.535881 -0.35468,0.336763 -0.64487,0.688315 -0.64487,0.78123 0,0.09292 -0.23383,0.367105 -0.51963,0.609306 -0.2858,0.2422 -0.88338,0.780893 -1.32796,1.197092 -0.44457,0.4162 -1.22402,1.061048 -1.73211,1.432998 -0.50809,0.37195 -0.97576,0.729124 -1.03927,0.793716 -0.25,0.254256 -2.70131,1.779501 -3.46423,2.155495 -0.44458,0.219104 -0.964207,0.487381 -1.154747,0.596171 -0.19053,0.108789 -0.60624,0.299864 -0.92379,0.424611 -0.31756,0.12475 -0.83719,0.338199 -1.15475,0.474334 -4.63516,1.987097 -10.75792,2.756737 -15.93546,2.003117 l 0,0 z"
         style="fill:#ffffff;fill-opacity:1;stroke:none" />
      <path
         inkscape:connector-curvature="0"
         id="path4874"
         d="m 84.520753,97.00666 c -1.66992,-0.365506 -4.12143,-1.564075 -4.517654,-2.208729 -0.318959,-0.518942 -0.165127,-1.758326 0.529564,-4.266584 0.17591,-0.63511 0.4423,-1.674379 0.59199,-2.309488 0.1497,-0.635109 0.35712,-1.466525 0.46094,-1.84759 0.10382,-0.381066 0.3154,-1.160518 0.47017,-1.732116 0.15477,-0.571598 0.51155,-1.766758 0.79285,-2.655911 0.2813,-0.889152 0.62851,-2.032349 0.77158,-2.540436 0.72354,-2.569461 1.2466,-4.231061 1.54737,-4.915496 0.1833,-0.417131 0.33328,-0.905894 0.33328,-1.08614 0,-0.180247 0.12061,-0.592429 0.26802,-0.91596 0.21913,-0.480935 0.42897,-0.588239 1.15034,-0.588239 0.77116,0 0.90177,0.08002 1.03666,0.635109 0.0849,0.34931 0.29471,0.840106 0.46629,1.090657 0.17159,0.250552 0.31197,0.634144 0.31197,0.852428 0,0.218284 0.0973,0.456983 0.21611,0.530441 0.12634,0.07808 0.11838,-0.180051 -0.0192,-0.621479 -0.1294,-0.415272 -0.31687,-1.080545 -0.41659,-1.478384 -0.0997,-0.397839 -0.25384,-0.840678 -0.34247,-0.984088 -0.089,-0.143963 0.156,-0.577899 0.54698,-0.968878 0.38947,-0.389474 0.77247,-0.964448 0.85109,-1.277721 0.0786,-0.313273 0.2085,-0.538339 0.28861,-0.500148 0.81178,0.387023 9.09704,4.589777 10.422867,5.287077 2.24055,1.178379 5.73315,3.28005 7.56357,4.551368 1.38903,0.964755 1.44343,1.039731 1.44343,1.989488 0,1.584461 -0.93814,3.98085 -2.0208,5.161959 -0.15878,0.173215 -0.28869,0.394678 -0.28869,0.49214 0,0.316368 -3.10915,3.37746 -4.16727,4.102865 -1.39694,0.957676 -2.877997,1.666243 -4.262357,2.039184 -1.08436,0.292125 -1.18641,0.28152 -1.67437,-0.173978 -0.2858,-0.266785 -0.51964,-0.622839 -0.51964,-0.791229 0,-0.168391 -0.0857,-0.306166 -0.19039,-0.306166 -0.10472,0 -0.48599,-0.649543 -0.84728,-1.44343 -1.84221,-4.048081 -2.16254,-4.78295 -2.64259,-6.062405 -0.28595,-0.762131 -0.86426,-2.269071 -1.28514,-3.348757 -0.42087,-1.079685 -0.97291,-2.534662 -1.22674,-3.233282 -0.86837,-2.38998 -0.79529,-2.246604 -0.90661,-1.778759 -0.0543,0.228391 -0.005,0.540171 0.10962,0.692847 0.11463,0.152675 0.34189,0.745262 0.50502,1.31686 0.16313,0.571599 0.39781,1.295803 0.52152,1.609343 0.12371,0.31354 0.57952,1.664591 1.0129,3.002334 0.43338,1.337743 0.90206,2.744041 1.04152,3.125107 0.13945,0.381065 0.33918,1.004627 0.44383,1.385692 0.10466,0.381066 0.44245,1.576226 0.75064,2.655911 0.75416,2.641964 1.09706,4.077151 1.09706,4.591599 0,0.830939 -3.25439,2.478837 -5.9583,3.017052 -1.51739,0.302037 -2.55469,0.279129 -4.25974,-0.09407 z"
         style="fill:#ffffff;fill-opacity:1;stroke:none" />
    </g>
  </g>
  <g
     inkscape:label="guide lines"
     inkscape:groupmode="layer"
     id="layer1"
     transform="translate(0,-924.3622)"
     style="display:inline"
     sodipodi:insensitive="true">
    <path
       style="fill:none;stroke:#0000ff;stroke-width:0.99990553;stroke-linecap:butt;stroke-linejoin:miter;stroke-miterlimit:1;stroke-opacity:1;stroke-dasharray:none"
       d="m 0.49995276,1042.862 127.00019724,0"
       id="path2995"
       inkscape:connector-curvature="0" />
    <path
       style="fill:none;stroke:#00ff00;stroke-width:1;stroke-linecap:butt;stroke-linejoin:miter;stroke-miterlimit:1;stroke-opacity:1;stroke-dasharray:none"
       d="m 0.49995276,987.8622 127.00019724,0"
       id="path2995-5"
       inkscape:connector-curvature="0" />
    <path
       style="fill:none;stroke:#ff0000;stroke-width:0.99990553;stroke-linecap:butt;stroke-linejoin:miter;stroke-miterlimit:1;stroke-opacity:1;stroke-dasharray:none"
       d="m 0.49995276,947.86225 127.00019724,0"
       id="path2995-9"
       inkscape:connector-curvature="0" />
  </g>
</svg>
