<?xml version="1.0" encoding="UTF-8" standalone="no"?>
<svg
   xmlns:dc="http://purl.org/dc/elements/1.1/"
   xmlns:cc="http://creativecommons.org/ns#"
   xmlns:rdf="http://www.w3.org/1999/02/22-rdf-syntax-ns#"
   xmlns:svg="http://www.w3.org/2000/svg"
   xmlns="http://www.w3.org/2000/svg"
   xmlns:xlink="http://www.w3.org/1999/xlink"
   xmlns:sodipodi="http://sodipodi.sourceforge.net/DTD/sodipodi-0.dtd"
   xmlns:inkscape="http://www.inkscape.org/namespaces/inkscape"
   version="1.1"
   width="128"
   height="128"
   id="svg4113"
   inkscape:version="0.48.4 r9939"
   sodipodi:docname="meld.svg">
  <sodipodi:namedview
     pagecolor="#ffffff"
     bordercolor="#666666"
     borderopacity="1"
     objecttolerance="10"
     gridtolerance="10"
     guidetolerance="10"
     inkscape:pageopacity="0"
     inkscape:pageshadow="2"
     inkscape:window-width="1366"
     inkscape:window-height="713"
     id="namedview3941"
     showgrid="false"
     inkscape:zoom="3.52"
     inkscape:cx="24.40032"
     inkscape:cy="54.702739"
     inkscape:window-x="0"
     inkscape:window-y="30"
     inkscape:window-maximized="1"
     inkscape:current-layer="layer5"
     showguides="true"
     inkscape:guide-bbox="true"
     inkscape:snap-bbox="true"
     inkscape:bbox-paths="true"
     inkscape:bbox-nodes="true"
     inkscape:snap-bbox-edge-midpoints="true"
     inkscape:snap-bbox-midpoints="true" />
  <defs
     id="defs4115">
    <linearGradient
       id="linearGradient8714">
      <stop
         style="stop-color:#f4f4f4;stop-opacity:1;"
         offset="0"
         id="stop8716" />
      <stop
         style="stop-color:#dbdbdb;stop-opacity:1;"
         offset="1"
         id="stop8718" />
    </linearGradient>
    <linearGradient
       id="linearGradient6474">
      <stop
         style="stop-color:#ff9537;stop-opacity:1;"
         offset="0"
         id="stop6476" />
      <stop
         id="stop6484"
         offset="0.25"
         style="stop-color:#ff9435;stop-opacity:1;" />
      <stop
         id="stop6482"
         offset="0.5"
         style="stop-color:#ff9333;stop-opacity:1;" />
      <stop
         style="stop-color:#ff9231;stop-opacity:1;"
         offset="1"
         id="stop6478" />
    </linearGradient>
    <linearGradient
       id="linearGradient6224">
      <stop
         style="stop-color:#307ed8;stop-opacity:1;"
         offset="0"
         id="stop6226" />
      <stop
         id="stop6234"
         offset="0.28"
         style="stop-color:#246bbe;stop-opacity:1;" />
      <stop
         id="stop6232"
         offset="0.69999999"
         style="stop-color:#307ed8;stop-opacity:1;" />
      <stop
         style="stop-color:#000000;stop-opacity:1;"
         offset="1"
         id="stop6228" />
    </linearGradient>
    <linearGradient
       x1="20"
       y1="26.000008"
       x2="20"
       y2="13.000008"
       id="linearGradient4015"
       xlink:href="#linearGradient3680-6-6-6-3-7-1-9"
       gradientUnits="userSpaceOnUse"
       gradientTransform="matrix(2.6375431,0,0,2.6375431,1.3780184,-61.202158)" />
    <linearGradient
       id="linearGradient3680-6-6-6-3-7-1-9">
      <stop
         id="stop3682-4-6-1-3-7-7-1"
         style="stop-color:#dcdcdc;stop-opacity:1"
         offset="0" />
      <stop
         id="stop3684-8-5-8-0-2-6-7"
         style="stop-color:#ffffff;stop-opacity:1"
         offset="1" />
    </linearGradient>
    <linearGradient
       x1="23.99999"
       y1="4.999989"
       x2="23.99999"
       y2="43"
       id="linearGradient4136"
       xlink:href="#linearGradient3924"
       gradientUnits="userSpaceOnUse"
       gradientTransform="matrix(2.7297298,0,0,2.7297298,-1.5135184,-62.511679)" />
    <linearGradient
       id="linearGradient3924">
      <stop
         id="stop3926"
         style="stop-color:#ffffff;stop-opacity:1"
         offset="0" />
      <stop
         id="stop3928"
         style="stop-color:#ffffff;stop-opacity:0.23529412"
         offset="0.06316455" />
      <stop
         id="stop3930"
         style="stop-color:#ffffff;stop-opacity:0.15686275"
         offset="0.95056331" />
      <stop
         id="stop3932"
         style="stop-color:#ffffff;stop-opacity:0.39215687"
         offset="1" />
    </linearGradient>
    <radialGradient
       cx="7.1183534"
       cy="9.9571075"
       r="12.671875"
       fx="7.1183534"
       fy="9.9571075"
       id="radialGradient3936-3"
       xlink:href="#linearGradient2867-449-88-871-390-598-476-591-434-148-57-177-8-3-3-6-4-8-8-8-5-7-8"
       gradientUnits="userSpaceOnUse"
       gradientTransform="matrix(0,24.139622,-29.635745,0,361.28116,-268.72681)" />
    <linearGradient
       id="linearGradient2867-449-88-871-390-598-476-591-434-148-57-177-8-3-3-6-4-8-8-8-5-7-8">
      <stop
         id="stop3750-1-0-7-6-6-1-3-9-3-9-2"
         style="stop-color:#ff8519;stop-opacity:1;"
         offset="0" />
      <stop
         id="stop3752-3-7-4-0-32-8-923-0-7-0-3"
         style="stop-color:#ff902d;stop-opacity:1;"
         offset="0.26238" />
      <stop
         id="stop3754-1-8-5-2-7-6-7-1-9-1-0"
         style="stop-color:#ff9b41;stop-opacity:1;"
         offset="0.75999999" />
      <stop
         id="stop3756-1-6-2-6-6-1-96-6-0-1-7"
         style="stop-color:#ffa555;stop-opacity:1;"
         offset="1" />
    </linearGradient>
    <radialGradient
       cx="4.9929786"
       cy="43.5"
       r="2.5"
       fx="4.9929786"
       fy="43.5"
       id="radialGradient4093"
       xlink:href="#linearGradient3688-166-749-5"
       gradientUnits="userSpaceOnUse"
       gradientTransform="matrix(2.003784,0,0,1.4,27.98813,-17.4)" />
    <linearGradient
       id="linearGradient3688-166-749-5">
      <stop
         id="stop2883-0"
         style="stop-color:#181818;stop-opacity:1"
         offset="0" />
      <stop
         id="stop2885-5"
         style="stop-color:#181818;stop-opacity:0"
         offset="1" />
    </linearGradient>
    <radialGradient
       cx="4.9929786"
       cy="43.5"
       r="2.5"
       fx="4.9929786"
       fy="43.5"
       id="radialGradient4095"
       xlink:href="#linearGradient3688-464-309-8"
       gradientUnits="userSpaceOnUse"
       gradientTransform="matrix(2.003784,0,0,1.4,-20.01187,-104.4)" />
    <linearGradient
       id="linearGradient3688-464-309-8">
      <stop
         id="stop2889-9"
         style="stop-color:#181818;stop-opacity:1"
         offset="0" />
      <stop
         id="stop2891-4"
         style="stop-color:#181818;stop-opacity:0"
         offset="1" />
    </linearGradient>
    <linearGradient
       x1="25.058096"
       y1="47.027729"
       x2="25.058096"
       y2="39.999443"
       id="linearGradient4097"
       xlink:href="#linearGradient3702-501-757-0"
       gradientUnits="userSpaceOnUse" />
    <linearGradient
       id="linearGradient3702-501-757-0">
      <stop
         id="stop2895-0"
         style="stop-color:#181818;stop-opacity:0"
         offset="0" />
      <stop
         id="stop2897-2"
         style="stop-color:#181818;stop-opacity:1"
         offset="0.5" />
      <stop
         id="stop2899-6"
         style="stop-color:#181818;stop-opacity:0"
         offset="1" />
    </linearGradient>
    <linearGradient
       id="linearGradient3811">
      <stop
         id="stop3813"
         style="stop-color:#000000;stop-opacity:1"
         offset="0" />
      <stop
         id="stop3815"
         style="stop-color:#000000;stop-opacity:0"
         offset="1" />
    </linearGradient>
    <radialGradient
       cx="-4.0287771"
       cy="93.467628"
       r="35.338131"
       fx="-4.0287771"
       fy="93.467628"
       id="radialGradient4111"
       xlink:href="#linearGradient3811"
       gradientUnits="userSpaceOnUse"
       gradientTransform="matrix(1.5563924,0,0,0.16978827,70.270355,38.132101)" />
    <linearGradient
       inkscape:collect="always"
       xlink:href="#linearGradient3680-6-6-6-3-7-1-9"
       id="linearGradient4787"
       gradientUnits="userSpaceOnUse"
       gradientTransform="matrix(2.6375431,0,0,2.6375431,1.3780184,2.797842)"
       x1="20"
       y1="26.000008"
       x2="20"
       y2="13.000008" />
    <linearGradient
       inkscape:collect="always"
       xlink:href="#linearGradient3924-3"
       id="linearGradient4793-0"
       gradientUnits="userSpaceOnUse"
       gradientTransform="matrix(2.7297298,0,0,2.7297298,-1.5135186,1.488323)"
       x1="23.99999"
       y1="4.999989"
       x2="23.99999"
       y2="43" />
    <linearGradient
       id="linearGradient3924-3">
      <stop
         id="stop3926-7"
         style="stop-color:#ffffff;stop-opacity:1"
         offset="0" />
      <stop
         id="stop3928-2"
         style="stop-color:#ffffff;stop-opacity:0.23529412"
         offset="0.06316455" />
      <stop
         id="stop3930-8"
         style="stop-color:#ffffff;stop-opacity:0.15686275"
         offset="0.95056331" />
      <stop
         id="stop3932-9"
         style="stop-color:#ffffff;stop-opacity:0.39215687"
         offset="1" />
    </linearGradient>
    <radialGradient
       cx="4.9929786"
       cy="43.5"
       r="2.5"
       fx="4.9929786"
       fy="43.5"
       id="radialGradient4093-8"
       xlink:href="#linearGradient3688-166-749-5-9"
       gradientUnits="userSpaceOnUse"
       gradientTransform="matrix(2.003784,0,0,1.4,27.98813,-17.4)" />
    <linearGradient
       id="linearGradient3688-166-749-5-9">
      <stop
         id="stop2883-0-8"
         style="stop-color:#181818;stop-opacity:1"
         offset="0" />
      <stop
         id="stop2885-5-0"
         style="stop-color:#181818;stop-opacity:0"
         offset="1" />
    </linearGradient>
    <radialGradient
       cx="4.9929786"
       cy="43.5"
       r="2.5"
       fx="4.9929786"
       fy="43.5"
       id="radialGradient4095-6"
       xlink:href="#linearGradient3688-464-309-8-2"
       gradientUnits="userSpaceOnUse"
       gradientTransform="matrix(2.003784,0,0,1.4,-20.01187,-104.4)" />
    <linearGradient
       id="linearGradient3688-464-309-8-2">
      <stop
         id="stop2889-9-8"
         style="stop-color:#181818;stop-opacity:1"
         offset="0" />
      <stop
         id="stop2891-4-6"
         style="stop-color:#181818;stop-opacity:0"
         offset="1" />
    </linearGradient>
    <linearGradient
       x1="25.058096"
       y1="47.027729"
       x2="25.058096"
       y2="39.999443"
       id="linearGradient4097-0"
       xlink:href="#linearGradient3702-501-757-0-0"
       gradientUnits="userSpaceOnUse" />
    <linearGradient
       id="linearGradient3702-501-757-0-0">
      <stop
         id="stop2895-0-9"
         style="stop-color:#181818;stop-opacity:0"
         offset="0" />
      <stop
         id="stop2897-2-5"
         style="stop-color:#181818;stop-opacity:1"
         offset="0.5" />
      <stop
         id="stop2899-6-0"
         style="stop-color:#181818;stop-opacity:0"
         offset="1" />
    </linearGradient>
    <radialGradient
       inkscape:collect="always"
       xlink:href="#linearGradient3811-4"
       id="radialGradient4804-4"
       gradientUnits="userSpaceOnUse"
       gradientTransform="matrix(1.5563924,0,0,0.16978827,70.270355,102.1321)"
       cx="-4.0287771"
       cy="93.467628"
       fx="-4.0287771"
       fy="93.467628"
       r="35.338131" />
    <linearGradient
       id="linearGradient3811-4">
      <stop
         id="stop3813-7"
         style="stop-color:#000000;stop-opacity:1"
         offset="0" />
      <stop
         id="stop3815-9"
         style="stop-color:#000000;stop-opacity:0"
         offset="1" />
    </linearGradient>
    <radialGradient
       r="35.338131"
       fy="93.467628"
       fx="-4.0287771"
       cy="93.467628"
       cx="-4.0287771"
       gradientTransform="matrix(1.5563924,0,0,0.16978827,70.270354,102.1321)"
       gradientUnits="userSpaceOnUse"
       id="radialGradient5774"
       xlink:href="#linearGradient3811-4"
       inkscape:collect="always" />
    <radialGradient
       inkscape:collect="always"
       xlink:href="#linearGradient6224"
       id="radialGradient6230"
       cx="50.812172"
       cy="67.001808"
       fx="50.812172"
       fy="67.001808"
       r="51.5"
       gradientUnits="userSpaceOnUse"
       gradientTransform="matrix(-3.5343063e-8,3.8243288,-4.5225464,-4.1795737e-8,367.01879,-131.44296)" />
    <linearGradient
       inkscape:collect="always"
       xlink:href="#linearGradient2867-449-88-871-390-598-476-591-434-148-57-177-8-3-3-6-4-8-8-8-5-7-8"
       id="linearGradient6472"
       x1="35.539631"
       y1="67.377243"
       x2="115.4999"
       y2="67.377243"
       gradientUnits="userSpaceOnUse" />
    <linearGradient
       inkscape:collect="always"
       xlink:href="#linearGradient6474"
       id="linearGradient6480"
       x1="13.010341"
       y1="57.470501"
       x2="80.563507"
       y2="57.470501"
       gradientUnits="userSpaceOnUse" />
    <linearGradient
       inkscape:collect="always"
       xlink:href="#linearGradient6474-3"
       id="linearGradient6480-5"
       x1="13.010341"
       y1="57.470501"
       x2="80.563507"
       y2="57.470501"
       gradientUnits="userSpaceOnUse" />
    <linearGradient
       id="linearGradient6474-3">
      <stop
         style="stop-color:#ff9537;stop-opacity:1;"
         offset="0"
         id="stop6476-9" />
      <stop
         id="stop6484-5"
         offset="0.25"
         style="stop-color:#ff9435;stop-opacity:1;" />
      <stop
         id="stop6482-3"
         offset="0.5"
         style="stop-color:#ff9333;stop-opacity:1;" />
      <stop
         style="stop-color:#ff9231;stop-opacity:1;"
         offset="1"
         id="stop6478-3" />
    </linearGradient>
    <linearGradient
       id="linearGradient2867-449-88-871-390-598-476-591-434-148-57-177-8-3-3-6-4-8-8-8-5-7-8-4">
      <stop
         id="stop3750-1-0-7-6-6-1-3-9-3-9-2-6"
         style="stop-color:#ff8519;stop-opacity:1;"
         offset="0" />
      <stop
         id="stop3752-3-7-4-0-32-8-923-0-7-0-3-4"
         style="stop-color:#ff902d;stop-opacity:1;"
         offset="0.26238" />
      <stop
         id="stop3754-1-8-5-2-7-6-7-1-9-1-0-3"
         style="stop-color:#ff9b41;stop-opacity:1;"
         offset="0.75999999" />
      <stop
         id="stop3756-1-6-2-6-6-1-96-6-0-1-7-8"
         style="stop-color:#ffa555;stop-opacity:1;"
         offset="1" />
    </linearGradient>
    <linearGradient
       inkscape:collect="always"
       xlink:href="#linearGradient6474-0"
       id="linearGradient6480-7"
       x1="13.010341"
       y1="57.470501"
       x2="80.563507"
       y2="57.470501"
       gradientUnits="userSpaceOnUse" />
    <linearGradient
       id="linearGradient6474-0">
      <stop
         style="stop-color:#ff9537;stop-opacity:1;"
         offset="0"
         id="stop6476-8" />
      <stop
         id="stop6484-8"
         offset="0.25"
         style="stop-color:#ff9435;stop-opacity:1;" />
      <stop
         id="stop6482-5"
         offset="0.5"
         style="stop-color:#ff9333;stop-opacity:1;" />
      <stop
         style="stop-color:#ff9231;stop-opacity:1;"
         offset="1"
         id="stop6478-8" />
    </linearGradient>
    <linearGradient
       id="linearGradient2867-449-88-871-390-598-476-591-434-148-57-177-8-3-3-6-4-8-8-8-5-7-8-0">
      <stop
         id="stop3750-1-0-7-6-6-1-3-9-3-9-2-0"
         style="stop-color:#ff8519;stop-opacity:1;"
         offset="0" />
      <stop
         id="stop3752-3-7-4-0-32-8-923-0-7-0-3-8"
         style="stop-color:#ff902d;stop-opacity:1;"
         offset="0.26238" />
      <stop
         id="stop3754-1-8-5-2-7-6-7-1-9-1-0-2"
         style="stop-color:#ff9b41;stop-opacity:1;"
         offset="0.75999999" />
      <stop
         id="stop3756-1-6-2-6-6-1-96-6-0-1-7-9"
         style="stop-color:#ffa555;stop-opacity:1;"
         offset="1" />
    </linearGradient>
    <radialGradient
       inkscape:collect="always"
       xlink:href="#linearGradient6224-5"
       id="radialGradient6230-0"
       cx="50.812172"
       cy="67.001808"
       fx="50.812172"
       fy="67.001808"
       r="51.5"
       gradientUnits="userSpaceOnUse"
       gradientTransform="matrix(-3.5343063e-8,3.8243288,-4.5225464,-4.1795737e-8,367.01879,-131.44296)" />
    <linearGradient
       id="linearGradient6224-5">
      <stop
         style="stop-color:#307ed8;stop-opacity:1;"
         offset="0"
         id="stop6226-5" />
      <stop
         id="stop6234-6"
         offset="0.28"
         style="stop-color:#246bbe;stop-opacity:1;" />
      <stop
         id="stop6232-3"
         offset="0.69999999"
         style="stop-color:#307ed8;stop-opacity:1;" />
      <stop
         style="stop-color:#000000;stop-opacity:1;"
         offset="1"
         id="stop6228-2" />
    </linearGradient>
    <linearGradient
       inkscape:collect="always"
       xlink:href="#linearGradient3104"
       id="linearGradient8110"
       gradientUnits="userSpaceOnUse"
       gradientTransform="matrix(2.6665808,0,0,2.6665808,-0.33290486,-0.745899)"
       x1="22.004084"
       y1="44.854229"
       x2="22.004084"
       y2="3.0718794" />
    <linearGradient
       id="linearGradient3104">
      <stop
         id="stop3106"
         style="stop-color:#a0a0a0;stop-opacity:1"
         offset="0" />
      <stop
         id="stop3108"
         style="stop-color:#c8c8c8;stop-opacity:1"
         offset="1" />
    </linearGradient>
    <linearGradient
       y2="3.0718794"
       x2="22.004084"
       y1="44.854229"
       x1="22.004084"
       gradientTransform="matrix(2.6665808,0,0,2.6665808,0.25399105,12.255916)"
       gradientUnits="userSpaceOnUse"
       id="linearGradient8187"
       xlink:href="#linearGradient3104"
       inkscape:collect="always" />
    <linearGradient
       inkscape:collect="always"
       xlink:href="#linearGradient8714"
       id="linearGradient8720"
       x1="12.931034"
       y1="58.482758"
       x2="115.51723"
       y2="58.482758"
       gradientUnits="userSpaceOnUse"
       gradientTransform="matrix(1,0,0,1.512563,0,-24.98873)" />
    <linearGradient
       inkscape:collect="always"
       xlink:href="#linearGradient8714"
       id="linearGradient8722"
       gradientUnits="userSpaceOnUse"
       gradientTransform="matrix(1.0040337,0,0,1.6571428,-0.4832075,-29.912464)"
       x1="12.931034"
       y1="58.482758"
       x2="115.51723"
       y2="58.482758" />
    <linearGradient
       inkscape:collect="always"
       xlink:href="#linearGradient3104-7"
       id="linearGradient8110-3"
       gradientUnits="userSpaceOnUse"
       gradientTransform="matrix(2.6665808,0,0,2.6665808,-0.33290486,-0.745899)"
       x1="22.004084"
       y1="44.854229"
       x2="22.004084"
       y2="3.0718794" />
    <linearGradient
       id="linearGradient3104-7">
      <stop
         id="stop3106-7"
         style="stop-color:#a0a0a0;stop-opacity:1"
         offset="0" />
      <stop
         id="stop3108-2"
         style="stop-color:#c8c8c8;stop-opacity:1"
         offset="1" />
    </linearGradient>
    <linearGradient
       y2="3.0718794"
       x2="22.004084"
       y1="44.854229"
       x1="22.004084"
       gradientTransform="matrix(2.6665808,0,0,2.6665808,-3.9634909,-1.2440866)"
       gradientUnits="userSpaceOnUse"
       id="linearGradient8741"
       xlink:href="#linearGradient3104-7"
       inkscape:collect="always" />
  </defs>
  <metadata
     id="metadata4118">
    <rdf:RDF>
      <cc:Work
         rdf:about="">
        <dc:format>image/svg+xml</dc:format>
        <dc:type
           rdf:resource="http://purl.org/dc/dcmitype/StillImage" />
        <dc:title></dc:title>
      </cc:Work>
    </rdf:RDF>
  </metadata>
  <g
     inkscape:groupmode="layer"
     id="layer5"
     inkscape:label="base">
    <path
       inkscape:connector-curvature="0"
       style="opacity:0.2;color:#000000;fill:url(#radialGradient5774);fill-opacity:1;fill-rule:nonzero;stroke:none;stroke-width:1;marker:none;visibility:visible;display:inline;overflow:visible;enable-background:accumulate"
       id="path3041"
       d="m 119,118.00181 a 55,6 0 0 1 -109.9999987,0 55,6 0 1 1 109.9999987,0 z" />
    <g
       style="display:inline"
       id="g2036"
       transform="matrix(2.6999989,0,0,0.55555607,-0.80000855,94.890693)">
      <g
         style="opacity:0.4"
         id="g3712"
         transform="matrix(1.052632,0,0,1.285713,-1.263158,-13.42854)">
        <rect
           style="fill:url(#radialGradient4093-8);fill-opacity:1;stroke:none"
           id="rect2801"
           y="40"
           x="38"
           height="7"
           width="5" />
        <rect
           style="fill:url(#radialGradient4095-6);fill-opacity:1;stroke:none"
           id="rect3696"
           transform="scale(-1,-1)"
           y="-47"
           x="-10"
           height="7"
           width="5" />
        <rect
           style="fill:url(#linearGradient4097-0);fill-opacity:1;stroke:none"
           id="rect3700"
           y="40"
           x="10"
           height="7.0000005"
           width="28" />
      </g>
    </g>
    <rect
       style="opacity:0.90000000000000002;color:#000000;fill:url(#radialGradient6230);fill-opacity:1;fill-rule:nonzero;stroke:none;stroke-width:0.99999994000000003;marker:none;visibility:visible;display:inline;overflow:visible;enable-background:accumulate"
       id="rect5505-21-3"
       y="15.50181"
       x="12.499987"
       ry="6.0545406"
       rx="6.0545406"
       height="103"
       width="103" />
    <path
       inkscape:connector-curvature="0"
       style="fill:none;stroke:url(#linearGradient8741);stroke-width:1px;stroke-linecap:butt;stroke-linejoin:miter;stroke-opacity:1"
       id="path3715-7"
       d="m 30.699217,30.001808 6.261052,0 m 0.894438,0 5.813834,0 m 0.935853,0 5.187729,0 m 0.85302,0 2.236088,0 m 0.894438,0 5.008837,0 m 0.98389,0 13.1482,0 m 0.89444,0 10.01769,0 m 0.89443,0 3.04109,0 m -57.065029,5 9.70804,0 m 1.129462,0 4.638723,0 m 0.857511,0 2.289126,0 m 0.931362,0 4.272945,0 m 0.894438,0 4.382112,0 m 0.8272,0 6.88096,0 m 0.89444,0 9.07759,0 m -46.783909,4.973369 8.216874,0 m 0.863183,0 13.532463,0 m 0.829387,0 6.562952,0 m 0.84118,0 6.13956,0 m 0.88046,0 5.23002,0 m 0.84118,0 8.2255,0.05326 m -52.162759,4.97337 11.424571,0 m 0.897126,0 12.34781,0 m 0.853021,0 4.852271,0 m 0.89444,0 11.5493,0 m 0.77734,0 7.91584,0 m 0.89444,0 3.13299,0 m 0.89444,0 1.73299,0 m -58.166579,5 4.26449,0 m 1.310208,0 15.790156,0 m -21.364854,27 9.70804,0 m 1.129462,0 4.638723,0 m 0.857511,0 2.289126,0 m 0.931362,0 4.272945,0 m 0.894438,0 4.382112,0 m 0.8272,0 6.88096,0 m -36.811879,10.918189 8.216874,0 m 0.863183,0 13.532463,0 m 0.829387,0 6.562952,0 m 23.19205,0.163622 13.40463,0 m -66.601539,-16.081811 11.424571,0 m 0.897126,0 12.34781,0 m 0.853021,0 4.852271,0 m 0.89444,0 11.5493,0 m -42.818539,-11 6.261052,0 m 0.894438,0 5.813834,0 m 0.935853,0 5.187729,0 m 0.85302,0 2.236088,0 m 0.894438,0 5.008837,0 m 0.98389,0 13.1482,0 m 0.89444,0 10.01769,0 m -53.129509,6 10.544418,0 m 0.829422,0 11.196842,0 m 0.85302,0 4.378347,0 m 0.82673,0 10.53374,0 m 0.84504,0 11.50416,0 m -51.511719,26 9.853568,0 m 1.057734,0 4.34417,0 m 1.0175,0 2.166749,0 m 0.689725,0 4.277289,0 m 0.567845,0 22.644829,0 m 1.06553,0 6.04483,0 m 0.81279,0 1.52628,0 m -44.843224,6 3.21427,0 m -14.439885,0 10.284685,0 m 4.977259,0 7.478553,0 m 0.791095,0 10.978057,0 m 0.85302,0 7.44738,0 m 0.74968,0 1.53464,0 m 0.83913,0 9.45687,0 m 0.96682,0 4.95115,0 m -50.082724,5.000003 4.538384,0 m -15.763999,0 10.284685,0 m 6.462851,0 6.380506,0" />
    <rect
       style="opacity:0.1;fill:url(#linearGradient8722);fill-opacity:1;stroke:none"
       id="rect6711"
       width="103"
       height="80"
       x="12.499987"
       y="27.00181" />
    <path
       style="opacity:0.15;fill:#000000;fill-opacity:1;stroke:none"
       d="m 58.028945,56.559644 c 1.829476,0 5.763167,-1.196827 8.232645,0 1.281752,0.621198 2.255568,1.984681 2.647524,3.35404 0.759805,2.654502 0.03096,5.638547 -0.91474,8.232644 -0.92076,2.525682 -2.406823,4.993073 -4.477,6.708077 -2.540723,2.10482 -5.856878,3.324388 -9.111248,3.867174 -3.561972,0.594089 -7.422347,0.493567 -10.806335,-0.767072 C 39.56703,76.452179 36.042979,73.504766 33.262421,70.220158 30.255862,66.668581 28.179545,62.401812 26.859255,57.815429 25.37903,52.673473 25.636178,47.625016 26.58219,42.71433 c 0.76929,-3.993333 2.253754,-8.006865 4.460301,-11.422959 2.466263,-3.818178 5.9668,-6.978203 9.668543,-9.616021 2.908918,-2.072862 9.622819,-4.7147 9.622819,-4.7147 0,0 -31.103019,0 -31.920409,0 -3.50759,0 -5.403103,3.382007 -5.403103,5.082217 0,0.85972 0,67.794841 0,67.794841 0,0 6.617867,3.799024 10.16038,5.17705 5.701617,2.21791 11.574808,4.601911 17.684941,4.908254 6.110443,0.306358 12.510662,-0.600262 18.088106,-3.114914 6.25476,-2.820027 12.146963,-7.244627 16.04885,-12.888195 3.035726,-4.390779 5.36729,-9.899581 4.971345,-15.222907 -0.487352,-6.552259 -3.173015,-14.273257 -8.823678,-17.625811 -2.449063,-1.453035 -5.963267,-0.91255 -8.537564,0.304912 -2.083076,0.985149 -3.76059,2.845853 -4.573691,5.183517 z"
       id="path6446-4-1"
       inkscape:connector-curvature="0"
       sodipodi:nodetypes="caaaaaassssacsscaaaaaaacc" />
    <path
       style="fill:url(#linearGradient6480);fill-opacity:1;stroke:none"
       d="m 58.028945,55.559683 c 1.829476,0 5.763167,-1.196827 8.232645,0 1.281752,0.621198 2.255568,1.984681 2.647524,3.35404 0.759805,2.654502 0.03096,5.638547 -0.91474,8.232644 -0.92076,2.525682 -2.406823,4.993073 -4.477,6.708077 -2.540723,2.10482 -5.856878,3.324388 -9.111248,3.867174 -3.561972,0.594089 -7.422347,0.493567 -10.806335,-0.767072 C 39.56703,75.452218 36.042979,72.504805 33.262421,69.220197 30.255862,65.66862 28.179545,61.401851 26.859255,56.815468 25.37903,51.673512 25.23988,46.625055 26.185892,41.714369 c 0.76929,-3.993333 2.650052,-8.006865 4.856599,-11.422959 2.466263,-3.818178 5.966804,-6.978203 9.668543,-9.616021 2.908918,-2.072862 9.622819,-4.7147 9.622819,-4.7147 0,0 -31.103019,0 -31.920409,0 -3.50759,0 -5.403103,3.382007 -5.403103,5.082217 0,0.85972 0,67.794841 0,67.794841 0,0 6.617867,3.799024 10.16038,5.17705 5.701617,2.21791 11.574808,4.601911 17.684941,4.908254 6.110443,0.306357 12.510662,-0.600262 18.088106,-3.114914 6.25476,-2.820027 12.146963,-7.244627 16.04885,-12.888195 3.035726,-4.390779 5.36729,-9.899581 4.971345,-15.222907 -0.487352,-6.552259 -3.173015,-14.273257 -8.823678,-17.625811 -2.449063,-1.453035 -5.963267,-0.91255 -8.537564,0.304912 -2.083076,0.985149 -3.76059,2.845853 -4.573691,5.183517 z"
       id="path6446-4"
       inkscape:connector-curvature="0"
       sodipodi:nodetypes="caaaaaassssacsscaaaaaaacc" />
    <path
       style="fill:#000000;fill-opacity:1;stroke:none;opacity:0.15"
       d="m 58.481308,59.878007 c -1.829476,0 -5.92564,1.000169 -8.232644,-0.49505 -1.532921,-0.993518 -2.163291,-2.919642 -2.534276,-4.85899 -0.748815,-5.059754 1.515357,-10.126859 5.278491,-12.940724 3.718259,-2.701816 8.515148,-4.235258 13.111248,-4.268779 4.468468,-0.03259 8.992266,1.635529 12.806335,3.963866 3.399371,2.07518 6.091615,5.263092 8.358765,8.537557 2.681229,3.87252 4.869942,8.226971 5.972134,12.806335 1.320585,5.48674 1.648122,11.372203 0.609825,16.919292 -0.94674,5.057948 -3.301775,9.862218 -6.098255,14.181807 -3.469216,5.358731 -8.095359,9.964919 -12.955427,14.103899 -2.735508,2.32964 -5.970342,4.00053 -8.99829,5.93489 -2.517761,1.60844 -7.622819,4.7147 -7.622819,4.7147 0,0 50.776205,0 51.593595,0 3.50759,0 5.72991,-3.54541 5.72991,-5.24562 0,-0.85972 0,-66.221608 0,-66.221608 0,0 -10.33766,-7.429508 -16.160374,-10.596586 C 92.544931,32.717294 84.16024,29.54625 78.189239,28.600042 60.272403,25.76081 40.760584,32.320537 40.107817,49.206091 c -0.218843,5.660948 1.608287,10.439336 5.26215,13.685127 2.195291,1.950116 5.768696,2.537907 8.53756,1.675286 2.084463,-0.6494 3.76059,-2.350803 4.573691,-4.688467 z"
       id="path6446-6"
       inkscape:connector-curvature="0"
       sodipodi:nodetypes="caccaaaaaaaacsscssssacc" />
    <path
       style="fill:url(#linearGradient6472);fill-opacity:1;stroke:none"
       d="m 58.481308,58.878046 c -1.829476,0 -5.92564,1.000169 -8.232644,-0.49505 -1.532921,-0.993518 -2.163291,-2.919642 -2.534276,-4.85899 -0.748815,-5.059754 1.515357,-10.126859 5.278491,-12.940724 3.718259,-2.701816 8.515148,-4.235258 13.111248,-4.268779 4.468468,-0.03259 8.992266,1.635529 12.806335,3.963866 3.399371,2.07518 6.091615,5.263092 8.358765,8.537557 2.681229,3.87252 4.869942,8.226971 5.972134,12.806335 1.320585,5.48674 1.648122,11.372203 0.609825,16.919292 -0.94674,5.057948 -3.301775,9.862218 -6.098255,14.181807 -3.469216,5.358731 -8.250843,9.789 -12.955427,14.1039 -2.79082,2.55965 -5.884145,4.78041 -8.99829,6.93508 -2.456913,1.69993 -7.622819,4.7147 -7.622819,4.7147 0,0 50.776205,0 51.593595,0 3.50759,0 5.72991,-3.54541 5.72991,-5.24562 0,-0.85972 0,-67.221799 0,-67.221799 0,0 -10.33766,-7.429508 -16.160374,-10.596586 C 92.544931,31.717333 84.16024,28.546289 78.189239,27.600081 60.272403,24.760849 40.760584,31.320576 40.107817,48.20613 c -0.218843,5.660948 1.608287,10.439336 5.26215,13.685127 2.195291,1.950116 5.768696,2.537907 8.53756,1.675286 2.084463,-0.6494 3.76059,-2.350803 4.573691,-4.688467 z"
       id="path6446"
       inkscape:connector-curvature="0"
       sodipodi:nodetypes="caccaaaaaaaacsscssssacc" />
    <rect
       style="opacity:0.3;fill:none;stroke:url(#linearGradient4793-0);stroke-width:0.99999994;stroke-linecap:round;stroke-linejoin:round;stroke-miterlimit:4;stroke-opacity:1;stroke-dasharray:none;stroke-dashoffset:0"
       id="rect6741-7"
       y="16.50181"
       x="13.499987"
       ry="5"
       rx="5"
       height="101"
       width="101" />
    <rect
       style="opacity:0.69999999999999996;color:#000000;fill:none;stroke:#1d589b;stroke-width:1;stroke-linecap:round;stroke-linejoin:round;stroke-miterlimit:4;stroke-opacity:1;stroke-dasharray:none;stroke-dashoffset:0;marker:none;visibility:visible;display:inline;overflow:visible;enable-background:accumulate"
       id="rect5505-21-3-1"
       y="15.50181"
       x="12.499987"
       ry="6.0545406"
       rx="6.0545406"
       height="103"
       width="103" />
  </g>
  <g
     inkscape:groupmode="layer"
     id="layer4"
     inkscape:label="border"
     style="display:inline" />
  <g
     inkscape:groupmode="layer"
     id="layer3"
     inkscape:label="shadow"
     style="display:inline" />
  <g
     inkscape:groupmode="layer"
     id="layer2"
     inkscape:label="icon"
     style="display:inline" />
</svg>
