<?xml version="1.0" encoding="UTF-8" standalone="no"?>
<svg
   xmlns:dc="http://purl.org/dc/elements/1.1/"
   xmlns:cc="http://creativecommons.org/ns#"
   xmlns:rdf="http://www.w3.org/1999/02/22-rdf-syntax-ns#"
   xmlns:svg="http://www.w3.org/2000/svg"
   xmlns="http://www.w3.org/2000/svg"
   xmlns:xlink="http://www.w3.org/1999/xlink"
   xmlns:sodipodi="http://sodipodi.sourceforge.net/DTD/sodipodi-0.dtd"
   xmlns:inkscape="http://www.inkscape.org/namespaces/inkscape"
   version="1.1"
   width="16"
   height="16"
   id="svg4060"
   inkscape:version="0.48.4 r9939"
   sodipodi:docname="vlc.svg">
  <sodipodi:namedview
     pagecolor="#ffffff"
     bordercolor="#666666"
     borderopacity="1"
     objecttolerance="10"
     gridtolerance="10"
     guidetolerance="10"
     inkscape:pageopacity="0"
     inkscape:pageshadow="2"
     inkscape:window-width="1366"
     inkscape:window-height="713"
     id="namedview11509"
     showgrid="false"
     inkscape:zoom="51.856661"
     inkscape:cx="6.9091826"
     inkscape:cy="5.7230454"
     inkscape:window-x="0"
     inkscape:window-y="30"
     inkscape:window-maximized="1"
     inkscape:current-layer="svg4060"
     inkscape:snap-bbox="true"
     inkscape:bbox-nodes="true"
     inkscape:snap-bbox-edge-midpoints="true" />
  <defs
     id="defs4062">
    <linearGradient
       x1="20"
       y1="26.000008"
       x2="20"
       y2="13.000008"
       id="linearGradient3965"
       xlink:href="#linearGradient3680-6-6-6-3-7-4"
       gradientUnits="userSpaceOnUse"
       gradientTransform="matrix(0.34453791,0,0,0.34453791,-0.032751,-0.124165)" />
    <linearGradient
       id="linearGradient3680-6-6-6-3-7-4">
      <stop
         id="stop3682-4-6-1-3-7-5"
         style="stop-color:#dcdcdc;stop-opacity:1"
         offset="0" />
      <stop
         id="stop3684-8-5-8-0-2-3"
         style="stop-color:#ffffff;stop-opacity:1"
         offset="1" />
    </linearGradient>
    <linearGradient
       x1="23.99999"
       y1="4.999989"
       x2="23.99999"
       y2="43"
       id="linearGradient3896"
       xlink:href="#linearGradient3924-4-8"
       gradientUnits="userSpaceOnUse"
       gradientTransform="matrix(0.2972973,0,0,0.2972973,0.86486973,0.8648672)" />
    <linearGradient
       id="linearGradient3924-4-8">
      <stop
         id="stop3926-0-4"
         style="stop-color:#ffffff;stop-opacity:1"
         offset="0" />
      <stop
         id="stop3928-6-8"
         style="stop-color:#ffffff;stop-opacity:0.23529412"
         offset="0.06316455" />
      <stop
         id="stop3930-2-1"
         style="stop-color:#ffffff;stop-opacity:0.15686275"
         offset="0.95056331" />
      <stop
         id="stop3932-9-0"
         style="stop-color:#ffffff;stop-opacity:0.39215687"
         offset="1" />
    </linearGradient>
    <linearGradient
       id="linearGradient2867-449-88-871-390-598-476-591-434-148-57-177-8-3-3-6-4-8-8-8-5-7">
      <stop
         id="stop3750-1-0-7-6-6-1-3-9-3-0"
         style="stop-color:#ee4e16;stop-opacity:1;"
         offset="0" />
      <stop
         id="stop3752-3-7-4-0-32-8-923-0-7-8"
         style="stop-color:#d83e0f;stop-opacity:1;"
         offset="0.26238" />
      <stop
         id="stop3754-1-8-5-2-7-6-7-1-9-4"
         style="stop-color:#b03a00;stop-opacity:1;"
         offset="0.704952" />
      <stop
         id="stop3756-1-6-2-6-6-1-96-6-0-0"
         style="stop-color:#000000;stop-opacity:1"
         offset="1" />
    </linearGradient>
    <radialGradient
       cx="7.1183534"
       cy="9.9571075"
       r="12.671875"
       fx="7.1183534"
       fy="9.9571075"
       id="radialGradient4058"
       xlink:href="#linearGradient2867-449-88-871-390-598-476-591-434-148-57-177-8-3-3-6-4-8-8-8-5-7"
       gradientUnits="userSpaceOnUse"
       gradientTransform="matrix(0,3.0467483,-3.7404337,0,45.520924,-26.295845)" />
    <radialGradient
       cx="7.1183534"
       cy="9.9571075"
       r="12.671875"
       fx="7.1183534"
       fy="9.9571075"
       id="radialGradient4058-3"
       xlink:href="#linearGradient2867-449-88-871-390-598-476-591-434-148-57-177-8-3-3-6-4-8-8-8-5-7-0"
       gradientUnits="userSpaceOnUse"
       gradientTransform="matrix(0,3.0467483,-3.7404337,0,45.520924,-26.295845)" />
    <linearGradient
       id="linearGradient2867-449-88-871-390-598-476-591-434-148-57-177-8-3-3-6-4-8-8-8-5-7-0">
      <stop
         id="stop3750-1-0-7-6-6-1-3-9-3-0-0"
         style="stop-color:#ee4e16;stop-opacity:1;"
         offset="0" />
      <stop
         id="stop3752-3-7-4-0-32-8-923-0-7-8-2"
         style="stop-color:#d83e0f;stop-opacity:1;"
         offset="0.26238" />
      <stop
         id="stop3754-1-8-5-2-7-6-7-1-9-4-4"
         style="stop-color:#b03a00;stop-opacity:1;"
         offset="0.704952" />
      <stop
         id="stop3756-1-6-2-6-6-1-96-6-0-0-7"
         style="stop-color:#000000;stop-opacity:1"
         offset="1" />
    </linearGradient>
    <radialGradient
       cx="7.1183534"
       cy="9.9571075"
       r="12.671875"
       fx="7.1183534"
       fy="9.9571075"
       id="radialGradient4058-6"
       xlink:href="#linearGradient2867-449-88-871-390-598-476-591-434-148-57-177-8-3-3-6-4-8-8-8-5-7-2"
       gradientUnits="userSpaceOnUse"
       gradientTransform="matrix(0,3.0467483,-3.7404337,0,45.520924,-26.295845)" />
    <linearGradient
       id="linearGradient2867-449-88-871-390-598-476-591-434-148-57-177-8-3-3-6-4-8-8-8-5-7-2">
      <stop
         id="stop3750-1-0-7-6-6-1-3-9-3-0-03"
         style="stop-color:#ee4e16;stop-opacity:1;"
         offset="0" />
      <stop
         id="stop3752-3-7-4-0-32-8-923-0-7-8-1"
         style="stop-color:#d83e0f;stop-opacity:1;"
         offset="0.26238" />
      <stop
         id="stop3754-1-8-5-2-7-6-7-1-9-4-0"
         style="stop-color:#b03a00;stop-opacity:1;"
         offset="0.704952" />
      <stop
         id="stop3756-1-6-2-6-6-1-96-6-0-0-75"
         style="stop-color:#000000;stop-opacity:1"
         offset="1" />
    </linearGradient>
    <radialGradient
       r="12.671875"
       fy="9.9571075"
       fx="7.1183534"
       cy="9.9571075"
       cx="7.1183534"
       gradientTransform="matrix(0,3.0467483,-3.7404337,0,45.520924,-26.295845)"
       gradientUnits="userSpaceOnUse"
       id="radialGradient5856"
       xlink:href="#linearGradient2867-449-88-871-390-598-476-591-434-148-57-177-8-3-3-6-4-8-8-8-5-7-2"
       inkscape:collect="always" />
  </defs>
  <metadata
     id="metadata4065">
    <rdf:RDF>
      <cc:Work
         rdf:about="">
        <dc:format>image/svg+xml</dc:format>
        <dc:type
           rdf:resource="http://purl.org/dc/dcmitype/StillImage" />
        <dc:title />
      </cc:Work>
    </rdf:RDF>
  </metadata>
  <rect
     style="color:#000000;display:inline;overflow:visible;visibility:visible;opacity:0.95;fill:url(#radialGradient4058);fill-opacity:1;fill-rule:nonzero;stroke:none;stroke-width:0.99999994000000003;marker:none;enable-background:accumulate"
     id="rect5505-21-7"
     y="1.4999985"
     x="1.5000014"
     ry="1"
     rx="1"
     height="13"
     width="13" />
  <rect
     style="opacity:0.3;fill:none;stroke:url(#linearGradient3896);stroke-width:1;stroke-linecap:round;stroke-linejoin:round;stroke-miterlimit:4;stroke-dasharray:none;stroke-dashoffset:0;stroke-opacity:1"
     id="rect6741-0-3"
     y="2.4999969"
     x="2.5"
     height="11"
     width="11" />
  <path
     style="opacity:0.95;color:#000000;fill:#ffffff;fill-opacity:1;fill-rule:nonzero;stroke:none;stroke-width:0.99999994;marker:none;visibility:visible;display:inline;overflow:visible;enable-background:accumulate"
     d="m 2.5000014,11.999999 10.9999996,0 1,2e-6 0,1.499997 c 0,0.554 -0.446,1 -1,1 l -10.9999996,0 c -0.554,0 -1,-0.446 -1,-1 l 0,-1.499997 z"
     id="rect5505-21-7-7"
     inkscape:connector-curvature="0"
     sodipodi:nodetypes="cccsssscc" />
  <rect
     style="color:#000000;display:inline;overflow:visible;visibility:visible;opacity:0.69999999999999996;fill:none;stroke:#aa350c;stroke-width:1;stroke-linecap:round;stroke-linejoin:round;stroke-miterlimit:4;stroke-dasharray:none;stroke-dashoffset:0;stroke-opacity:1;marker:none;enable-background:accumulate"
     id="rect5505-21-2-8"
     y="1.499997"
     x="1.5"
     ry="1"
     rx="1"
     height="13.000003"
     width="13.000003" />
  <g
     transform="matrix(0.12580645,0,0,0.12580645,-0.05160972,-0.05211953)"
     id="g10631">
    <g
       id="g9679">
      <g
         id="g9674">
        <path
           inkscape:connector-curvature="0"
           id="path4044-6"
           d="m 52.330589,46.591743 a 1.999579,2.0185621 0 0 0 -1.828596,2.016169 l 0,25.999198 a 1.999579,2.0185621 0 0 0 2.953885,1.734843 l 2.555345,-1.430074 0,-26.608737 -2.555345,-1.453517 a 1.999579,2.0185621 0 0 0 -1.125289,-0.257882 z m 8.674107,4.524658 0,20.98222 6.001544,-3.37591 0,-14.2304 -6.001544,-3.37591 z m 10.995017,6.212612 0,8.556995 4.501158,-2.531932 a 1.999579,2.0185621 0 0 0 0,-3.49313 l -4.501158,-2.531933 z"
           style="opacity:0.15;fill:#000000;fill-opacity:1;fill-rule:evenodd;stroke:none" />
        <path
           inkscape:connector-curvature="0"
           id="path4044-6-3"
           d="m 52.330589,46.591743 a 1.999579,2.0185621 0 0 0 -1.828596,2.016169 l 0,25.999198 a 1.999579,2.0185621 0 0 0 2.953885,1.734843 l 2.555345,-1.430074 0,-26.608737 -2.555345,-1.453517 a 1.999579,2.0185621 0 0 0 -1.125289,-0.257882 z m 8.674107,4.524658 0,20.98222 6.001544,-3.37591 0,-14.2304 -6.001544,-3.37591 z m 10.995017,6.212612 0,8.556995 4.501158,-2.531932 a 1.999579,2.0185621 0 0 0 0,-3.49313 l -4.501158,-2.531933 z"
           style="opacity:0.07000002;fill:#000000;fill-opacity:1;fill-rule:evenodd;stroke:#000000;stroke-linecap:round;stroke-linejoin:round;stroke-opacity:1" />
        <path
           inkscape:connector-curvature="0"
           id="path4044"
           d="m 52.330445,46.591743 a 1.9996036,2.0185621 0 0 0 -1.828618,2.016169 l 0,25.999198 a 1.9996036,2.0185621 0 0 0 2.953921,1.734843 l 2.555377,-1.430074 0,-26.608737 -2.555377,-1.453517 a 1.9996036,2.0185621 0 0 0 -1.125303,-0.257882 z m 8.674214,4.524658 0,20.98222 6.001618,-3.37591 0,-14.2304 -6.001618,-3.37591 z m 10.995152,6.212612 0,8.556995 4.501214,-2.531932 a 1.9996036,2.0185621 0 0 0 0,-3.49313 l -4.501214,-2.531933 z"
           style="fill:#fafafa;fill-opacity:1;fill-rule:evenodd;stroke:none" />
      </g>
    </g>
  </g>
  <g
     transform="matrix(0.11333332,0,0,0.11333332,0.74666971,0.73961828)"
     id="g7513">
    <path
       inkscape:connector-curvature="0"
       id="rect4147-1-6-3"
       d="m 33.90625,105.094 c -1.400697,0 -2.628052,0.8114 -3.1875,2 l -10.875,0 C 19.36817,107.094 19,107.46217 19,107.93775 l 0,1.28125 c 0,0.47558 0.36817,0.875 0.84375,0.875 l 10.90625,0 c 0.567178,1.16801 1.770593,2 3.15625,2 1.385657,0 2.557822,-0.83199 3.125,-2 l 71.125,0 c 0.47558,0 0.84375,-0.39942 0.84375,-0.875 l 0,-1.28125 c 0,-0.47558 -0.36817,-0.84375 -0.84375,-0.84375 l -71.09375,0 c -0.559448,-1.1886 -1.755553,-2 -3.15625,-2 z"
       style="opacity:0.15;fill:#000000;fill-opacity:1;stroke:none" />
    <rect
       ry="0.97260273"
       rx="0.97260273"
       y="106.58635"
       x="18.999987"
       height="3"
       width="90"
       id="rect4147-19"
       style="fill:#333333;fill-opacity:1;stroke:none" />
    <rect
       ry="0.5"
       rx="0.5"
       y="107.58635"
       x="19.999987"
       height="1"
       width="88"
       id="rect4147-8-7"
       style="opacity:0.15;fill:#ffffff;fill-opacity:1;stroke:none" />
    <g
       id="g7508">
      <path
         sodipodi:type="arc"
         style="fill:#282828;fill-opacity:1;stroke:none"
         id="path4205-9-8"
         sodipodi:cx="-0.45180723"
         sodipodi:cy="107.36747"
         sodipodi:rx="8.2831326"
         sodipodi:ry="8.2831326"
         d="m 7.8313253,107.36747 c 0,4.57465 -3.7084847,8.28313 -8.28313253,8.28313 -4.57464777,0 -8.28313257,-3.70848 -8.28313257,-8.28313 0,-4.57465 3.7084848,-8.283133 8.28313257,-8.283133 4.57464783,0 8.28313253,3.708483 8.28313253,8.283133 z"
         transform="matrix(0.4225685,0,0,0.4225685,34.082742,62.71624)" />
      <path
         sodipodi:type="arc"
         style="opacity:0.8;fill:#4d4d4d;fill-opacity:1;stroke:none"
         id="path4205-6"
         sodipodi:cx="-0.45180723"
         sodipodi:cy="107.36747"
         sodipodi:rx="8.2831326"
         sodipodi:ry="8.2831326"
         d="m 7.8313253,107.36747 c 0,4.57465 -3.7084847,8.28313 -8.28313253,8.28313 -4.57464777,0 -8.28313257,-3.70848 -8.28313257,-8.28313 0,-4.57465 3.7084848,-8.283133 8.28313257,-8.283133 4.57464783,0 8.28313253,3.708483 8.28313253,8.283133 z"
         transform="matrix(0.31688613,0,0,0.31688613,34.034994,74.063089)" />
      <path
         sodipodi:type="arc"
         style="opacity:0.8;fill:#333333;fill-opacity:1;stroke:none"
         id="path4205-4"
         sodipodi:cx="-0.45180723"
         sodipodi:cy="107.36747"
         sodipodi:rx="8.2831326"
         sodipodi:ry="8.2831326"
         d="m 7.8313253,107.36747 c 0,4.57465 -3.7084847,8.28313 -8.28313253,8.28313 -4.57464777,0 -8.28313257,-3.70848 -8.28313257,-8.28313 0,-4.57465 3.7084848,-8.283133 8.28313257,-8.283133 4.57464783,0 8.28313253,3.708483 8.28313253,8.283133 z"
         transform="matrix(0.18109091,0,0,0.18109091,33.973641,88.643078)" />
    </g>
  </g>
</svg>
