<?xml version="1.0" encoding="UTF-8" standalone="no"?>
<svg
   xmlns:dc="http://purl.org/dc/elements/1.1/"
   xmlns:cc="http://creativecommons.org/ns#"
   xmlns:rdf="http://www.w3.org/1999/02/22-rdf-syntax-ns#"
   xmlns:svg="http://www.w3.org/2000/svg"
   xmlns="http://www.w3.org/2000/svg"
   xmlns:xlink="http://www.w3.org/1999/xlink"
   xmlns:sodipodi="http://sodipodi.sourceforge.net/DTD/sodipodi-0.dtd"
   xmlns:inkscape="http://www.inkscape.org/namespaces/inkscape"
   version="1.1"
   width="16"
   height="16"
   id="svg7567"
   inkscape:version="0.48.4 r9939"
   sodipodi:docname="weka.svg">
  <sodipodi:namedview
     pagecolor="#ffffff"
     bordercolor="#666666"
     borderopacity="1"
     objecttolerance="10"
     gridtolerance="10"
     guidetolerance="10"
     inkscape:pageopacity="0"
     inkscape:pageshadow="2"
     inkscape:window-width="1366"
     inkscape:window-height="713"
     id="namedview17139"
     showgrid="false"
     inkscape:zoom="11.42"
     inkscape:cx="-15.591944"
     inkscape:cy="8"
     inkscape:window-x="0"
     inkscape:window-y="30"
     inkscape:window-maximized="1"
     inkscape:current-layer="svg7567" />
  <defs
     id="defs7569">
    <linearGradient
       id="linearGradient11744">
      <stop
         style="stop-color:#d45500;stop-opacity:1;"
         offset="0"
         id="stop11746" />
      <stop
         id="stop11752"
         offset="0.5"
         style="stop-color:#d45500;stop-opacity:0.78431374;" />
      <stop
         style="stop-color:#d45500;stop-opacity:0.58823532;"
         offset="0.80000001"
         id="stop11754" />
      <stop
         style="stop-color:#000000;stop-opacity:0.78431374;"
         offset="1"
         id="stop11748" />
    </linearGradient>
    <linearGradient
       id="linearGradient4632-92-3-0-8-1-7">
      <stop
         id="stop4634-68-8-0-2-9-4"
         style="stop-color:#fafafa;stop-opacity:1"
         offset="0" />
      <stop
         id="stop4636-8-21-7-1-4-0"
         style="stop-color:#e1e1e1;stop-opacity:1"
         offset="1" />
    </linearGradient>
    <linearGradient
       x1="16.325838"
       y1="19.877497"
       x2="16.325838"
       y2="43.470798"
       id="linearGradient3159"
       xlink:href="#linearGradient4035"
       gradientUnits="userSpaceOnUse"
       gradientTransform="matrix(0.50861895,0,0,0.50861895,-0.30363106,-8.1100713)" />
    <linearGradient
       id="linearGradient4035">
      <stop
         id="stop4037"
         style="stop-color:#ffffff;stop-opacity:1"
         offset="0" />
      <stop
         id="stop4039"
         style="stop-color:#ffffff;stop-opacity:0.23529412"
         offset="0.16666664" />
      <stop
         id="stop4041"
         style="stop-color:#ffffff;stop-opacity:0.15686275"
         offset="0.83333331" />
      <stop
         id="stop4043"
         style="stop-color:#ffffff;stop-opacity:0.39215687"
         offset="1" />
    </linearGradient>
    <radialGradient
       cx="31.999998"
       cy="4.3419166"
       r="27.5"
       fx="31.999998"
       fy="4.3419166"
       id="radialGradient7600"
       xlink:href="#linearGradient4632-92-3-0-8-1-7"
       gradientUnits="userSpaceOnUse"
       gradientTransform="matrix(0,0.51340805,-0.513408,0,10.229175,-14.463522)" />
    <linearGradient
       id="linearGradient12739">
      <stop
         id="stop12741"
         style="stop-color:#ffffff;stop-opacity:1"
         offset="0" />
      <stop
         id="stop12743"
         style="stop-color:#ffffff;stop-opacity:0"
         offset="1" />
    </linearGradient>
    <radialGradient
       cx="51.91"
       cy="38.188026"
       r="27.5"
       fx="51.91"
       fy="38.188026"
       id="radialGradient4973"
       xlink:href="#linearGradient12727"
       gradientUnits="userSpaceOnUse"
       gradientTransform="matrix(0,0.13397128,-0.13397131,0,15.116094,3.0451997)"
       spreadMethod="pad" />
    <linearGradient
       id="linearGradient12727">
      <stop
         id="stop12729"
         style="stop-color:#181818;stop-opacity:0"
         offset="0" />
      <stop
         id="stop12745"
         style="stop-color:#181818;stop-opacity:0"
         offset="0.53846145" />
      <stop
         id="stop12731"
         style="stop-color:#181818;stop-opacity:1"
         offset="1" />
    </linearGradient>
    <linearGradient
       x1="30.5"
       y1="29.999983"
       x2="49.5"
       y2="29.999983"
       id="linearGradient4975"
       xlink:href="#linearGradient4632-92-3-0-8-1-7-6"
       gradientUnits="userSpaceOnUse"
       gradientTransform="matrix(0.36842106,0,0,0.36842106,-4.7368544,-1.0530003)" />
    <linearGradient
       id="linearGradient4632-92-3-0-8-1-7-6">
      <stop
         id="stop4634-68-8-0-2-9-4-8"
         style="stop-color:#fafafa;stop-opacity:1"
         offset="0" />
      <stop
         id="stop4636-8-21-7-1-4-0-7"
         style="stop-color:#e1e1e1;stop-opacity:1"
         offset="1" />
    </linearGradient>
    <linearGradient
       x1="33.243969"
       y1="42.379356"
       x2="66.731972"
       y2="42.379356"
       id="linearGradient4977"
       xlink:href="#linearGradient3878"
       gradientUnits="userSpaceOnUse"
       gradientTransform="matrix(0,0.27950309,-0.27950308,0,21.847012,-3.9718003)" />
    <linearGradient
       id="linearGradient3878">
      <stop
         id="stop3880"
         style="stop-color:#ffffff;stop-opacity:1"
         offset="0" />
      <stop
         id="stop3882"
         style="stop-color:#ffffff;stop-opacity:0.23529412"
         offset="0.07692312" />
      <stop
         id="stop3884"
         style="stop-color:#ffffff;stop-opacity:0.15686275"
         offset="0.92307693" />
      <stop
         id="stop3886"
         style="stop-color:#ffffff;stop-opacity:0.39215687"
         offset="1" />
    </linearGradient>
    <linearGradient
       x1="79.457138"
       y1="22.857172"
       x2="79.457138"
       y2="50.057175"
       id="linearGradient4985"
       xlink:href="#linearGradient4220-7"
       gradientUnits="userSpaceOnUse"
       gradientTransform="matrix(0.41938988,0,0,0.41938988,-23.323523,-5.2898003)" />
    <linearGradient
       id="linearGradient4220-7">
      <stop
         id="stop4222-7"
         style="stop-color:#7a8498;stop-opacity:1"
         offset="0" />
      <stop
         id="stop4224-0"
         style="stop-color:#34405c;stop-opacity:1"
         offset="1" />
    </linearGradient>
    <linearGradient
       x1="44.200016"
       y1="1037.505"
       x2="53.800014"
       y2="1037.505"
       id="linearGradient7826"
       xlink:href="#linearGradient12739"
       gradientUnits="userSpaceOnUse"
       gradientTransform="matrix(0.31250001,0,0,0.3888889,-6.8127,-413.47421)" />
    <clipPath
       id="clipPath7834">
      <rect
         width="7"
         height="7"
         rx="25"
         ry="25"
         x="6.4999809"
         y="6.4996166"
         id="rect7836"
         style="color:#000000;fill:url(#linearGradient7838);fill-opacity:1;fill-rule:nonzero;stroke:none;stroke-width:0.99999994;marker:none;visibility:visible;display:inline;overflow:visible;enable-background:accumulate" />
    </clipPath>
    <linearGradient
       x1="30.5"
       y1="29.999983"
       x2="49.5"
       y2="29.999983"
       id="linearGradient7838"
       xlink:href="#linearGradient4632-92-3-0-8-1-7-6"
       gradientUnits="userSpaceOnUse"
       gradientTransform="matrix(0.36842106,0,0,0.36842106,-4.7368544,-1.0530003)" />
    <radialGradient
       inkscape:collect="always"
       xlink:href="#linearGradient4632-92-3-0-8-1-7"
       id="radialGradient17158"
       gradientUnits="userSpaceOnUse"
       gradientTransform="matrix(0,0.51340805,-0.513408,0,10.229175,-14.463522)"
       cx="31.999998"
       cy="4.3419166"
       fx="31.999998"
       fy="4.3419166"
       r="27.5" />
    <linearGradient
       inkscape:collect="always"
       xlink:href="#linearGradient4035"
       id="linearGradient17160"
       gradientUnits="userSpaceOnUse"
       gradientTransform="matrix(0.50861895,0,0,0.50861895,-0.30363106,-8.1100713)"
       x1="16.325838"
       y1="19.877497"
       x2="16.325838"
       y2="43.470798" />
    <linearGradient
       inkscape:collect="always"
       xlink:href="#linearGradient4220-7"
       id="linearGradient17162"
       gradientUnits="userSpaceOnUse"
       gradientTransform="matrix(0.41938988,0,0,0.41938988,-23.323523,-5.2898003)"
       x1="79.457138"
       y1="22.857172"
       x2="79.457138"
       y2="50.057175" />
    <linearGradient
       inkscape:collect="always"
       xlink:href="#linearGradient3878"
       id="linearGradient17164"
       gradientUnits="userSpaceOnUse"
       gradientTransform="matrix(0,0.27950309,-0.27950308,0,21.847012,-3.9718003)"
       x1="33.243969"
       y1="42.379356"
       x2="66.731972"
       y2="42.379356" />
    <linearGradient
       inkscape:collect="always"
       xlink:href="#linearGradient4632-92-3-0-8-1-7-6"
       id="linearGradient17166"
       gradientUnits="userSpaceOnUse"
       gradientTransform="matrix(0.36842106,0,0,0.36842106,-4.7368544,-1.0530003)"
       x1="30.5"
       y1="29.999983"
       x2="49.5"
       y2="29.999983" />
    <radialGradient
       inkscape:collect="always"
       xlink:href="#linearGradient12727"
       id="radialGradient17168"
       gradientUnits="userSpaceOnUse"
       gradientTransform="matrix(0,0.13397128,-0.13397131,0,15.116094,3.0451997)"
       spreadMethod="pad"
       cx="51.91"
       cy="38.188026"
       fx="51.91"
       fy="38.188026"
       r="27.5" />
    <linearGradient
       inkscape:collect="always"
       xlink:href="#linearGradient12739"
       id="linearGradient17170"
       gradientUnits="userSpaceOnUse"
       gradientTransform="matrix(0.31250001,0,0,0.3888889,-6.8127,-413.47421)"
       x1="44.200016"
       y1="1037.505"
       x2="53.800014"
       y2="1037.505" />
    <linearGradient
       inkscape:collect="always"
       xlink:href="#linearGradient12739"
       id="linearGradient17173"
       gradientUnits="userSpaceOnUse"
       gradientTransform="matrix(0.31250001,0,0,0.3888889,-6.8127,-413.47421)"
       x1="44.200016"
       y1="1037.505"
       x2="53.800014"
       y2="1037.505" />
    <radialGradient
       inkscape:collect="always"
       xlink:href="#linearGradient12727"
       id="radialGradient17177"
       gradientUnits="userSpaceOnUse"
       gradientTransform="matrix(0,0.13397128,-0.13397131,0,15.116094,3.0451997)"
       spreadMethod="pad"
       cx="51.91"
       cy="38.188026"
       fx="51.91"
       fy="38.188026"
       r="27.5" />
    <linearGradient
       inkscape:collect="always"
       xlink:href="#linearGradient4632-92-3-0-8-1-7-6"
       id="linearGradient17183"
       gradientUnits="userSpaceOnUse"
       gradientTransform="matrix(0.36842106,0,0,0.36842106,-4.7368544,-1.0530003)"
       x1="30.5"
       y1="29.999983"
       x2="49.5"
       y2="29.999983" />
    <linearGradient
       inkscape:collect="always"
       xlink:href="#linearGradient3878"
       id="linearGradient17186"
       gradientUnits="userSpaceOnUse"
       gradientTransform="matrix(0,0.27950309,-0.27950308,0,21.847012,-3.9718003)"
       x1="33.243969"
       y1="42.379356"
       x2="66.731972"
       y2="42.379356" />
    <linearGradient
       inkscape:collect="always"
       xlink:href="#linearGradient4220-7"
       id="linearGradient17190"
       gradientUnits="userSpaceOnUse"
       gradientTransform="matrix(0.41938988,0,0,0.41938988,-23.323523,-5.2898003)"
       x1="79.457138"
       y1="22.857172"
       x2="79.457138"
       y2="50.057175" />
    <linearGradient
       inkscape:collect="always"
       xlink:href="#linearGradient4035"
       id="linearGradient17196"
       gradientUnits="userSpaceOnUse"
       gradientTransform="matrix(0.50861895,0,0,0.50861895,-0.30363106,-8.1100713)"
       x1="16.325838"
       y1="19.877497"
       x2="16.325838"
       y2="43.470798" />
    <radialGradient
       inkscape:collect="always"
       xlink:href="#linearGradient4632-92-3-0-8-1-7"
       id="radialGradient17200"
       gradientUnits="userSpaceOnUse"
       gradientTransform="matrix(0,0.51340805,-0.513408,0,10.229175,-14.463522)"
       cx="31.999998"
       cy="4.3419166"
       fx="31.999998"
       fy="4.3419166"
       r="27.5" />
    <radialGradient
       inkscape:collect="always"
       xlink:href="#linearGradient11744"
       id="radialGradient11750"
       cx="8"
       cy="6.9026752"
       fx="8"
       fy="6.9026752"
       r="4.5997382"
       gradientTransform="matrix(1.7651835,-7.6498105e-8,6.5221103e-8,1.5049682,-6.1214682,-3.485631)"
       gradientUnits="userSpaceOnUse" />
  </defs>
  <metadata
     id="metadata7572">
    <rdf:RDF>
      <cc:Work
         rdf:about="">
        <dc:format>image/svg+xml</dc:format>
        <dc:type
           rdf:resource="http://purl.org/dc/dcmitype/StillImage" />
        <dc:title />
      </cc:Work>
    </rdf:RDF>
  </metadata>
  <rect
     width="12"
     height="12"
     x="2"
     y="2.0000002"
     id="rect5505-21-3-8-5-2"
     style="color:#000000;fill:url(#radialGradient17200);fill-opacity:1;fill-rule:nonzero;stroke:none;stroke-width:0.99999994;marker:none;visibility:visible;display:inline;overflow:visible;enable-background:accumulate" />
  <rect
     width="13"
     height="13"
     rx="1"
     ry="1"
     x="1.5"
     y="1.4999999"
     id="rect3993"
     style="opacity:0.3;fill:none;stroke:#000000;stroke-width:0.99999994;stroke-opacity:1" />
  <rect
     width="11"
     height="11"
     x="2.4999986"
     y="2.5"
     id="rect6741-5-0-2-3"
     style="fill:none;stroke:url(#linearGradient17196);stroke-width:1;stroke-linecap:round;stroke-linejoin:round;stroke-miterlimit:4;stroke-opacity:1;stroke-dasharray:none;stroke-dashoffset:0" />
  <path
     id="path12943-8-8"
     style="opacity:0.07000002;fill:#000000;fill-opacity:1;stroke:#ff0000;stroke-width:0.11499346;stroke-linecap:round;stroke-linejoin:round;stroke-opacity:1"
     d="m 3.8571299,3.1649492 0.1367815,0.227969 0.1937735,0.3191566 c 0,0 0.1370836,0.2466402 0.2279683,0.3533518 0.066288,0.077831 0.1387173,0.1553144 0.2279692,0.205172 0.1763335,0.098503 0.3832008,0.1316694 0.5813207,0.1709767 0.2473514,0.049075 0.5025452,0.044938 0.7522976,0.079789 0.286435,0.03997 0.5723442,0.086421 0.8548835,0.1481798 0.2610985,0.057072 0.5182282,0.131352 0.7750943,0.2051721 0.2217623,0.063731 0.4466764,0.1199753 0.66111,0.2051721 0.1926578,0.076545 0.3774268,0.1726665 0.5585239,0.2735627 0.1372121,0.076446 0.2620478,0.1737578 0.3989455,0.2507657 0.059238,0.033323 0.1157116,0.07794 0.1823752,0.091188 0.1046109,0.020789 0.216846,0.00734 0.3191565,-0.022797 0.1288581,-0.037956 0.2376595,-0.1255069 0.3533514,-0.1937736 0.116201,-0.068566 0.212829,-0.1774483 0.341954,-0.2165705 0.152766,-0.046285 0.32268,-0.044963 0.478735,-0.011398 0.103007,0.022155 0.197792,0.077596 0.284961,0.1367814 0.111225,0.075518 0.210938,0.1697499 0.29636,0.2735626 0.0737,0.089569 0.123197,0.1965981 0.182375,0.2963597 0.06251,0.1053832 0.182375,0.3191564 0.182375,0.3191564 l 0.115808,0.1386052 0.134957,0.1463559 c 0,0 0.18611,0.1647536 0.262165,0.2621643 0.09544,0.1222366 0.239367,0.3989456 0.239367,0.3989456 0,0 -0.297389,-0.1668573 -0.455938,-0.2279689 -0.15827,-0.061005 -0.326755,-0.091188 -0.490133,-0.1367813 0,0 -0.128741,-0.022029 -0.193774,-0.022797 -0.122108,-0.00144 -0.36475,0.034195 -0.36475,0.034195 -0.14818,0.011398 -0.250947,1.84e-4 -0.36475,0.045594 -0.166569,0.06647 -0.29867,0.2004933 -0.433141,0.3191567 C 10.140073,7.3728965 10.029834,7.5617618 9.864111,7.6901328 9.771335,7.7619979 9.6646783,7.8159693 9.556353,7.8611094 9.4431416,7.9082855 9.3233756,7.9401931 9.2030011,7.9636955 9.0942808,7.9849225 8.9819386,7.9810962 8.8724462,7.9978908 8.6846306,8.026699 8.5009662,8.0784216 8.3139222,8.1118753 8.1171474,8.1470695 7.721203,8.2030629 7.721203,8.2030629 l -0.4673363,0.034195 c 0,0 0.034505,0.049028 0.056992,0.068391 0.094315,0.081207 0.3191564,0.1937736 0.3191564,0.1937736 0,0 0.307758,0.1481798 0.3533519,0.1481798 0.045594,0 0.2113092,0.050082 0.3191564,0.056992 0.1556449,0.00997 0.3118871,-0.010137 0.4673364,-0.022797 0.1334058,-0.010866 0.265522,-0.03495 0.3989456,-0.045594 0.08341,-0.00665 0.1727532,-0.041655 0.2507659,-0.011398 0.055107,0.021373 0.1253829,0.1253829 0.1253829,0.1253829 0,0 -0.1961263,0.00869 -0.2849612,0.045594 -0.047724,0.019825 -0.077599,0.071505 -0.1253829,0.091188 -0.092416,0.038066 -0.2963596,0.045594 -0.2963596,0.045594 0,0 0.5319777,0.021679 0.7978912,0.034195 0.1482105,0.00698 0.3050272,-0.027714 0.4445393,0.022797 0.07145,0.025869 0.182376,0.1367813 0.182376,0.1367813 0,0 -0.145009,-0.021632 -0.216571,-0.011398 -0.079699,0.011398 -0.1485976,0.0663 -0.2279692,0.079789 -0.1385935,0.023553 -0.282177,0.016866 -0.4217425,0 C 9.1909305,9.1698518 8.997593,9.0780416 8.7926569,9.0465484 8.6759976,9.0286209 8.4393051,9.0237515 8.4393051,9.0237515 l 0.5471254,0.2507658 c 0,0 0.2575123,0.1092869 0.3761487,0.1823751 0.069229,0.04265 0.1398625,0.087309 0.1937738,0.1481803 0.049684,0.056099 0.1595781,0.1937736 0.1139842,0.1937736 -0.045594,0 -0.8776803,-0.3761493 -0.8776803,-0.3761493 L 8.0289611,9.0921414 c 0,0 -0.2420843,-0.139422 -0.3761487,-0.1709767 C 7.5491906,8.8967751 7.4397399,8.9009078 7.3336558,8.9097665 7.1829153,8.922354 6.8891165,9.0009541 6.8891165,9.0009541 l -0.3989457,0.079789 c 0,0 0.095088,-0.1148603 0.1595783,-0.1481798 0.1655061,-0.08551 0.5471254,-0.1139845 0.5471254,-0.1139845 0,0 0.1407217,-0.025064 0.1937736,-0.068391 0.034318,-0.028028 0.068391,-0.1139847 0.068391,-0.1139847 L 6.7067413,8.282852 c 0,0 -0.3738803,-0.2032282 -0.5699223,-0.2849612 C 5.8961675,7.8975595 5.6310832,7.859721 5.3959202,7.747125 5.3065569,7.7043379 5.1451545,7.5875468 5.1451545,7.5875468 l -0.113985,-0.079789 0.113985,0.3419534 0.3305541,0.535727 0.3419542,0.4787348 c 0,0 0.1757,0.2580983 0.2963594,0.3533517 0.1000258,0.078965 0.2255625,0.1190753 0.3419532,0.1709768 0.1230787,0.054884 0.243753,0.1230419 0.3761488,0.1481798 0.1866398,0.035437 0.3801841,-0.00946 0.5699223,0 0.1144108,0.00571 0.2321704,0.00148 0.3419534,0.034195 0.1026037,0.030572 0.2849612,0.1481798 0.2849612,0.1481798 l -0.5813208,0 -0.5015317,0.011398 c 0,0 0.5126218,0.1491928 0.7636959,0.2393674 0.2470183,0.088719 0.5242596,0.1327605 0.7295006,0.2963595 0.036267,0.02891 0.079789,0.113985 0.079789,0.113985 0,0 -0.812299,-0.181417 -1.2082352,-0.307758 C 7.0897035,10.001838 6.6611474,9.8216422 6.6611474,9.8216422 L 6.2849988,9.6848607 c 0,0 0.1895367,0.1752543 0.2849611,0.2621648 0.2307168,0.2101325 0.4614971,0.4202285 0.6953052,0.6269135 0.1130095,0.0999 0.3419534,0.29636 0.3419534,0.29636 0,0 -0.2496961,-0.05931 -0.3647503,-0.113985 -0.2550849,-0.121205 -0.7067035,-0.467335 -0.7067035,-0.467335 0,0 -0.3223139,-0.23052 -0.4673363,-0.3647509 C 5.9815851,9.8438465 5.9019864,9.755257 5.829061,9.6620643 5.7868491,9.6081208 5.7726409,9.5282092 5.7150769,9.4910872 5.4982739,9.3512776 5.1809047,9.4834712 4.951381,9.3657044 4.8748895,9.3264576 4.821914,9.2510931 4.7690056,9.1833292 4.7417369,9.1484045 4.7006144,9.0693448 4.7006144,9.0693448 c 0,0 0.4304866,0.099051 0.6497119,0.1025861 0.091886,0.00148 0.273563,-0.034195 0.273563,-0.034195 L 5.0881616,8.2714536 4.7690056,7.7813204 c 0,0 -0.2307846,-0.1767011 -0.2621647,-0.307758 -0.022746,-0.094999 0.013713,-0.1677941 0.068391,-0.2849613 L 4.2332779,6.3793112 c 0,0 -0.1252249,-0.4395046 -0.262164,-0.6155161 C 3.8479236,5.6054542 3.6492652,5.5240827 3.4923793,5.3990447 3.4459668,5.3620542 3.407156,5.3441097 3.4011916,5.2850603 3.3914126,5.1882387 3.4602339,5.1156295 3.5379731,5.0570914 3.6168885,4.9976677 3.7262133,4.970641 3.7773415,4.8861146 3.8398448,4.5997701 3.627944,4.2974809 3.6291608,3.9970359 3.6298047,3.8427483 3.6671638,3.6896207 3.7089502,3.541098 3.7454482,3.4113733 3.8571299,3.1649492 3.8571299,3.1649492 z"
     inkscape:connector-curvature="0"
     sodipodi:nodetypes="cccaaaaaaaaaaaaaaaaacccacacacaaaaaaaccacsaaaacaacaacaaaaccaasccaaccacaccaacccccaaaaacccaacaccaacacaaaaacacccaccassscaac" />
  <path
     id="path12943-8"
     style="opacity:0.15;fill:#000000;fill-opacity:1;stroke:none"
     d="m 3.8571299,3.1649487 0.1367815,0.227969 0.1937735,0.3191565 c 0,0 0.1370836,0.2466403 0.2279683,0.3533518 0.066288,0.077831 0.1387173,0.1553144 0.2279692,0.205172 0.1763335,0.098503 0.3832008,0.1316695 0.5813207,0.1709768 0.2473514,0.049075 0.5025452,0.044938 0.7522976,0.079789 0.286435,0.03997 0.5723442,0.086421 0.8548835,0.1481799 0.2610985,0.057072 0.5182282,0.1313519 0.7750943,0.205172 0.2217623,0.063731 0.4466764,0.1199753 0.66111,0.2051721 0.1926578,0.076545 0.3774268,0.1726665 0.5585239,0.2735627 0.1372121,0.076446 0.2620478,0.1737579 0.3989455,0.2507658 0.059238,0.033322 0.1157116,0.07794 0.1823752,0.091188 0.1046109,0.020789 0.216846,0.00734 0.3191565,-0.022797 C 9.8561877,5.6346509 9.9649891,5.5471 10.080681,5.4788334 10.196882,5.4102668 10.29351,5.301385 10.422635,5.2622629 c 0.152766,-0.046285 0.32268,-0.044963 0.478735,-0.011398 0.103007,0.022155 0.197792,0.077596 0.284961,0.1367814 0.111225,0.075518 0.210938,0.1697499 0.29636,0.2735626 0.0737,0.089569 0.123197,0.1965982 0.182375,0.2963597 0.06251,0.1053832 0.182375,0.3191564 0.182375,0.3191564 l 0.115808,0.1386052 0.134957,0.146356 c 0,0 0.18611,0.1647535 0.262165,0.2621642 0.09544,0.1222366 0.239367,0.3989456 0.239367,0.3989456 0,0 -0.297389,-0.1668573 -0.455938,-0.2279689 -0.15827,-0.061004 -0.326755,-0.091187 -0.490133,-0.1367813 0,0 -0.128741,-0.022028 -0.193774,-0.022797 -0.122108,-0.00144 -0.36475,0.034195 -0.36475,0.034195 -0.14818,0.011398 -0.250947,1.84e-4 -0.36475,0.045594 -0.166569,0.06647 -0.29867,0.2004932 -0.433141,0.3191566 C 10.140073,7.3728959 10.029834,7.5617612 9.864111,7.6901322 9.771335,7.7619974 9.6646783,7.8159687 9.556353,7.8611088 9.4431416,7.9082849 9.3233756,7.9401925 9.2030011,7.963695 9.0942808,7.984922 8.9819386,7.9810957 8.8724462,7.9978902 8.6846306,8.0266984 8.5009662,8.0784211 8.3139222,8.1118747 8.1171474,8.1470689 7.721203,8.2030624 7.721203,8.2030624 l -0.4673363,0.034195 c 0,0 0.034505,0.049028 0.056992,0.068391 0.094315,0.081207 0.3191564,0.1937735 0.3191564,0.1937735 0,0 0.307758,0.1481799 0.3533519,0.1481799 0.045594,0 0.2113092,0.050082 0.3191564,0.056992 0.1556449,0.00997 0.3118871,-0.010137 0.4673364,-0.022797 0.1334058,-0.010866 0.265522,-0.03495 0.3989456,-0.045594 0.08341,-0.00665 0.1727532,-0.041656 0.2507659,-0.011398 0.055107,0.021373 0.1253829,0.1253829 0.1253829,0.1253829 0,0 -0.1961263,0.00869 -0.2849612,0.045594 -0.047724,0.019825 -0.077599,0.071505 -0.1253829,0.091188 -0.092416,0.038066 -0.2963596,0.045594 -0.2963596,0.045594 0,0 0.5319777,0.021679 0.7978912,0.034195 0.1482105,0.00698 0.3050272,-0.027714 0.444539,0.022797 0.07145,0.025869 0.182376,0.1367814 0.182376,0.1367814 0,0 -0.145009,-0.021633 -0.216571,-0.011398 -0.079699,0.011398 -0.1485973,0.0663 -0.2279689,0.079789 -0.1385935,0.023553 -0.282177,0.016866 -0.4217425,0 C 9.1909305,9.1698512 8.997593,9.078041 8.7926569,9.0465478 8.6759976,9.0286203 8.4393051,9.0237509 8.4393051,9.0237509 l 0.5471254,0.2507658 c 0,0 0.2575123,0.1092869 0.3761487,0.1823751 0.069229,0.04265 0.1398625,0.087309 0.1937738,0.1481804 0.049684,0.056099 0.1595781,0.1937735 0.1139842,0.1937735 -0.045594,0 -0.8776803,-0.3761492 -0.8776803,-0.3761492 L 8.0289611,9.0921409 c 0,0 -0.2420843,-0.139422 -0.3761487,-0.1709768 C 7.5491906,8.8967746 7.4397399,8.9009072 7.3336558,8.9097659 7.1829153,8.9223535 6.8891165,9.0009536 6.8891165,9.0009536 l -0.3989457,0.079789 c 0,0 0.095088,-0.1148603 0.1595783,-0.1481798 0.1655061,-0.08551 0.5471254,-0.1139845 0.5471254,-0.1139845 0,0 0.1407217,-0.025064 0.1937736,-0.068391 0.034318,-0.028028 0.068391,-0.1139846 0.068391,-0.1139846 L 6.7067413,8.2828514 c 0,0 -0.3738803,-0.2032282 -0.5699223,-0.2849612 C 5.8961675,7.8975589 5.6310832,7.8597204 5.3959202,7.7471244 5.3065569,7.7043373 5.1451545,7.5875462 5.1451545,7.5875462 l -0.113985,-0.079789 0.113985,0.3419534 0.3305541,0.5357269 0.3419542,0.4787348 c 0,0 0.1757,0.2580983 0.2963594,0.3533518 0.1000258,0.078965 0.2255625,0.1190752 0.3419532,0.1709767 0.1230787,0.054884 0.243753,0.1230419 0.3761488,0.1481798 0.1866398,0.035437 0.3801841,-0.00946 0.5699223,0 0.1144108,0.00571 0.2321704,0.00148 0.3419534,0.034195 0.1026037,0.030572 0.2849612,0.1481799 0.2849612,0.1481799 l -0.5813208,0 -0.5015317,0.011398 c 0,0 0.5126218,0.1491929 0.7636959,0.2393674 0.2470183,0.088719 0.5242596,0.1327607 0.7295006,0.2963597 0.036267,0.02891 0.079789,0.113985 0.079789,0.113985 0,0 -0.812299,-0.181418 -1.2082352,-0.307759 C 7.0897035,10.001838 6.6611474,9.8216417 6.6611474,9.8216417 L 6.2849988,9.6848602 c 0,0 0.1895367,0.1752542 0.2849611,0.2621647 0.2307168,0.2101331 0.4614971,0.4202281 0.6953052,0.6269141 0.1130095,0.0999 0.3419534,0.29636 0.3419534,0.29636 0,0 -0.2496961,-0.05931 -0.3647503,-0.113985 -0.2550849,-0.121206 -0.7067035,-0.467336 -0.7067035,-0.467336 0,0 -0.3223139,-0.230519 -0.4673363,-0.3647505 C 5.9815851,9.843846 5.9019864,9.7552564 5.829061,9.6620637 5.7868491,9.6081202 5.7726409,9.5282086 5.7150769,9.4910866 5.4982739,9.351277 5.1809047,9.4834706 4.951381,9.3657039 4.8748895,9.326457 4.821914,9.2510925 4.7690056,9.1833286 4.7417369,9.1484039 4.7006144,9.0693442 4.7006144,9.0693442 c 0,0 0.4304866,0.099051 0.6497119,0.1025861 0.091886,0.00148 0.273563,-0.034195 0.273563,-0.034195 L 5.0881616,8.271453 4.7690056,7.7813198 c 0,0 -0.2307846,-0.1767011 -0.2621647,-0.307758 -0.022746,-0.094999 0.013713,-0.1677941 0.068391,-0.2849613 L 4.2332779,6.3793106 c 0,0 -0.1252249,-0.4395046 -0.262164,-0.6155161 C 3.8479236,5.6054536 3.6492652,5.5240821 3.4923793,5.3990441 3.4459668,5.3620536 3.407156,5.3441091 3.4011916,5.2850597 3.3914126,5.1882381 3.4602339,5.1156289 3.5379731,5.0570908 3.6168885,4.9976672 3.7262133,4.9706405 3.7773415,4.8861141 3.8398448,4.5997695 3.627944,4.2974804 3.6291608,3.9970354 3.6298047,3.8427477 3.6671638,3.6896201 3.7089502,3.5410974 3.7454482,3.4113727 3.8571299,3.1649487 3.8571299,3.1649487 z"
     inkscape:connector-curvature="0"
     sodipodi:nodetypes="cccaaaaaaaaaaaaaaaaacccacacacaaaaaaaccacsaaaacaacaacaaaaccaasccaaccacaccaacccccaaaaacccaacaccaacacaaaaacacccaccassscaac" />
  <path
     id="path12943"
     style="fill:url(#radialGradient11750);fill-opacity:1;stroke:none"
     d="m 3.8571299,3.0500002 0.1367815,0.227969 0.1937735,0.3191565 c 0,0 0.1370836,0.2466403 0.2279683,0.3533518 0.066288,0.077831 0.1387173,0.1553144 0.2279692,0.205172 0.1763335,0.098503 0.3832008,0.1316695 0.5813207,0.1709768 0.2473514,0.049075 0.5025452,0.044938 0.7522976,0.079789 0.286435,0.03997 0.5723442,0.086421 0.8548835,0.1481799 0.2610985,0.057072 0.5182282,0.1313519 0.7750943,0.205172 0.2217623,0.063732 0.4466764,0.1199753 0.66111,0.2051721 0.1926578,0.076545 0.3774268,0.1726665 0.5585239,0.2735627 0.1372121,0.076446 0.2620478,0.1737579 0.3989455,0.2507658 0.059238,0.033322 0.1157116,0.07794 0.1823752,0.091188 0.1046109,0.020789 0.216846,0.00734 0.3191565,-0.022797 0.1288581,-0.037956 0.2376595,-0.1255069 0.3533514,-0.1937735 0.116201,-0.068567 0.212829,-0.1774484 0.341954,-0.2165705 0.152766,-0.046285 0.32268,-0.044963 0.478735,-0.011398 0.103007,0.022155 0.197792,0.077596 0.284961,0.1367814 0.111225,0.075518 0.210938,0.1697499 0.29636,0.2735626 0.0737,0.089569 0.123197,0.1965982 0.182375,0.2963597 0.06251,0.1053832 0.182375,0.3191564 0.182375,0.3191564 l 0.115808,0.1386052 0.134957,0.146356 c 0,0 0.18611,0.1647535 0.262165,0.2621642 0.09544,0.1222366 0.239367,0.3989456 0.239367,0.3989456 0,0 -0.297389,-0.1668573 -0.455938,-0.2279689 -0.15827,-0.061005 -0.326755,-0.091188 -0.490133,-0.1367813 0,0 -0.128741,-0.022029 -0.193774,-0.022797 -0.122108,-0.00144 -0.36475,0.034195 -0.36475,0.034195 -0.14818,0.011398 -0.250947,1.84e-4 -0.36475,0.045594 -0.166569,0.06647 -0.29867,0.2004932 -0.433141,0.3191566 C 10.140073,7.2579474 10.029834,7.4468127 9.864111,7.5751837 9.771335,7.6470489 9.6646783,7.7010202 9.556353,7.7461603 9.4431416,7.7933364 9.3233756,7.825244 9.2030011,7.8487465 9.0942808,7.8699735 8.9819386,7.8661472 8.8724462,7.8829417 8.6846306,7.9117499 8.5009662,7.9634726 8.3139222,7.9969262 8.1171474,8.0321204 7.721203,8.0881139 7.721203,8.0881139 l -0.4673363,0.034195 c 0,0 0.034505,0.049028 0.056992,0.068391 0.094315,0.081207 0.3191564,0.1937735 0.3191564,0.1937735 0,0 0.307758,0.1481799 0.3533519,0.1481799 0.045594,0 0.2113092,0.050082 0.3191564,0.056992 0.1556449,0.00997 0.3118871,-0.010137 0.4673364,-0.022797 0.1334058,-0.010866 0.265522,-0.03495 0.3989456,-0.045594 0.08341,-0.00665 0.1727532,-0.041656 0.2507659,-0.011398 0.055107,0.021373 0.1253829,0.1253829 0.1253829,0.1253829 0,0 -0.1961263,0.00869 -0.2849612,0.045594 -0.047724,0.019825 -0.077599,0.071505 -0.1253829,0.091188 -0.092416,0.038066 -0.2963596,0.045594 -0.2963596,0.045594 0,0 0.5319777,0.021679 0.7978912,0.034195 0.1482105,0.00698 0.3050272,-0.027713 0.444539,0.022797 0.07145,0.025869 0.182376,0.1367814 0.182376,0.1367814 0,0 -0.145009,-0.021632 -0.216571,-0.011398 -0.079699,0.011398 -0.1485973,0.0663 -0.2279689,0.079789 -0.1385935,0.023553 -0.282177,0.016866 -0.4217425,0 C 9.1909305,9.0549028 8.997593,8.9630925 8.7926569,8.9315993 8.6759976,8.9136718 8.4393051,8.9088024 8.4393051,8.9088024 l 0.5471254,0.2507658 c 0,0 0.2575123,0.1092869 0.3761487,0.1823751 0.069229,0.04265 0.1398625,0.087309 0.1937738,0.1481804 0.049684,0.056099 0.1595781,0.1937735 0.1139842,0.1937735 -0.045594,0 -0.8776803,-0.3761492 -0.8776803,-0.3761492 L 8.0289611,8.9771924 c 0,0 -0.2420843,-0.139422 -0.3761487,-0.1709768 C 7.5491906,8.7818261 7.4397399,8.7859587 7.3336558,8.7948174 7.1829153,8.807405 6.8891165,8.8860051 6.8891165,8.8860051 l -0.3989457,0.079789 c 0,0 0.095088,-0.1148603 0.1595783,-0.1481798 0.1655061,-0.08551 0.5471254,-0.1139845 0.5471254,-0.1139845 0,0 0.1407217,-0.025064 0.1937736,-0.068391 0.034318,-0.028028 0.068391,-0.1139846 0.068391,-0.1139846 L 6.7067413,8.1679029 c 0,0 -0.3738803,-0.2032282 -0.5699223,-0.2849612 C 5.8961675,7.7826104 5.6310832,7.7447719 5.3959202,7.6321759 5.3065569,7.5893888 5.1451545,7.4725977 5.1451545,7.4725977 l -0.113985,-0.079789 0.113985,0.3419534 0.3305541,0.5357269 0.3419542,0.4787348 c 0,0 0.1757,0.2580983 0.2963594,0.3533518 0.1000258,0.078965 0.2255625,0.1190752 0.3419532,0.1709767 0.1230787,0.054884 0.243753,0.1230419 0.3761488,0.1481798 0.1866398,0.035437 0.3801841,-0.00946 0.5699223,0 0.1144108,0.00571 0.2321704,0.00148 0.3419534,0.034195 0.1026037,0.030572 0.2849612,0.1481799 0.2849612,0.1481799 l -0.5813208,0 -0.5015317,0.011398 c 0,0 0.5126218,0.1491929 0.7636959,0.2393674 0.2470183,0.088719 0.5242596,0.1327604 0.7295006,0.2963592 0.036267,0.02891 0.079789,0.113985 0.079789,0.113985 0,0 -0.812299,-0.181417 -1.2082352,-0.3077584 C 7.0897035,9.8868894 6.6611474,9.7066932 6.6611474,9.7066932 L 6.2849988,9.5699117 c 0,0 0.1895367,0.1752542 0.2849611,0.2621647 0.2307168,0.2101326 0.4614971,0.4202276 0.6953052,0.6269136 0.1130095,0.0999 0.3419534,0.29636 0.3419534,0.29636 0,0 -0.2496961,-0.05931 -0.3647503,-0.113985 C 6.9873833,10.52016 6.5357647,10.17403 6.5357647,10.17403 c 0,0 -0.3223139,-0.2305198 -0.4673363,-0.3647509 C 5.9815851,9.7288975 5.9019864,9.6403079 5.829061,9.5471152 5.7868491,9.4931717 5.7726409,9.4132601 5.7150769,9.3761381 5.4982739,9.2363285 5.1809047,9.3685221 4.951381,9.2507554 4.8748895,9.2115085 4.821914,9.136144 4.7690056,9.0683801 4.7417369,9.0334554 4.7006144,8.9543957 4.7006144,8.9543957 c 0,0 0.4304866,0.099051 0.6497119,0.1025861 0.091886,0.00148 0.273563,-0.034195 0.273563,-0.034195 L 5.0881616,8.1565045 4.7690056,7.6663713 c 0,0 -0.2307846,-0.1767011 -0.2621647,-0.307758 C 4.4840951,7.263614 4.5205535,7.1908192 4.5752321,7.073652 L 4.2332779,6.2643621 c 0,0 -0.1252249,-0.4395046 -0.262164,-0.6155161 C 3.8479236,5.4905051 3.6492652,5.4091337 3.4923793,5.2840956 3.4459668,5.2471051 3.407156,5.2291606 3.4011916,5.1701112 3.3914126,5.0732896 3.4602339,5.0006804 3.5379731,4.9421423 3.6168885,4.8827187 3.7262133,4.855692 3.7773415,4.7711656 3.8398448,4.484821 3.627944,4.1825319 3.6291608,3.8820869 3.6298047,3.7277992 3.6671638,3.5746716 3.7089502,3.4261489 3.7454482,3.2964242 3.8571299,3.0500002 3.8571299,3.0500002 z"
     inkscape:connector-curvature="0"
     sodipodi:nodetypes="cccaaaaaaaaaaaaaaaaacccacacacaaaaaaaccacsaaaacaacaacaaaaccaasccaaccacaccaacccccaaaaacccaacaccaacacaaaaacacccaccassscaac" />
  <path
     inkscape:connector-curvature="0"
     style="color:#000000;fill:#ffffff;fill-opacity:1;fill-rule:evenodd;stroke:none;stroke-width:0.33830979;marker:none;visibility:visible;display:inline;overflow:visible;enable-background:accumulate"
     id="path4356-7-6-7-6-1-5-9"
     d="m 11.59807,12.375608 a 0.5749673,0.5749673 0 0 1 -1.149934,0 0.5749673,0.5749673 0 1 1 1.149934,0 z" />
  <path
     inkscape:connector-curvature="0"
     style="opacity:0.6;color:#000000;fill:#008000;fill-opacity:1;fill-rule:evenodd;stroke:none;stroke-width:0.33830979;marker:none;visibility:visible;display:inline;overflow:visible;enable-background:accumulate"
     id="path4356-8-9-9-8-7-6"
     d="m 11.59807,12.260726 a 0.5749673,0.5749673 0 0 1 -1.149934,0 0.5749673,0.5749673 0 1 1 1.149934,0 z" />
  <path
     inkscape:connector-curvature="0"
     style="color:#000000;fill:#ffffff;fill-opacity:1;fill-rule:evenodd;stroke:none;stroke-width:0.33830979;marker:none;visibility:visible;display:inline;overflow:visible;enable-background:accumulate"
     id="path4356-7-6-7-6-1-5-3-7"
     d="m 13.109621,11.685647 a 0.5749673,0.5749673 0 0 1 -1.149934,0 0.5749673,0.5749673 0 1 1 1.149934,0 z" />
  <path
     inkscape:connector-curvature="0"
     style="opacity:0.6;color:#000000;fill:#008000;fill-opacity:1;fill-rule:evenodd;stroke:none;stroke-width:0.33830979;marker:none;visibility:visible;display:inline;overflow:visible;enable-background:accumulate"
     id="path4356-8-9-9-8-7-3-1"
     d="m 13.109621,11.570765 a 0.5749673,0.5749673 0 0 1 -1.149934,0 0.5749673,0.5749673 0 1 1 1.149934,0 z" />
  <path
     inkscape:connector-curvature="0"
     style="color:#000000;fill:#ffffff;fill-opacity:1;fill-rule:evenodd;stroke:none;stroke-width:0.33830979;marker:none;visibility:visible;display:inline;overflow:visible;enable-background:accumulate"
     id="path4356-7-6-7-6-1-5-1-7-2"
     d="m 10.086519,11.685647 a 0.5749673,0.5749673 0 0 1 -1.1499338,0 0.5749673,0.5749673 0 1 1 1.1499338,0 z" />
  <path
     inkscape:connector-curvature="0"
     style="opacity:0.6;color:#000000;fill:#008000;fill-opacity:1;fill-rule:evenodd;stroke:none;stroke-width:0.33830979;marker:none;visibility:visible;display:inline;overflow:visible;enable-background:accumulate"
     id="path4356-8-9-9-8-7-8-6-3"
     d="m 10.086519,11.570765 a 0.5749673,0.5749673 0 0 1 -1.1499338,0 0.5749673,0.5749673 0 1 1 1.1499338,0 z" />
  <path
     inkscape:connector-curvature="0"
     style="color:#000000;fill:#ffffff;fill-opacity:1;fill-rule:evenodd;stroke:none;stroke-width:0.33830979;marker:none;visibility:visible;display:inline;overflow:visible;enable-background:accumulate"
     id="path4356-7-6-7-6-1-5"
     d="m 5.5518654,12.375608 a 0.5749673,0.5749673 0 0 1 -1.149934,0 0.5749673,0.5749673 0 1 1 1.149934,0 z" />
  <path
     inkscape:connector-curvature="0"
     style="opacity:0.6;color:#000000;fill:#008000;fill-opacity:1;fill-rule:evenodd;stroke:none;stroke-width:0.33830979;marker:none;visibility:visible;display:inline;overflow:visible;enable-background:accumulate"
     id="path4356-8-9-9-8-7"
     d="m 5.5518654,12.260726 a 0.5749673,0.5749673 0 0 1 -1.149934,0 0.5749673,0.5749673 0 1 1 1.149934,0 z" />
  <path
     inkscape:connector-curvature="0"
     style="color:#000000;fill:#ffffff;fill-opacity:1;fill-rule:evenodd;stroke:none;stroke-width:0.33830979;marker:none;visibility:visible;display:inline;overflow:visible;enable-background:accumulate"
     id="path4356-7-6-7-6-1-5-1"
     d="m 8.5749681,12.375608 a 0.5749673,0.5749673 0 0 1 -1.1499341,0 0.5749673,0.5749673 0 1 1 1.1499341,0 z" />
  <path
     inkscape:connector-curvature="0"
     style="opacity:0.6;color:#000000;fill:#008000;fill-opacity:1;fill-rule:evenodd;stroke:none;stroke-width:0.33830979;marker:none;visibility:visible;display:inline;overflow:visible;enable-background:accumulate"
     id="path4356-8-9-9-8-7-8"
     d="m 8.5749681,12.260726 a 0.5749673,0.5749673 0 0 1 -1.1499341,0 0.5749673,0.5749673 0 1 1 1.1499341,0 z" />
  <path
     inkscape:connector-curvature="0"
     style="color:#000000;fill:#ffffff;fill-opacity:1;fill-rule:evenodd;stroke:none;stroke-width:0.33830979;marker:none;visibility:visible;display:inline;overflow:visible;enable-background:accumulate"
     id="path4356-7-6-7-6-1-5-3"
     d="m 7.0634165,11.685647 a 0.5749673,0.5749673 0 0 1 -1.149934,0 0.5749673,0.5749673 0 1 1 1.149934,0 z" />
  <path
     inkscape:connector-curvature="0"
     style="opacity:0.6;color:#000000;fill:#008000;fill-opacity:1;fill-rule:evenodd;stroke:none;stroke-width:0.33830979;marker:none;visibility:visible;display:inline;overflow:visible;enable-background:accumulate"
     id="path4356-8-9-9-8-7-3"
     d="m 7.0634165,11.570765 a 0.5749673,0.5749673 0 0 1 -1.149934,0 0.5749673,0.5749673 0 1 1 1.149934,0 z" />
  <path
     inkscape:connector-curvature="0"
     style="color:#000000;fill:#ffffff;fill-opacity:1;fill-rule:evenodd;stroke:none;stroke-width:0.33830979;marker:none;visibility:visible;display:inline;overflow:visible;enable-background:accumulate"
     id="path4356-7-6-7-6-1-5-1-7"
     d="m 4.0403133,11.685647 a 0.5749673,0.5749673 0 0 1 -1.149934,0 0.5749673,0.5749673 0 1 1 1.149934,0 z" />
  <path
     inkscape:connector-curvature="0"
     style="opacity:0.6;color:#000000;fill:#008000;fill-opacity:1;fill-rule:evenodd;stroke:none;stroke-width:0.33830979;marker:none;visibility:visible;display:inline;overflow:visible;enable-background:accumulate"
     id="path4356-8-9-9-8-7-8-6"
     d="m 4.0403133,11.570765 a 0.5749673,0.5749673 0 0 1 -1.149934,0 0.5749673,0.5749673 0 1 1 1.149934,0 z" />
</svg>
