<?xml version="1.0" encoding="UTF-8" standalone="no"?>
<svg
   xmlns:dc="http://purl.org/dc/elements/1.1/"
   xmlns:cc="http://creativecommons.org/ns#"
   xmlns:rdf="http://www.w3.org/1999/02/22-rdf-syntax-ns#"
   xmlns:svg="http://www.w3.org/2000/svg"
   xmlns="http://www.w3.org/2000/svg"
   xmlns:xlink="http://www.w3.org/1999/xlink"
   xmlns:sodipodi="http://sodipodi.sourceforge.net/DTD/sodipodi-0.dtd"
   xmlns:inkscape="http://www.inkscape.org/namespaces/inkscape"
   version="1.1"
   width="16"
   height="16"
   id="svg7567"
   inkscape:version="0.48.4 r9939"
   sodipodi:docname="weka.svg">
  <sodipodi:namedview
     pagecolor="#ffffff"
     bordercolor="#666666"
     borderopacity="1"
     objecttolerance="10"
     gridtolerance="10"
     guidetolerance="10"
     inkscape:pageopacity="0"
     inkscape:pageshadow="2"
     inkscape:window-width="1366"
     inkscape:window-height="713"
     id="namedview17139"
     showgrid="false"
     inkscape:zoom="1"
     inkscape:cx="-21.140704"
     inkscape:cy="8"
     inkscape:window-x="0"
     inkscape:window-y="30"
     inkscape:window-maximized="1"
     inkscape:current-layer="svg7567" />
  <defs
     id="defs7569">
    <linearGradient
       id="linearGradient4632-92-3-0-8-1-7">
      <stop
         id="stop4634-68-8-0-2-9-4"
         style="stop-color:#fafafa;stop-opacity:1"
         offset="0" />
      <stop
         id="stop4636-8-21-7-1-4-0"
         style="stop-color:#e1e1e1;stop-opacity:1"
         offset="1" />
    </linearGradient>
    <linearGradient
       x1="16.325838"
       y1="19.877497"
       x2="16.325838"
       y2="43.470798"
       id="linearGradient3159"
       xlink:href="#linearGradient4035"
       gradientUnits="userSpaceOnUse"
       gradientTransform="matrix(0.50861895,0,0,0.50861895,-0.30363106,-8.1100713)" />
    <linearGradient
       id="linearGradient4035">
      <stop
         id="stop4037"
         style="stop-color:#ffffff;stop-opacity:1"
         offset="0" />
      <stop
         id="stop4039"
         style="stop-color:#ffffff;stop-opacity:0.23529412"
         offset="0.16666664" />
      <stop
         id="stop4041"
         style="stop-color:#ffffff;stop-opacity:0.15686275"
         offset="0.83333331" />
      <stop
         id="stop4043"
         style="stop-color:#ffffff;stop-opacity:0.39215687"
         offset="1" />
    </linearGradient>
    <radialGradient
       cx="31.999998"
       cy="4.3419166"
       r="27.5"
       fx="31.999998"
       fy="4.3419166"
       id="radialGradient7600"
       xlink:href="#linearGradient4632-92-3-0-8-1-7"
       gradientUnits="userSpaceOnUse"
       gradientTransform="matrix(0,0.51340805,-0.513408,0,10.229175,-14.463522)" />
    <linearGradient
       id="linearGradient12739">
      <stop
         id="stop12741"
         style="stop-color:#ffffff;stop-opacity:1"
         offset="0" />
      <stop
         id="stop12743"
         style="stop-color:#ffffff;stop-opacity:0"
         offset="1" />
    </linearGradient>
    <radialGradient
       cx="51.91"
       cy="38.188026"
       r="27.5"
       fx="51.91"
       fy="38.188026"
       id="radialGradient4973"
       xlink:href="#linearGradient12727"
       gradientUnits="userSpaceOnUse"
       gradientTransform="matrix(0,0.13397128,-0.13397131,0,15.116094,3.0451997)"
       spreadMethod="pad" />
    <linearGradient
       id="linearGradient12727">
      <stop
         id="stop12729"
         style="stop-color:#181818;stop-opacity:0"
         offset="0" />
      <stop
         id="stop12745"
         style="stop-color:#181818;stop-opacity:0"
         offset="0.53846145" />
      <stop
         id="stop12731"
         style="stop-color:#181818;stop-opacity:1"
         offset="1" />
    </linearGradient>
    <linearGradient
       x1="30.5"
       y1="29.999983"
       x2="49.5"
       y2="29.999983"
       id="linearGradient4975"
       xlink:href="#linearGradient4632-92-3-0-8-1-7-6"
       gradientUnits="userSpaceOnUse"
       gradientTransform="matrix(0.36842106,0,0,0.36842106,-4.7368544,-1.0530003)" />
    <linearGradient
       id="linearGradient4632-92-3-0-8-1-7-6">
      <stop
         id="stop4634-68-8-0-2-9-4-8"
         style="stop-color:#fafafa;stop-opacity:1"
         offset="0" />
      <stop
         id="stop4636-8-21-7-1-4-0-7"
         style="stop-color:#e1e1e1;stop-opacity:1"
         offset="1" />
    </linearGradient>
    <linearGradient
       x1="33.243969"
       y1="42.379356"
       x2="66.731972"
       y2="42.379356"
       id="linearGradient4977"
       xlink:href="#linearGradient3878"
       gradientUnits="userSpaceOnUse"
       gradientTransform="matrix(0,0.27950309,-0.27950308,0,21.847012,-3.9718003)" />
    <linearGradient
       id="linearGradient3878">
      <stop
         id="stop3880"
         style="stop-color:#ffffff;stop-opacity:1"
         offset="0" />
      <stop
         id="stop3882"
         style="stop-color:#ffffff;stop-opacity:0.23529412"
         offset="0.07692312" />
      <stop
         id="stop3884"
         style="stop-color:#ffffff;stop-opacity:0.15686275"
         offset="0.92307693" />
      <stop
         id="stop3886"
         style="stop-color:#ffffff;stop-opacity:0.39215687"
         offset="1" />
    </linearGradient>
    <linearGradient
       x1="79.457138"
       y1="22.857172"
       x2="79.457138"
       y2="50.057175"
       id="linearGradient4985"
       xlink:href="#linearGradient4220-7"
       gradientUnits="userSpaceOnUse"
       gradientTransform="matrix(0.41938988,0,0,0.41938988,-23.323523,-5.2898003)" />
    <linearGradient
       id="linearGradient4220-7">
      <stop
         id="stop4222-7"
         style="stop-color:#7a8498;stop-opacity:1"
         offset="0" />
      <stop
         id="stop4224-0"
         style="stop-color:#34405c;stop-opacity:1"
         offset="1" />
    </linearGradient>
    <linearGradient
       x1="44.200016"
       y1="1037.505"
       x2="53.800014"
       y2="1037.505"
       id="linearGradient7826"
       xlink:href="#linearGradient12739"
       gradientUnits="userSpaceOnUse"
       gradientTransform="matrix(0.31250001,0,0,0.3888889,-6.8127,-413.47421)" />
    <clipPath
       id="clipPath7834">
      <rect
         width="7"
         height="7"
         rx="25"
         ry="25"
         x="6.4999809"
         y="6.4996166"
         id="rect7836"
         style="color:#000000;fill:url(#linearGradient7838);fill-opacity:1;fill-rule:nonzero;stroke:none;stroke-width:0.99999994;marker:none;visibility:visible;display:inline;overflow:visible;enable-background:accumulate" />
    </clipPath>
    <linearGradient
       x1="30.5"
       y1="29.999983"
       x2="49.5"
       y2="29.999983"
       id="linearGradient7838"
       xlink:href="#linearGradient4632-92-3-0-8-1-7-6"
       gradientUnits="userSpaceOnUse"
       gradientTransform="matrix(0.36842106,0,0,0.36842106,-4.7368544,-1.0530003)" />
    <radialGradient
       inkscape:collect="always"
       xlink:href="#linearGradient4632-92-3-0-8-1-7"
       id="radialGradient17158"
       gradientUnits="userSpaceOnUse"
       gradientTransform="matrix(0,0.51340805,-0.513408,0,10.229175,-14.463522)"
       cx="31.999998"
       cy="4.3419166"
       fx="31.999998"
       fy="4.3419166"
       r="27.5" />
    <linearGradient
       inkscape:collect="always"
       xlink:href="#linearGradient4035"
       id="linearGradient17160"
       gradientUnits="userSpaceOnUse"
       gradientTransform="matrix(0.50861895,0,0,0.50861895,-0.30363106,-8.1100713)"
       x1="16.325838"
       y1="19.877497"
       x2="16.325838"
       y2="43.470798" />
    <linearGradient
       inkscape:collect="always"
       xlink:href="#linearGradient4220-7"
       id="linearGradient17162"
       gradientUnits="userSpaceOnUse"
       gradientTransform="matrix(0.41938988,0,0,0.41938988,-23.323523,-5.2898003)"
       x1="79.457138"
       y1="22.857172"
       x2="79.457138"
       y2="50.057175" />
    <linearGradient
       inkscape:collect="always"
       xlink:href="#linearGradient3878"
       id="linearGradient17164"
       gradientUnits="userSpaceOnUse"
       gradientTransform="matrix(0,0.27950309,-0.27950308,0,21.847012,-3.9718003)"
       x1="33.243969"
       y1="42.379356"
       x2="66.731972"
       y2="42.379356" />
    <linearGradient
       inkscape:collect="always"
       xlink:href="#linearGradient4632-92-3-0-8-1-7-6"
       id="linearGradient17166"
       gradientUnits="userSpaceOnUse"
       gradientTransform="matrix(0.36842106,0,0,0.36842106,-4.7368544,-1.0530003)"
       x1="30.5"
       y1="29.999983"
       x2="49.5"
       y2="29.999983" />
    <radialGradient
       inkscape:collect="always"
       xlink:href="#linearGradient12727"
       id="radialGradient17168"
       gradientUnits="userSpaceOnUse"
       gradientTransform="matrix(0,0.13397128,-0.13397131,0,15.116094,3.0451997)"
       spreadMethod="pad"
       cx="51.91"
       cy="38.188026"
       fx="51.91"
       fy="38.188026"
       r="27.5" />
    <linearGradient
       inkscape:collect="always"
       xlink:href="#linearGradient12739"
       id="linearGradient17170"
       gradientUnits="userSpaceOnUse"
       gradientTransform="matrix(0.31250001,0,0,0.3888889,-6.8127,-413.47421)"
       x1="44.200016"
       y1="1037.505"
       x2="53.800014"
       y2="1037.505" />
    <linearGradient
       inkscape:collect="always"
       xlink:href="#linearGradient12739"
       id="linearGradient17173"
       gradientUnits="userSpaceOnUse"
       gradientTransform="matrix(0.31250001,0,0,0.3888889,-6.8127,-413.47421)"
       x1="44.200016"
       y1="1037.505"
       x2="53.800014"
       y2="1037.505" />
    <radialGradient
       inkscape:collect="always"
       xlink:href="#linearGradient12727"
       id="radialGradient17177"
       gradientUnits="userSpaceOnUse"
       gradientTransform="matrix(0,0.13397128,-0.13397131,0,15.116094,3.0451997)"
       spreadMethod="pad"
       cx="51.91"
       cy="38.188026"
       fx="51.91"
       fy="38.188026"
       r="27.5" />
    <linearGradient
       inkscape:collect="always"
       xlink:href="#linearGradient4632-92-3-0-8-1-7-6"
       id="linearGradient17183"
       gradientUnits="userSpaceOnUse"
       gradientTransform="matrix(0.36842106,0,0,0.36842106,-4.7368544,-1.0530003)"
       x1="30.5"
       y1="29.999983"
       x2="49.5"
       y2="29.999983" />
    <linearGradient
       inkscape:collect="always"
       xlink:href="#linearGradient3878"
       id="linearGradient17186"
       gradientUnits="userSpaceOnUse"
       gradientTransform="matrix(0,0.27950309,-0.27950308,0,21.847012,-3.9718003)"
       x1="33.243969"
       y1="42.379356"
       x2="66.731972"
       y2="42.379356" />
    <linearGradient
       inkscape:collect="always"
       xlink:href="#linearGradient4220-7"
       id="linearGradient17190"
       gradientUnits="userSpaceOnUse"
       gradientTransform="matrix(0.41938988,0,0,0.41938988,-23.323523,-5.2898003)"
       x1="79.457138"
       y1="22.857172"
       x2="79.457138"
       y2="50.057175" />
    <linearGradient
       inkscape:collect="always"
       xlink:href="#linearGradient4035"
       id="linearGradient17196"
       gradientUnits="userSpaceOnUse"
       gradientTransform="matrix(0.50861895,0,0,0.50861895,-0.30363106,-8.1100713)"
       x1="16.325838"
       y1="19.877497"
       x2="16.325838"
       y2="43.470798" />
    <radialGradient
       inkscape:collect="always"
       xlink:href="#linearGradient4632-92-3-0-8-1-7"
       id="radialGradient17200"
       gradientUnits="userSpaceOnUse"
       gradientTransform="matrix(0,0.51340805,-0.513408,0,10.229175,-14.463522)"
       cx="31.999998"
       cy="4.3419166"
       fx="31.999998"
       fy="4.3419166"
       r="27.5" />
  </defs>
  <metadata
     id="metadata7572">
    <rdf:RDF>
      <cc:Work
         rdf:about="">
        <dc:format>image/svg+xml</dc:format>
        <dc:type
           rdf:resource="http://purl.org/dc/dcmitype/StillImage" />
        <dc:title></dc:title>
      </cc:Work>
    </rdf:RDF>
  </metadata>
  <rect
     width="12"
     height="12"
     x="2"
     y="2.0000002"
     id="rect5505-21-3-8-5-2"
     style="color:#000000;fill:url(#radialGradient17200);fill-opacity:1;fill-rule:nonzero;stroke:none;stroke-width:0.99999994;marker:none;visibility:visible;display:inline;overflow:visible;enable-background:accumulate" />
  <rect
     width="13"
     height="13"
     rx="1"
     ry="1"
     x="1.5"
     y="1.4999999"
     id="rect3993"
     style="opacity:0.3;fill:none;stroke:#000000;stroke-width:0.99999994;stroke-opacity:1" />
  <rect
     width="11"
     height="11"
     x="2.4999986"
     y="2.5"
     id="rect6741-5-0-2-3"
     style="fill:none;stroke:url(#linearGradient17196);stroke-width:1;stroke-linecap:round;stroke-linejoin:round;stroke-miterlimit:4;stroke-opacity:1;stroke-dasharray:none;stroke-dashoffset:0" />
  <g
     transform="matrix(0.11499346,0,0,0.11499346,0.64041853,0.23593356)"
     style="display:inline"
     id="g13202">
    <g
       id="g13193">
      <path
         id="path12943-8-8"
         style="opacity:0.07000002;fill:#000000;fill-opacity:1;stroke:#ff0000;stroke-linecap:round;stroke-linejoin:round;stroke-opacity:1"
         d="m 27.972994,25.47115 1.189472,1.982452 1.685083,2.775432 c 0,0 1.192099,2.14482 1.982446,3.072799 0.576447,0.676829 1.206306,1.350637 1.982453,1.784206 1.533422,0.856593 3.332371,1.145017 5.05525,1.486839 2.151004,0.426763 4.370207,0.390788 6.542091,0.693857 2.49088,0.347583 4.977189,0.751531 7.434192,1.288594 2.270551,0.496307 4.506588,1.142256 6.740334,1.784206 1.928477,0.554219 3.884363,1.043323 5.749109,1.784207 1.675381,0.665646 3.282159,1.501533 4.857006,2.378941 1.193217,0.664787 2.278806,1.511024 3.469289,2.180696 0.515143,0.289778 1.006245,0.677776 1.585961,0.792981 0.909712,0.180783 1.885725,0.06382 2.775432,-0.198246 1.120569,-0.330071 2.066722,-1.091426 3.072799,-1.685083 1.010495,-0.596265 1.850785,-1.543117 2.973677,-1.883329 1.328473,-0.402498 2.806074,-0.391009 4.163148,-0.09912 0.895765,0.192666 1.720028,0.674789 2.478063,1.189471 0.967229,0.656715 1.834347,1.47617 2.577191,2.378941 0.640915,0.778903 1.071341,1.709646 1.58596,2.577187 0.543621,0.916428 1.585962,2.775431 1.585962,2.775431 l 1.007082,1.205331 1.173608,1.272733 c 0,0 1.618438,1.432721 2.279828,2.279819 0.82995,1.062987 2.08157,3.469289 2.08157,3.469289 0,0 -2.58614,-1.451015 -3.96491,-1.982451 -1.376336,-0.530504 -2.841507,-0.79298 -4.262265,-1.18947 0,0 -1.119553,-0.191563 -1.685084,-0.198245 -1.061871,-0.01255 -3.171922,0.297368 -3.171922,0.297368 -1.288594,0.09912 -2.182274,0.0016 -3.171922,0.396489 -1.44851,0.578034 -2.597274,1.743519 -3.766657,2.775433 -1.366852,1.206169 -2.325502,2.848569 -3.766657,3.964902 -0.806794,0.62495 -1.734296,1.094293 -2.676309,1.486838 -0.984503,0.41025 -2.026005,0.687723 -3.0728,0.892104 -0.945447,0.184593 -1.922392,0.151319 -2.874554,0.297367 -1.633272,0.25052 -3.230444,0.700308 -4.857006,0.991226 -1.711183,0.306054 -5.154373,0.792981 -5.154373,0.792981 l -4.064025,0.297367 c 0,0 0.300057,0.426357 0.495613,0.594735 0.820177,0.706188 2.775431,1.685083 2.775431,1.685083 0,0 2.676309,1.288594 3.0728,1.288594 0.39649,0 1.837576,0.435523 2.775431,0.495613 1.353511,0.08672 2.712216,-0.08815 4.064026,-0.198245 1.160116,-0.09449 2.309018,-0.303928 3.469289,-0.396491 0.725345,-0.05786 1.502287,-0.362242 2.180697,-0.09912 0.479214,0.185862 1.090348,1.090348 1.090348,1.090348 0,0 -1.705543,0.07557 -2.478064,0.39649 -0.415019,0.172405 -0.674814,0.621821 -1.090348,0.79298 -0.803663,0.331029 -2.577187,0.396491 -2.577187,0.396491 0,0 4.626156,0.188524 6.938579,0.297367 1.28886,0.06066 2.652561,-0.241001 3.86578,0.198245 0.621348,0.22496 1.585961,1.189471 1.585961,1.189471 0,0 -1.261015,-0.188119 -1.883329,-0.09912 -0.693071,0.09912 -1.292224,0.576558 -1.982451,0.693859 -1.20523,0.204823 -2.453853,0.146673 -3.667535,0 -1.79005,-0.216329 -3.471342,-1.014724 -5.253496,-1.288594 -1.014486,-0.1559 -3.072799,-0.198245 -3.072799,-0.198245 l 4.757883,2.180696 c 0,0 2.239364,0.950375 3.271044,1.585961 0.60203,0.370892 1.216265,0.759252 1.685085,1.288598 0.432064,0.487842 1.387715,1.685083 0.991224,1.685083 -0.396489,0 -7.632437,-3.271049 -7.632437,-3.271049 l -6.641211,-2.87456 c 0,0 -2.1052,-1.212434 -3.271044,-1.486839 -0.90111,-0.212095 -1.85291,-0.176157 -2.775433,-0.09912 -1.310861,0.109463 -3.865779,0.792981 -3.865779,0.792981 l -3.46929,0.693858 c 0,0 0.826901,-0.998842 1.387716,-1.288593 1.439266,-0.743611 4.757883,-0.991226 4.757883,-0.991226 0,0 1.223737,-0.217958 1.685084,-0.594735 0.298438,-0.243732 0.594735,-0.991227 0.594735,-0.991227 l -6.542089,-3.072799 c 0,0 -3.251318,-1.767302 -4.956128,-2.478064 -2.092741,-0.872496 -4.397953,-1.201545 -6.442965,-2.180696 -0.777116,-0.372083 -2.180695,-1.387716 -2.180695,-1.387716 l -0.99123,-0.693858 0.99123,2.973677 2.874547,4.65876 2.973684,4.163148 c 0,0 1.527913,2.244461 2.577185,3.072799 0.869839,0.686689 1.961524,1.035496 2.973675,1.486839 1.07031,0.477277 2.119712,1.06999 3.271045,1.288593 1.623047,0.308166 3.306137,-0.08229 4.956128,0 0.994933,0.04963 2.018988,0.01289 2.973677,0.297368 0.892257,0.265863 2.478064,1.288594 2.478064,1.288594 l -5.055251,0 -4.361393,0.09912 c 0,0 4.457834,1.297403 6.641212,2.081574 2.148107,0.771512 4.559038,1.154504 6.343844,2.577184 0.315381,0.25139 0.693858,0.99123 0.693858,0.99123 0,0 -7.063872,-1.57763 -10.506991,-2.676313 -1.923201,-0.61368 -5.649987,-2.180693 -5.649987,-2.180693 l -3.271044,-1.189472 c 0,0 1.648239,1.524037 2.478064,2.279823 2.006347,1.827345 4.013246,3.654365 6.046476,5.451735 0.982747,0.86875 2.973677,2.57719 2.973677,2.57719 0,0 -2.171394,-0.51581 -3.171922,-0.99123 -2.218256,-1.05402 -6.145598,-4.06402 -6.145598,-4.06402 0,0 -2.802889,-2.00463 -4.064025,-3.171924 -0.755202,-0.69901 -1.447404,-1.469398 -2.081574,-2.279815 -0.367081,-0.469101 -0.490637,-1.164024 -0.991222,-1.486842 -1.885351,-1.215805 -4.64524,-0.06623 -6.641212,-1.090347 -0.665181,-0.341296 -1.125864,-0.996677 -1.585963,-1.585962 -0.237133,-0.30371 -0.59474,-0.991225 -0.59474,-0.991225 0,0 3.743575,0.861363 5.64999,0.892104 0.799052,0.01288 2.378944,-0.297368 2.378944,-0.297368 l -4.658767,-7.533315 -2.775427,-4.26227 c 0,0 -2.006937,-1.536619 -2.279823,-2.676309 -0.197801,-0.826128 0.119247,-1.459162 0.59474,-2.478065 l -2.973684,-7.037704 c 0,0 -1.088974,-3.821996 -2.279816,-5.352618 -1.071281,-1.376956 -2.798844,-2.084574 -4.163147,-3.171923 -0.40361,-0.321675 -0.741114,-0.477723 -0.792981,-0.991225 -0.08504,-0.841975 0.51344,-1.473395 1.189472,-1.982451 0.68626,-0.516757 1.636964,-0.751785 2.081582,-1.486839 0.543538,-2.490094 -1.299182,-5.118845 -1.288601,-7.731559 0.0056,-1.341708 0.33048,-2.673328 0.693861,-3.964903 0.317392,-1.128105 1.288592,-3.271045 1.288592,-3.271045 z"
         inkscape:connector-curvature="0"
         sodipodi:nodetypes="cccaaaaaaaaaaaaaaaaacccacacacaaaaaaaccacsaaaacaacaacaaaaccaasccaaccacaccaacccccaaaaacccaacaccaacacaaaaacacccaccassscaac" />
      <path
         id="path12943-8"
         style="opacity:0.15;fill:#000000;fill-opacity:1;stroke:none"
         d="m 27.972994,25.471145 1.189472,1.982452 1.685083,2.775432 c 0,0 1.192099,2.14482 1.982446,3.072799 0.576447,0.676829 1.206306,1.350637 1.982453,1.784206 1.533422,0.856593 3.332371,1.145017 5.05525,1.486839 2.151004,0.426763 4.370207,0.390788 6.542091,0.693857 2.49088,0.347583 4.977189,0.751531 7.434192,1.288594 2.270551,0.496307 4.506588,1.142256 6.740334,1.784206 1.928477,0.554219 3.884363,1.043323 5.749109,1.784207 1.675381,0.665646 3.282159,1.501533 4.857006,2.378941 1.193217,0.664787 2.278806,1.511024 3.469289,2.180696 0.515143,0.289778 1.006245,0.677776 1.585961,0.792981 0.909712,0.180783 1.885725,0.06382 2.775432,-0.198246 1.120569,-0.330071 2.066722,-1.091426 3.072799,-1.685083 1.010495,-0.596265 1.850785,-1.543117 2.973677,-1.883329 1.328473,-0.402498 2.806074,-0.391009 4.163148,-0.09912 0.895765,0.192666 1.720028,0.674789 2.478063,1.189471 0.967229,0.656715 1.834347,1.47617 2.577191,2.378941 0.640915,0.778903 1.071341,1.709646 1.58596,2.577187 0.543621,0.916428 1.585962,2.775431 1.585962,2.775431 l 1.007082,1.205331 1.173608,1.272733 c 0,0 1.618438,1.432721 2.279828,2.279819 0.82995,1.062987 2.08157,3.469289 2.08157,3.469289 0,0 -2.58614,-1.451015 -3.96491,-1.982451 -1.376336,-0.530504 -2.841507,-0.79298 -4.262265,-1.18947 0,0 -1.119553,-0.191563 -1.685084,-0.198245 -1.061871,-0.01255 -3.171922,0.297368 -3.171922,0.297368 -1.288594,0.09912 -2.182274,0.0016 -3.171922,0.396489 -1.44851,0.578034 -2.597274,1.743519 -3.766657,2.775433 -1.366852,1.206169 -2.325502,2.848569 -3.766657,3.964902 -0.806794,0.62495 -1.734296,1.094293 -2.676309,1.486838 -0.984503,0.41025 -2.026005,0.687723 -3.0728,0.892104 -0.945447,0.184593 -1.922392,0.151319 -2.874554,0.297367 -1.633272,0.25052 -3.230444,0.700308 -4.857006,0.991226 -1.711183,0.306054 -5.154373,0.792981 -5.154373,0.792981 l -4.064025,0.297367 c 0,0 0.300057,0.426357 0.495613,0.594735 0.820177,0.706188 2.775431,1.685083 2.775431,1.685083 0,0 2.676309,1.288594 3.0728,1.288594 0.39649,0 1.837576,0.435523 2.775431,0.495613 1.353511,0.08672 2.712216,-0.08815 4.064026,-0.198245 1.160116,-0.09449 2.309018,-0.303928 3.469289,-0.396491 0.725345,-0.05786 1.502287,-0.362242 2.180697,-0.09912 0.479214,0.185862 1.090348,1.090348 1.090348,1.090348 0,0 -1.705543,0.07557 -2.478064,0.39649 -0.415019,0.172405 -0.674814,0.621821 -1.090348,0.79298 -0.803663,0.331029 -2.577187,0.396491 -2.577187,0.396491 0,0 4.626156,0.188524 6.938579,0.297367 1.28886,0.06066 2.652561,-0.241001 3.86578,0.198245 0.621348,0.22496 1.585961,1.189471 1.585961,1.189471 0,0 -1.261015,-0.188119 -1.883329,-0.09912 -0.693071,0.09912 -1.292224,0.576558 -1.982451,0.693859 -1.20523,0.204823 -2.453853,0.146673 -3.667535,0 -1.79005,-0.216329 -3.471342,-1.014724 -5.253496,-1.288594 -1.014486,-0.1559 -3.072799,-0.198245 -3.072799,-0.198245 l 4.757883,2.180696 c 0,0 2.239364,0.950375 3.271044,1.585961 0.60203,0.370892 1.216265,0.759252 1.685085,1.288598 0.432064,0.487842 1.387715,1.685083 0.991224,1.685083 -0.396489,0 -7.632437,-3.271049 -7.632437,-3.271049 l -6.641211,-2.87456 c 0,0 -2.1052,-1.212434 -3.271044,-1.486839 -0.90111,-0.212095 -1.85291,-0.176157 -2.775433,-0.09912 -1.310861,0.109463 -3.865779,0.792981 -3.865779,0.792981 l -3.46929,0.693858 c 0,0 0.826901,-0.998842 1.387716,-1.288593 1.439266,-0.743611 4.757883,-0.991226 4.757883,-0.991226 0,0 1.223737,-0.217958 1.685084,-0.594735 0.298438,-0.243732 0.594735,-0.991227 0.594735,-0.991227 l -6.542089,-3.072799 c 0,0 -3.251318,-1.767302 -4.956128,-2.478064 -2.092741,-0.872496 -4.397953,-1.201545 -6.442965,-2.180696 -0.777116,-0.372083 -2.180695,-1.387716 -2.180695,-1.387716 l -0.99123,-0.693858 0.99123,2.973677 2.874547,4.65876 2.973684,4.163148 c 0,0 1.527913,2.244461 2.577185,3.072799 0.869839,0.686689 1.961524,1.035496 2.973675,1.486839 1.07031,0.477277 2.119712,1.06999 3.271045,1.288593 1.623047,0.308166 3.306137,-0.08229 4.956128,0 0.994933,0.04963 2.018988,0.01289 2.973677,0.297368 0.892257,0.265863 2.478064,1.288594 2.478064,1.288594 l -5.055251,0 -4.361393,0.09912 c 0,0 4.457834,1.297403 6.641212,2.081574 2.148107,0.771512 4.559038,1.154504 6.343844,2.577184 0.315381,0.25139 0.693858,0.99123 0.693858,0.99123 0,0 -7.063872,-1.57763 -10.506991,-2.676313 -1.923201,-0.61368 -5.649987,-2.180693 -5.649987,-2.180693 l -3.271044,-1.189472 c 0,0 1.648239,1.524037 2.478064,2.279823 2.006347,1.827345 4.013246,3.654365 6.046476,5.451735 0.982747,0.86875 2.973677,2.57719 2.973677,2.57719 0,0 -2.171394,-0.51581 -3.171922,-0.99123 -2.218256,-1.05402 -6.145598,-4.06402 -6.145598,-4.06402 0,0 -2.802889,-2.00463 -4.064025,-3.171924 -0.755202,-0.69901 -1.447404,-1.469398 -2.081574,-2.279815 -0.367081,-0.469101 -0.490637,-1.164024 -0.991222,-1.486842 -1.885351,-1.215805 -4.64524,-0.06623 -6.641212,-1.090347 -0.665181,-0.341296 -1.125864,-0.996677 -1.585963,-1.585962 -0.237133,-0.30371 -0.59474,-0.991225 -0.59474,-0.991225 0,0 3.743575,0.861363 5.64999,0.892104 0.799052,0.01288 2.378944,-0.297368 2.378944,-0.297368 l -4.658767,-7.533315 -2.775427,-4.26227 c 0,0 -2.006937,-1.536619 -2.279823,-2.676309 -0.197801,-0.826128 0.119247,-1.459162 0.59474,-2.478065 l -2.973684,-7.037704 c 0,0 -1.088974,-3.821996 -2.279816,-5.352618 -1.071281,-1.376956 -2.798844,-2.084574 -4.163147,-3.171923 -0.40361,-0.321675 -0.741114,-0.477723 -0.792981,-0.991225 -0.08504,-0.841975 0.51344,-1.473395 1.189472,-1.982451 0.68626,-0.516757 1.636964,-0.751785 2.081582,-1.486839 0.543538,-2.490094 -1.299182,-5.118845 -1.288601,-7.731559 0.0056,-1.341708 0.33048,-2.673328 0.693861,-3.964903 0.317392,-1.128105 1.288592,-3.271045 1.288592,-3.271045 z"
         inkscape:connector-curvature="0"
         sodipodi:nodetypes="cccaaaaaaaaaaaaaaaaacccacacacaaaaaaaccacsaaaacaacaacaaaaccaasccaaccacaccaacccccaaaaacccaacaccaacacaaaaacacccaccassscaac" />
      <path
         id="path12943"
         style="fill:#b97345;fill-opacity:1;stroke:none"
         d="m 27.972994,24.471536 1.189472,1.982452 1.685083,2.775432 c 0,0 1.192099,2.14482 1.982446,3.072799 0.576447,0.676829 1.206306,1.350637 1.982453,1.784206 1.533422,0.856593 3.332371,1.145017 5.05525,1.486839 2.151004,0.426763 4.370207,0.390788 6.542091,0.693857 2.49088,0.347583 4.977189,0.751531 7.434192,1.288594 2.270551,0.496307 4.506588,1.142256 6.740334,1.784206 1.928477,0.554219 3.884363,1.043323 5.749109,1.784207 1.675381,0.665646 3.282159,1.501533 4.857006,2.378941 1.193217,0.664787 2.278806,1.511024 3.469289,2.180696 0.515143,0.289778 1.006245,0.677776 1.585961,0.792981 0.909712,0.180783 1.885725,0.06382 2.775432,-0.198246 1.120569,-0.330071 2.066722,-1.091426 3.072799,-1.685083 1.010495,-0.596265 1.850785,-1.543117 2.973677,-1.883329 1.328473,-0.402498 2.806074,-0.391009 4.163148,-0.09912 0.895765,0.192666 1.720028,0.674789 2.478063,1.189471 0.967229,0.656715 1.834347,1.47617 2.577191,2.378941 0.640915,0.778903 1.071341,1.709646 1.58596,2.577187 0.543621,0.916428 1.585962,2.775431 1.585962,2.775431 l 1.007082,1.205331 1.173608,1.272733 c 0,0 1.618438,1.432721 2.279828,2.279819 C 102.74838,57.352868 104,59.75917 104,59.75917 c 0,0 -2.58614,-1.451015 -3.96491,-1.982451 -1.376336,-0.530504 -2.841507,-0.79298 -4.262265,-1.18947 0,0 -1.119553,-0.191563 -1.685084,-0.198245 -1.061871,-0.01255 -3.171922,0.297368 -3.171922,0.297368 -1.288594,0.09912 -2.182274,0.0016 -3.171922,0.396489 -1.44851,0.578034 -2.597274,1.743519 -3.766657,2.775433 -1.366852,1.206169 -2.325502,2.848569 -3.766657,3.964902 -0.806794,0.62495 -1.734296,1.094293 -2.676309,1.486838 -0.984503,0.41025 -2.026005,0.687723 -3.0728,0.892104 -0.945447,0.184593 -1.922392,0.151319 -2.874554,0.297367 -1.633272,0.25052 -3.230444,0.700308 -4.857006,0.991226 -1.711183,0.306054 -5.154373,0.792981 -5.154373,0.792981 l -4.064025,0.297367 c 0,0 0.300057,0.426357 0.495613,0.594735 0.820177,0.706188 2.775431,1.685083 2.775431,1.685083 0,0 2.676309,1.288594 3.0728,1.288594 0.39649,0 1.837576,0.435523 2.775431,0.495613 1.353511,0.08672 2.712216,-0.08815 4.064026,-0.198245 1.160116,-0.09449 2.309018,-0.303928 3.469289,-0.396491 0.725345,-0.05786 1.502287,-0.362242 2.180697,-0.09912 0.479214,0.185862 1.090348,1.090348 1.090348,1.090348 0,0 -1.705543,0.07557 -2.478064,0.39649 -0.415019,0.172405 -0.674814,0.621821 -1.090348,0.79298 -0.803663,0.331029 -2.577187,0.396491 -2.577187,0.396491 0,0 4.626156,0.188524 6.938579,0.297367 1.28886,0.06066 2.652561,-0.241001 3.86578,0.198245 0.621348,0.22496 1.585961,1.189471 1.585961,1.189471 0,0 -1.261015,-0.188119 -1.883329,-0.09912 -0.693071,0.09912 -1.292224,0.576558 -1.982451,0.693859 -1.20523,0.204823 -2.453853,0.146673 -3.667535,0 -1.79005,-0.216329 -3.471342,-1.014724 -5.253496,-1.288594 -1.014486,-0.1559 -3.072799,-0.198245 -3.072799,-0.198245 l 4.757883,2.180696 c 0,0 2.239364,0.950375 3.271044,1.585961 0.60203,0.370892 1.216265,0.759252 1.685085,1.288598 0.432064,0.487842 1.387715,1.685083 0.991224,1.685083 -0.396489,0 -7.632437,-3.271049 -7.632437,-3.271049 l -6.641211,-2.87456 c 0,0 -2.1052,-1.212434 -3.271044,-1.486839 -0.90111,-0.212095 -1.85291,-0.176157 -2.775433,-0.09912 -1.310861,0.109463 -3.865779,0.792981 -3.865779,0.792981 l -3.46929,0.693858 c 0,0 0.826901,-0.998842 1.387716,-1.288593 1.439266,-0.743611 4.757883,-0.991226 4.757883,-0.991226 0,0 1.223737,-0.217958 1.685084,-0.594735 0.298438,-0.243732 0.594735,-0.991227 0.594735,-0.991227 l -6.542089,-3.072799 c 0,0 -3.251318,-1.767302 -4.956128,-2.478064 -2.092741,-0.872496 -4.397953,-1.201545 -6.442965,-2.180696 -0.777116,-0.372083 -2.180695,-1.387716 -2.180695,-1.387716 l -0.99123,-0.693858 0.99123,2.973677 2.874547,4.65876 2.973684,4.163148 c 0,0 1.527913,2.244461 2.577185,3.072799 0.869839,0.686689 1.961524,1.035496 2.973675,1.486839 1.07031,0.477277 2.119712,1.06999 3.271045,1.288593 1.623047,0.308166 3.306137,-0.08229 4.956128,0 0.994933,0.04963 2.018988,0.01289 2.973677,0.297368 0.892257,0.265863 2.478064,1.288594 2.478064,1.288594 l -5.055251,0 -4.361393,0.09912 c 0,0 4.457834,1.297403 6.641212,2.081574 2.148107,0.771512 4.559038,1.154504 6.343844,2.577184 0.315381,0.25139 0.693858,0.99123 0.693858,0.99123 0,0 -7.063872,-1.57763 -10.506991,-2.676313 -1.923201,-0.61368 -5.649987,-2.180693 -5.649987,-2.180693 l -3.271044,-1.189472 c 0,0 1.648239,1.524037 2.478064,2.279823 2.006347,1.827345 4.013246,3.654365 6.046476,5.451735 0.982747,0.86875 2.973677,2.57719 2.973677,2.57719 0,0 -2.171394,-0.51581 -3.171922,-0.99123 -2.218256,-1.05402 -6.145598,-4.06402 -6.145598,-4.06402 0,0 -2.802889,-2.00463 -4.064025,-3.171924 -0.755202,-0.69901 -1.447404,-1.469398 -2.081574,-2.279815 -0.367081,-0.469101 -0.490637,-1.164024 -0.991222,-1.486842 -1.885351,-1.215805 -4.64524,-0.06623 -6.641212,-1.090347 -0.665181,-0.341296 -1.125864,-0.996677 -1.585963,-1.585962 -0.237133,-0.30371 -0.59474,-0.991225 -0.59474,-0.991225 0,0 3.743575,0.861363 5.64999,0.892104 0.799052,0.01288 2.378944,-0.297368 2.378944,-0.297368 l -4.658767,-7.533315 -2.775427,-4.26227 c 0,0 -2.006937,-1.536619 -2.279823,-2.676309 -0.197801,-0.826128 0.119247,-1.459162 0.59474,-2.478065 l -2.973684,-7.037704 c 0,0 -1.088974,-3.821996 -2.279816,-5.352618 -1.071281,-1.376956 -2.798844,-2.084574 -4.163147,-3.171923 -0.40361,-0.321675 -0.741114,-0.477723 -0.792981,-0.991225 -0.08504,-0.841975 0.51344,-1.473395 1.189472,-1.982451 0.68626,-0.516757 1.636964,-0.751785 2.081582,-1.486839 0.543538,-2.490094 -1.299182,-5.118845 -1.288601,-7.731559 0.0056,-1.341708 0.33048,-2.673328 0.693861,-3.964903 0.317392,-1.128105 1.288592,-3.271045 1.288592,-3.271045 z"
         inkscape:connector-curvature="0"
         sodipodi:nodetypes="cccaaaaaaaaaaaaaaaaacccacacacaaaaaaaccacsaaaacaacaacaaaaccaasccaaccacaccaacccccaaaaacccaacaccaacacaaaaacacccaccassscaac" />
    </g>
    <path
       d="m 95.289343,105.56839 a 5,5 0 0 1 -9.999995,0 5,5 0 1 1 9.999995,0 z"
       id="path4356-7-6-7-6-1-5-9"
       style="color:#000000;fill:#ffffff;fill-opacity:1;fill-rule:evenodd;stroke:none;stroke-width:0.33830979;marker:none;visibility:visible;display:inline;overflow:visible;enable-background:accumulate"
       inkscape:connector-curvature="0" />
    <path
       d="m 95.289343,104.56936 a 5,5 0 0 1 -9.999995,0 5,5 0 1 1 9.999995,0 z"
       id="path4356-8-9-9-8-7-6"
       style="opacity:0.6;color:#000000;fill:#008000;fill-opacity:1;fill-rule:evenodd;stroke:none;stroke-width:0.33830979;marker:none;visibility:visible;display:inline;overflow:visible;enable-background:accumulate"
       inkscape:connector-curvature="0" />
    <path
       d="m 108.43401,99.56839 a 5,5 0 0 1 -9.999992,0 5,5 0 1 1 9.999992,0 z"
       id="path4356-7-6-7-6-1-5-3-7"
       style="color:#000000;fill:#ffffff;fill-opacity:1;fill-rule:evenodd;stroke:none;stroke-width:0.33830979;marker:none;visibility:visible;display:inline;overflow:visible;enable-background:accumulate"
       inkscape:connector-curvature="0" />
    <path
       d="m 108.43401,98.569358 a 5,5 0 0 1 -9.999992,0 5,5 0 1 1 9.999992,0 z"
       id="path4356-8-9-9-8-7-3-1"
       style="opacity:0.6;color:#000000;fill:#008000;fill-opacity:1;fill-rule:evenodd;stroke:none;stroke-width:0.33830979;marker:none;visibility:visible;display:inline;overflow:visible;enable-background:accumulate"
       inkscape:connector-curvature="0" />
    <path
       d="m 82.144678,99.56839 a 5,5 0 0 1 -9.999995,0 5,5 0 1 1 9.999995,0 z"
       id="path4356-7-6-7-6-1-5-1-7-2"
       style="color:#000000;fill:#ffffff;fill-opacity:1;fill-rule:evenodd;stroke:none;stroke-width:0.33830979;marker:none;visibility:visible;display:inline;overflow:visible;enable-background:accumulate"
       inkscape:connector-curvature="0" />
    <path
       d="m 82.144678,98.569356 a 5,5 0 0 1 -9.999995,0 5,5 0 1 1 9.999995,0 z"
       id="path4356-8-9-9-8-7-8-6-3"
       style="opacity:0.6;color:#000000;fill:#008000;fill-opacity:1;fill-rule:evenodd;stroke:none;stroke-width:0.33830979;marker:none;visibility:visible;display:inline;overflow:visible;enable-background:accumulate"
       inkscape:connector-curvature="0" />
    <path
       d="m 42.710663,105.56839 a 5,5 0 0 1 -9.999995,0 5,5 0 1 1 9.999995,0 z"
       id="path4356-7-6-7-6-1-5"
       style="color:#000000;fill:#ffffff;fill-opacity:1;fill-rule:evenodd;stroke:none;stroke-width:0.33830979;marker:none;visibility:visible;display:inline;overflow:visible;enable-background:accumulate"
       inkscape:connector-curvature="0" />
    <path
       d="m 42.710663,104.56936 a 5,5 0 0 1 -9.999995,0 5,5 0 1 1 9.999995,0 z"
       id="path4356-8-9-9-8-7"
       style="opacity:0.6;color:#000000;fill:#008000;fill-opacity:1;fill-rule:evenodd;stroke:none;stroke-width:0.33830979;marker:none;visibility:visible;display:inline;overflow:visible;enable-background:accumulate"
       inkscape:connector-curvature="0" />
    <path
       d="m 69.000007,105.56839 a 5,5 0 0 1 -9.999995,0 5,5 0 1 1 9.999995,0 z"
       id="path4356-7-6-7-6-1-5-1"
       style="color:#000000;fill:#ffffff;fill-opacity:1;fill-rule:evenodd;stroke:none;stroke-width:0.33830979;marker:none;visibility:visible;display:inline;overflow:visible;enable-background:accumulate"
       inkscape:connector-curvature="0" />
    <path
       d="m 69.000007,104.56936 a 5,5 0 0 1 -9.999995,0 5,5 0 1 1 9.999995,0 z"
       id="path4356-8-9-9-8-7-8"
       style="opacity:0.6;color:#000000;fill:#008000;fill-opacity:1;fill-rule:evenodd;stroke:none;stroke-width:0.33830979;marker:none;visibility:visible;display:inline;overflow:visible;enable-background:accumulate"
       inkscape:connector-curvature="0" />
    <path
       d="m 55.855333,99.56839 a 5,5 0 0 1 -9.999995,0 5,5 0 1 1 9.999995,0 z"
       id="path4356-7-6-7-6-1-5-3"
       style="color:#000000;fill:#ffffff;fill-opacity:1;fill-rule:evenodd;stroke:none;stroke-width:0.33830979;marker:none;visibility:visible;display:inline;overflow:visible;enable-background:accumulate"
       inkscape:connector-curvature="0" />
    <path
       d="m 55.855333,98.569358 a 5,5 0 0 1 -9.999995,0 5,5 0 1 1 9.999995,0 z"
       id="path4356-8-9-9-8-7-3"
       style="opacity:0.6;color:#000000;fill:#008000;fill-opacity:1;fill-rule:evenodd;stroke:none;stroke-width:0.33830979;marker:none;visibility:visible;display:inline;overflow:visible;enable-background:accumulate"
       inkscape:connector-curvature="0" />
    <path
       d="m 29.565984,99.56839 a 5,5 0 0 1 -9.999995,0 5,5 0 1 1 9.999995,0 z"
       id="path4356-7-6-7-6-1-5-1-7"
       style="color:#000000;fill:#ffffff;fill-opacity:1;fill-rule:evenodd;stroke:none;stroke-width:0.33830979;marker:none;visibility:visible;display:inline;overflow:visible;enable-background:accumulate"
       inkscape:connector-curvature="0" />
    <path
       d="m 29.565984,98.569356 a 5,5 0 0 1 -9.999995,0 5,5 0 1 1 9.999995,0 z"
       id="path4356-8-9-9-8-7-8-6"
       style="opacity:0.6;color:#000000;fill:#008000;fill-opacity:1;fill-rule:evenodd;stroke:none;stroke-width:0.33830979;marker:none;visibility:visible;display:inline;overflow:visible;enable-background:accumulate"
       inkscape:connector-curvature="0" />
  </g>
</svg>
